<svg width="20" height="21" viewBox="0 0 20 21" xmlns="http://www.w3.org/2000/svg">
<path d="M12.9499 10.1186L8.23328 5.41026C8.15581 5.33215 8.06364 5.27015 7.96209 5.22785C7.86054 5.18554 7.75162 5.16376 7.64161 5.16376C7.5316 5.16376 7.42268 5.18554 7.32113 5.22785C7.21958 5.27015 7.12741 5.33215 7.04994 5.41026C6.89474 5.56639 6.80762 5.7776 6.80762 5.99776C6.80762 6.21791 6.89474 6.42912 7.04994 6.58526L11.1749 10.7519L7.04994 14.8769C6.89474 15.0331 6.80762 15.2443 6.80762 15.4644C6.80762 15.6846 6.89474 15.8958 7.04994 16.0519C7.12712 16.1307 7.21916 16.1933 7.32072 16.2362C7.42229 16.2791 7.53135 16.3015 7.64161 16.3019C7.75187 16.3015 7.86094 16.2791 7.9625 16.2362C8.06406 16.1933 8.1561 16.1307 8.23328 16.0519L12.9499 11.3436C13.0345 11.2656 13.102 11.1708 13.1482 11.0654C13.1944 10.96 13.2182 10.8462 13.2182 10.7311C13.2182 10.616 13.1944 10.5022 13.1482 10.3968C13.102 10.2913 13.0345 10.1966 12.9499 10.1186Z" fill="currentColor"/>
</svg>
