<svg width="20" height="20" viewBox="0 0 20 20" xmlns="http://www.w3.org/2000/svg">
<path d="M14.1664 9.16666H7.84142L10.5914 6.42499C10.7483 6.26807 10.8365 6.05524 10.8365 5.83333C10.8365 5.61141 10.7483 5.39858 10.5914 5.24166C10.4345 5.08474 10.2217 4.99658 9.99975 4.99658C9.77783 4.99658 9.565 5.08474 9.40808 5.24166L5.24142 9.40833C5.16555 9.48758 5.10608 9.58103 5.06642 9.68333C4.98307 9.88621 4.98307 10.1138 5.06642 10.3167C5.10608 10.419 5.16555 10.5124 5.24142 10.5917L9.40808 14.7583C9.48555 14.8364 9.57772 14.8984 9.67927 14.9407C9.78082 14.983 9.88974 15.0048 9.99975 15.0048C10.1098 15.0048 10.2187 14.983 10.3202 14.9407C10.4218 14.8984 10.5139 14.8364 10.5914 14.7583C10.6695 14.6809 10.7315 14.5887 10.7738 14.4871C10.8161 14.3856 10.8379 14.2767 10.8379 14.1667C10.8379 14.0566 10.8161 13.9477 10.7738 13.8462C10.7315 13.7446 10.6695 13.6525 10.5914 13.575L7.84142 10.8333H14.1664C14.3874 10.8333 14.5994 10.7455 14.7557 10.5892C14.912 10.433 14.9998 10.221 14.9998 9.99999C14.9998 9.77898 14.912 9.56702 14.7557 9.41074C14.5994 9.25446 14.3874 9.16666 14.1664 9.16666Z" fill="currentColor"/>
</svg>
