<svg width="16" height="16" viewBox="0 0 16 16" xmlns="http://www.w3.org/2000/svg">
<path d="M11.333 14.6667H3.33301C2.80257 14.6667 2.29387 14.456 1.91879 14.0809C1.54372 13.7058 1.33301 13.1971 1.33301 12.6667V6.00001C1.33301 5.46957 1.54372 4.96087 1.91879 4.58579C2.29387 4.21072 2.80257 4.00001 3.33301 4.00001H3.99967C4.01089 3.4351 4.20124 2.88835 4.54328 2.43863C4.88532 1.9889 5.36137 1.65944 5.90277 1.49776C6.44416 1.33609 7.02292 1.35055 7.55556 1.53907C8.0882 1.72759 8.54719 2.08042 8.86634 2.54667C9.1653 2.97277 9.32802 3.47952 9.33301 4.00001H11.333C11.5098 4.00001 11.6794 4.07025 11.8044 4.19527C11.9294 4.32029 11.9997 4.48986 11.9997 4.66667V6.66667C12.5646 6.67789 13.1113 6.86824 13.5611 7.21028C14.0108 7.55232 14.3402 8.02837 14.5019 8.56977C14.6636 9.11116 14.6491 9.68992 14.4606 10.2226C14.2721 10.7552 13.9193 11.2142 13.453 11.5333C13.0269 11.8323 12.5202 11.995 11.9997 12V14C11.9997 14.1768 11.9294 14.3464 11.8044 14.4714C11.6794 14.5964 11.5098 14.6667 11.333 14.6667ZM3.33301 5.33334C3.1562 5.33334 2.98663 5.40358 2.8616 5.5286C2.73658 5.65363 2.66634 5.8232 2.66634 6.00001V12.6667C2.66634 12.8435 2.73658 13.0131 2.8616 13.1381C2.98663 13.2631 3.1562 13.3333 3.33301 13.3333H10.6663V11.2133C10.6658 11.1064 10.6909 11.001 10.7396 10.9058C10.7884 10.8107 10.8593 10.7287 10.9463 10.6667C11.0332 10.6048 11.1336 10.5646 11.2391 10.5495C11.3447 10.5344 11.4523 10.5449 11.553 10.58C11.743 10.6575 11.9499 10.6841 12.1534 10.6572C12.3568 10.6304 12.5497 10.5509 12.713 10.4267C12.8756 10.3275 13.015 10.1947 13.122 10.0372C13.2289 9.87964 13.3009 9.70102 13.333 9.51334C13.3587 9.32405 13.3435 9.13144 13.2882 8.94855C13.233 8.76567 13.1392 8.59679 13.013 8.45334C12.8424 8.24608 12.61 8.09874 12.3498 8.03278C12.0896 7.96683 11.8151 7.98571 11.5663 8.08667C11.4657 8.1218 11.358 8.13226 11.2525 8.11718C11.1469 8.1021 11.0465 8.06192 10.9597 8.00001C10.8726 7.93801 10.8017 7.85598 10.753 7.76084C10.7042 7.6657 10.6791 7.56023 10.6797 7.45334V5.33334H8.54634C8.43678 5.33955 8.32737 5.31862 8.22784 5.27239C8.1283 5.22617 8.04172 5.1561 7.97577 5.06838C7.90982 4.98067 7.86654 4.87803 7.84978 4.76958C7.83301 4.66112 7.84328 4.55021 7.87967 4.44667C7.95718 4.25668 7.9838 4.04976 7.95691 3.84633C7.93002 3.6429 7.85055 3.45001 7.72634 3.28667C7.62791 3.11945 7.49311 2.97652 7.33194 2.86847C7.17076 2.76042 6.98734 2.69002 6.79526 2.66249C6.60318 2.63496 6.40737 2.651 6.22234 2.70943C6.0373 2.76785 5.86778 2.86717 5.72634 3.00001C5.59499 3.13028 5.49219 3.28647 5.42447 3.45863C5.35676 3.63079 5.32561 3.81516 5.33301 4.00001C5.33455 4.15292 5.36392 4.30428 5.41967 4.44667C5.45492 4.54749 5.46543 4.65529 5.45032 4.76101C5.43521 4.86673 5.39492 4.96728 5.33285 5.05418C5.27077 5.14108 5.18873 5.2118 5.09363 5.26038C4.99852 5.30896 4.89313 5.33398 4.78634 5.33334H3.33301Z" fill="currentColor"/>
</svg>
