<svg width="26" height="27" viewBox="0 0 26 27" xmlns="http://www.w3.org/2000/svg">
<path d="M15.1666 19.8552C15.454 19.8552 15.7295 19.741 15.9327 19.5379C16.1358 19.3347 16.25 19.0592 16.25 18.7718V16.6052C16.25 16.3179 16.1358 16.0423 15.9327 15.8392C15.7295 15.636 15.454 15.5218 15.1666 15.5218C14.8793 15.5218 14.6038 15.636 14.4006 15.8392C14.1974 16.0423 14.0833 16.3179 14.0833 16.6052V18.7718C14.0833 19.0592 14.1974 19.3347 14.4006 19.5379C14.6038 19.741 14.8793 19.8552 15.1666 19.8552ZM10.8333 19.8552C11.1206 19.8552 11.3962 19.741 11.5993 19.5379C11.8025 19.3347 11.9166 19.0592 11.9166 18.7718V16.6052C11.9166 16.3179 11.8025 16.0423 11.5993 15.8392C11.3962 15.636 11.1206 15.5218 10.8333 15.5218C10.546 15.5218 10.2704 15.636 10.0673 15.8392C9.86411 16.0423 9.74998 16.3179 9.74998 16.6052V18.7718C9.74998 19.0592 9.86411 19.3347 10.0673 19.5379C10.2704 19.741 10.546 19.8552 10.8333 19.8552ZM20.5833 6.85518H19.0883L17.2141 3.11768C17.1569 2.98016 17.0719 2.85592 16.9644 2.75274C16.857 2.64956 16.7294 2.56964 16.5896 2.518C16.4499 2.46635 16.301 2.44407 16.1523 2.45257C16.0036 2.46106 15.8582 2.50014 15.7252 2.56736C15.5923 2.63458 15.4746 2.7285 15.3796 2.84324C15.2846 2.95799 15.2143 3.09109 15.1731 3.23424C15.1318 3.37739 15.1205 3.52751 15.1399 3.67522C15.1593 3.82292 15.209 3.96504 15.2858 4.09268L16.6616 6.85518H9.33831L10.7141 4.09268C10.8193 3.84016 10.825 3.55722 10.7302 3.30064C10.6354 3.04407 10.447 2.83287 10.2029 2.70945C9.95877 2.58602 9.67701 2.55951 9.41416 2.63523C9.15131 2.71095 8.92684 2.8833 8.78581 3.11768L6.91165 6.85518H5.41665C4.65093 6.86683 3.91393 7.14849 3.33562 7.65049C2.7573 8.15249 2.37483 8.84259 2.25566 9.59906C2.13649 10.3555 2.28828 11.1298 2.68425 11.7853C3.08022 12.4408 3.69493 12.9354 4.41998 13.1818L5.22165 21.2635C5.30249 22.068 5.68027 22.8134 6.28122 23.3543C6.88218 23.8951 7.66315 24.1926 8.47165 24.1885H17.55C18.3585 24.1926 19.1394 23.8951 19.7404 23.3543C20.3414 22.8134 20.7191 22.068 20.8 21.2635L21.6016 13.1818C22.3283 12.9346 22.944 12.4382 23.3396 11.7805C23.7353 11.1229 23.8855 10.3464 23.7635 9.58859C23.6415 8.83081 23.2553 8.14065 22.6732 7.64036C22.0912 7.14006 21.3508 6.86191 20.5833 6.85518ZM18.6225 21.0469C18.5955 21.315 18.4696 21.5635 18.2693 21.7438C18.069 21.9241 17.8086 22.0232 17.5391 22.0219H8.46081C8.19131 22.0232 7.93099 21.9241 7.73067 21.7438C7.53035 21.5635 7.40443 21.315 7.37748 21.0469L6.60831 13.3552H19.3916L18.6225 21.0469ZM20.5833 11.1885H5.41665C5.12933 11.1885 4.85378 11.0744 4.65061 10.8712C4.44745 10.6681 4.33331 10.3925 4.33331 10.1052C4.33331 9.81787 4.44745 9.54232 4.65061 9.33915C4.85378 9.13599 5.12933 9.02185 5.41665 9.02185H20.5833C20.8706 9.02185 21.1462 9.13599 21.3493 9.33915C21.5525 9.54232 21.6666 9.81787 21.6666 10.1052C21.6666 10.3925 21.5525 10.6681 21.3493 10.8712C21.1462 11.0744 20.8706 11.1885 20.5833 11.1885Z" fill="currentColor"/>
</svg>
