<svg width="16" height="16" viewBox="0 0 16 16" xmlns="http://www.w3.org/2000/svg">
<path d="M1.33385 11.3864V3.38638C1.33385 2.85595 1.54456 2.34724 1.91963 1.97217C2.2947 1.5971 2.80341 1.38638 3.33385 1.38638L10.0005 1.38638C10.5309 1.38638 11.0397 1.5971 11.4147 1.97217C11.7898 2.34724 12.0005 2.85595 12.0005 3.38638V4.05305C12.5654 4.06426 13.1122 4.25462 13.5619 4.59666C14.0116 4.9387 14.3411 5.41475 14.5028 5.95614C14.6644 6.49754 14.65 7.07629 14.4614 7.60893C14.2729 8.14157 13.9201 8.60057 13.4538 8.91972C13.0277 9.21868 12.521 9.38139 12.0005 9.38638V11.3864C12.0005 11.5632 11.9303 11.7328 11.8052 11.8578C11.6802 11.9828 11.5107 12.053 11.3338 12.053H9.33385C9.32263 12.618 9.13228 13.1647 8.79024 13.6144C8.44819 14.0642 7.97215 14.3936 7.43075 14.5553C6.88936 14.717 6.3106 14.7025 5.77796 14.514C5.24532 14.3255 4.78633 13.9726 4.46718 13.5064C4.16822 13.0803 4.0055 12.5735 4.00051 12.053H2.00051C1.8237 12.053 1.65413 11.9828 1.52911 11.8578C1.40408 11.7328 1.33385 11.5632 1.33385 11.3864ZM10.6672 3.38638C10.6672 3.20957 10.5969 3.04 10.4719 2.91498C10.3469 2.78995 10.1773 2.71972 10.0005 2.71972L3.33385 2.71972C3.15703 2.71972 2.98746 2.78995 2.86244 2.91498C2.73742 3.04 2.66718 3.20957 2.66718 3.38638V10.7197H4.78718C4.89407 10.7191 4.99954 10.7443 5.09468 10.793C5.18982 10.8417 5.27185 10.9126 5.33385 10.9997C5.39576 11.0865 5.43594 11.1869 5.45102 11.2925C5.4661 11.3981 5.45564 11.5057 5.42051 11.6064C5.343 11.7964 5.31638 12.0033 5.34327 12.2067C5.37016 12.4102 5.44963 12.6031 5.57384 12.7664C5.67298 12.9289 5.80579 13.0684 5.96333 13.1753C6.12088 13.2823 6.2995 13.3542 6.48718 13.3864C6.67647 13.4121 6.86908 13.3968 7.05197 13.3416C7.23485 13.2864 7.40373 13.1925 7.54718 13.0664C7.75444 12.8958 7.90178 12.6634 7.96774 12.4032C8.03369 12.1429 8.01481 11.8685 7.91384 11.6197C7.87872 11.519 7.86826 11.4114 7.88334 11.3058C7.89842 11.2003 7.9386 11.0999 8.00051 11.013C8.06251 10.926 8.14454 10.8551 8.23968 10.8063C8.33482 10.7576 8.44028 10.7325 8.54718 10.733H10.6672V8.59972C10.661 8.49015 10.6819 8.38075 10.7281 8.28121C10.7743 8.18168 10.8444 8.09509 10.9321 8.02914C11.0199 7.96319 11.1225 7.91992 11.2309 7.90315C11.3394 7.88639 11.4503 7.89666 11.5538 7.93305C11.7438 8.01056 11.9508 8.03718 12.1542 8.01029C12.3576 7.9834 12.5505 7.90393 12.7138 7.77972C12.8811 7.68129 13.024 7.54649 13.132 7.38531C13.2401 7.22414 13.3105 7.04072 13.338 6.84864C13.3656 6.65656 13.3495 6.46075 13.2911 6.27571C13.2327 6.09067 13.1334 5.92116 13.0005 5.77972C12.8702 5.64837 12.7141 5.54556 12.5419 5.47785C12.3697 5.41013 12.1854 5.37898 12.0005 5.38638C11.8476 5.38793 11.6962 5.41729 11.5538 5.47305C11.453 5.50829 11.3452 5.5188 11.2395 5.50369C11.1338 5.48858 11.0332 5.4483 10.9463 5.38622C10.8594 5.32415 10.7887 5.24211 10.7401 5.147C10.6916 5.05189 10.6665 4.94651 10.6672 4.83972V3.38638Z" fill="currentColor"/>
</svg>
