<svg width="16" height="16" viewBox="0 0 16 16" xmlns="http://www.w3.org/2000/svg">
<path fill-rule="evenodd" clip-rule="evenodd" d="M12.183 6.67933C11.9718 6.65011 11.7566 6.67199 11.5555 6.74315C11.2084 6.86599 10.8274 6.6842 10.7046 6.33711C10.6692 6.23724 10.6591 6.13457 10.6709 6.03606V3.35206H9.27384C9.29401 3.43343 9.31039 3.51592 9.32286 3.5993C9.39889 4.10745 9.32646 4.62674 9.11439 5.09472C8.90226 5.56269 8.55946 5.95943 8.12719 6.23721C7.69499 6.51498 7.19166 6.66197 6.67786 6.66049C6.16406 6.65901 5.66166 6.50913 5.23099 6.22887C4.80033 5.94861 4.45986 5.54991 4.25046 5.08072C4.04099 4.61153 3.97159 4.09183 4.05053 3.58412C4.06393 3.49811 4.08146 3.41307 4.10299 3.32927H2.66566V12.6709H4.10093C4.07913 12.5865 4.06139 12.5008 4.04792 12.4141C3.96899 11.9064 4.03839 11.3867 4.24786 10.9175C4.45726 10.4483 4.79773 10.0496 5.22839 9.76937C5.65906 9.4891 6.16146 9.33923 6.67526 9.33777C7.18906 9.3363 7.69233 9.48323 8.12459 9.76103C8.55686 10.0388 8.89966 10.4356 9.11179 10.9035C9.32386 11.3715 9.39628 11.8908 9.32026 12.399C9.30654 12.4907 9.28809 12.5814 9.26506 12.6706H10.6709V9.94737C10.6672 9.90703 10.6671 9.8661 10.6709 9.82497V9.79317H10.6746C10.6808 9.7501 10.6912 9.70697 10.7062 9.66437C10.8287 9.3171 11.2095 9.13497 11.5567 9.25743C11.7579 9.32843 11.9731 9.3501 12.1843 9.3207C12.3956 9.29123 12.5967 9.21157 12.7708 9.0883C12.9448 8.9651 13.0868 8.80183 13.1848 8.61237C13.2827 8.4229 13.3338 8.2127 13.3337 7.99943C13.3336 7.78617 13.2823 7.57603 13.1842 7.38663C13.086 7.19726 12.9439 7.03419 12.7697 6.91112C12.5955 6.78805 12.3943 6.70856 12.183 6.67933ZM12.0042 10.6668C12.1257 10.6666 12.2473 10.6581 12.3683 10.6412C12.7908 10.5824 13.193 10.423 13.5412 10.1765C13.8893 9.93003 14.1733 9.60363 14.3692 9.2247C14.5651 8.84577 14.6672 8.42537 14.667 7.99877C14.6668 7.57223 14.5642 7.15191 14.368 6.77317C14.1717 6.39443 13.8874 6.06829 13.5391 5.82215C13.1907 5.57601 12.7883 5.41703 12.3657 5.35858C12.2456 5.34196 12.1248 5.33361 12.0042 5.33343V2.75206C12.0042 2.34705 11.6759 2.01873 11.2709 2.01873L8.32267 2.01873C8.124 1.97721 7.90893 2.0266 7.74493 2.17115C7.46873 2.41463 7.44219 2.83591 7.68573 3.1121C7.85559 3.30481 7.96619 3.54249 8.00419 3.79657C8.04219 4.05064 8.00599 4.31029 7.89993 4.54427C7.79393 4.77827 7.62253 4.97663 7.40639 5.11552C7.19026 5.25441 6.93859 5.3279 6.68173 5.32716C6.42479 5.32642 6.17359 5.25148 5.95826 5.11135C5.74293 4.97122 5.57273 4.77187 5.46799 4.53727C5.36326 4.30268 5.32859 4.04283 5.36806 3.78898C5.40753 3.53513 5.51946 3.29808 5.69046 3.10635C5.93553 2.83157 5.91146 2.41015 5.63666 2.16508C5.49166 2.03574 5.30579 1.98137 5.12659 1.99926V1.99594H2.06566C1.66072 1.99594 1.33232 2.32419 1.33232 2.72927V13.2709C1.33232 13.6759 1.66066 14.0042 2.06566 14.0042H5.26533V13.9981C5.39773 13.9832 5.52706 13.9286 5.63406 13.8332C5.90886 13.5881 5.93292 13.1666 5.68786 12.8919C5.51686 12.7002 5.40493 12.4631 5.36546 12.2092C5.32599 11.9554 5.36066 11.6956 5.46539 11.461C5.57013 11.2264 5.74032 11.027 5.95566 10.8869C6.17099 10.7468 6.42219 10.6718 6.67913 10.6711C6.93599 10.6704 7.18766 10.7438 7.40379 10.8827C7.61993 11.0216 7.79133 11.22 7.89733 11.454C8.00339 11.688 8.03959 11.9476 8.00159 12.2017C7.96359 12.4558 7.85299 12.6934 7.68313 12.8862C7.43959 13.1623 7.46613 13.5836 7.74233 13.8271C7.86433 13.9346 8.01457 13.9895 8.16533 13.9934V14.004H11.2709C11.676 14.004 12.0042 13.6754 12.0042 13.2706V10.6668Z" fill="currentColor"/>
</svg>
