<svg width="20" height="20" viewBox="0 0 20 20" xmlns="http://www.w3.org/2000/svg">
<path d="M15.8333 5.41659H13.3333V4.58325C13.3333 3.92021 13.0699 3.28433 12.6011 2.81549C12.1322 2.34664 11.4964 2.08325 10.8333 2.08325H9.16666C8.50362 2.08325 7.86773 2.34664 7.39889 2.81549C6.93005 3.28433 6.66666 3.92021 6.66666 4.58325V5.41659H4.16666C3.50362 5.41659 2.86773 5.67998 2.39889 6.14882C1.93005 6.61766 1.66666 7.25354 1.66666 7.91658V15.4166C1.66666 16.0796 1.93005 16.7155 2.39889 17.1844C2.86773 17.6532 3.50362 17.9166 4.16666 17.9166H15.8333C16.4964 17.9166 17.1322 17.6532 17.6011 17.1844C18.0699 16.7155 18.3333 16.0796 18.3333 15.4166V7.91658C18.3333 7.25354 18.0699 6.61766 17.6011 6.14882C17.1322 5.67998 16.4964 5.41659 15.8333 5.41659ZM8.33332 4.58325C8.33332 4.36224 8.42112 4.15028 8.5774 3.994C8.73368 3.83772 8.94564 3.74992 9.16666 3.74992H10.8333C11.0543 3.74992 11.2663 3.83772 11.4226 3.994C11.5789 4.15028 11.6667 4.36224 11.6667 4.58325V5.41659H8.33332V4.58325ZM16.6667 15.4166C16.6667 15.6376 16.5789 15.8496 16.4226 16.0058C16.2663 16.1621 16.0543 16.2499 15.8333 16.2499H4.16666C3.94564 16.2499 3.73368 16.1621 3.5774 16.0058C3.42112 15.8496 3.33332 15.6376 3.33332 15.4166V10.8333C4.14619 11.1557 4.98181 11.4175 5.83332 11.6166V12.1083C5.83332 12.3293 5.92112 12.5412 6.0774 12.6975C6.23368 12.8538 6.44564 12.9416 6.66666 12.9416C6.88767 12.9416 7.09963 12.8538 7.25591 12.6975C7.41219 12.5412 7.49999 12.3293 7.49999 12.1083V11.9333C8.32861 12.0461 9.16373 12.1045 9.99999 12.1083C10.8362 12.1045 11.6714 12.0461 12.5 11.9333V12.1083C12.5 12.3293 12.5878 12.5412 12.7441 12.6975C12.9003 12.8538 13.1123 12.9416 13.3333 12.9416C13.5543 12.9416 13.7663 12.8538 13.9226 12.6975C14.0789 12.5412 14.1667 12.3293 14.1667 12.1083V11.6166C15.0182 11.4175 15.8538 11.1557 16.6667 10.8333V15.4166ZM16.6667 9.00825C15.8562 9.35033 15.0203 9.62894 14.1667 9.84159V9.58325C14.1667 9.36224 14.0789 9.15028 13.9226 8.994C13.7663 8.83772 13.5543 8.74992 13.3333 8.74992C13.1123 8.74992 12.9003 8.83772 12.7441 8.994C12.5878 9.15028 12.5 9.36224 12.5 9.58325V10.1999C10.8427 10.4499 9.15728 10.4499 7.49999 10.1999V9.58325C7.49999 9.36224 7.41219 9.15028 7.25591 8.994C7.09963 8.83772 6.88767 8.74992 6.66666 8.74992C6.44564 8.74992 6.23368 8.83772 6.0774 8.994C5.92112 9.15028 5.83332 9.36224 5.83332 9.58325V9.85825C4.97967 9.64561 4.14383 9.367 3.33332 9.02492V7.91658C3.33332 7.69557 3.42112 7.48361 3.5774 7.32733C3.73368 7.17105 3.94564 7.08325 4.16666 7.08325H15.8333C16.0543 7.08325 16.2663 7.17105 16.4226 7.32733C16.5789 7.48361 16.6667 7.69557 16.6667 7.91658V9.00825Z" fill="currentColor"/>
</svg>
