<svg width="20" height="20" viewBox="0 0 20 20" xmlns="http://www.w3.org/2000/svg">
<path d="M5.83331 5.00009C5.66849 5.00009 5.50737 5.04897 5.37033 5.14054C5.23329 5.2321 5.12648 5.36225 5.06341 5.51453C5.00033 5.6668 4.98383 5.83435 5.01599 5.996C5.04814 6.15765 5.12751 6.30614 5.24405 6.42268C5.36059 6.53923 5.50908 6.61859 5.67073 6.65075C5.83238 6.6829 5.99994 6.6664 6.15221 6.60333C6.30448 6.54025 6.43463 6.43344 6.5262 6.2964C6.61777 6.15936 6.66664 5.99825 6.66664 5.83343C6.66664 5.61241 6.57884 5.40045 6.42256 5.24417C6.26628 5.08789 6.05432 5.00009 5.83331 5.00009ZM18.0916 9.81676L10.1916 1.93343C10.1139 1.84965 10.0198 1.78274 9.91519 1.73687C9.81054 1.69099 9.69757 1.66713 9.58331 1.66676H4.58331C4.47363 1.66613 4.36492 1.68715 4.26338 1.72862C4.16185 1.77009 4.06951 1.83119 3.99164 1.90843L1.90831 3.98343C1.83107 4.0613 1.76997 4.15364 1.7285 4.25517C1.68703 4.3567 1.66601 4.46542 1.66664 4.57509V9.57509C1.66971 9.79573 1.75603 10.0071 1.90831 10.1668L9.81664 18.0834C9.97633 18.2357 10.1877 18.322 10.4083 18.3251C10.518 18.3257 10.6267 18.3047 10.7282 18.2632C10.8298 18.2218 10.9221 18.1607 11 18.0834L18.0916 10.9918C18.1689 10.9139 18.23 10.8215 18.2715 10.72C18.3129 10.6185 18.3339 10.5098 18.3333 10.4001C18.3282 10.1823 18.242 9.97435 18.0916 9.81676ZM10.4083 16.3251L3.33331 9.24176V4.91676L4.91664 3.33343H9.23331L16.3166 10.4084L10.4083 16.3251Z" fill="currentColor"/>
</svg>
