<svg width="20" height="20" viewBox="0 0 20 20" xmlns="http://www.w3.org/2000/svg">
<path d="M15.7032 6.5625C15.5887 8.15117 14.4102 9.375 13.125 9.375C11.8399 9.375 10.6594 8.15156 10.5469 6.5625C10.4297 4.90977 11.577 3.75 13.125 3.75C14.6731 3.75 15.8204 4.93984 15.7032 6.5625Z" stroke="currentColor" stroke-width="2" stroke-linecap="round" stroke-linejoin="round" fill="none"/>
<path d="M13.125 11.875C10.5793 11.875 8.13122 13.1395 7.51794 15.602C7.43669 15.9277 7.64098 16.25 7.97575 16.25H18.2746C18.6093 16.25 18.8125 15.9277 18.7324 15.602C18.1191 13.1 15.6711 11.875 13.125 11.875Z" stroke="currentColor" stroke-width="2" stroke-miterlimit="10" fill="none"/>
<path d="M7.81246 7.26328C7.72106 8.53203 6.76871 9.53125 5.74215 9.53125C4.71559 9.53125 3.76168 8.53242 3.67184 7.26328C3.57848 5.94336 4.50543 5 5.74215 5C6.97887 5 7.90582 5.96758 7.81246 7.26328Z" stroke="currentColor" stroke-width="2" stroke-linecap="round" stroke-linejoin="round" fill="none"/>
<path d="M8.0469 11.9531C7.34182 11.6301 6.56526 11.5059 5.74221 11.5059C3.71096 11.5059 1.75393 12.5156 1.2637 14.4824C1.19924 14.7426 1.36252 15 1.62971 15H6.01565" stroke="currentColor" stroke-width="2" stroke-miterlimit="10" stroke-linecap="round" fill="none"/>
</svg>
