<svg width="20" height="20" viewBox="0 0 20 20" xmlns="http://www.w3.org/2000/svg">
<path d="M12.3417 10.2334C12.8691 9.66695 13.1663 8.92406 13.175 8.15008C13.175 7.31465 12.8431 6.51343 12.2524 5.9227C11.6616 5.33196 10.8604 5.00008 10.025 5.00008C9.18956 5.00008 8.38834 5.33196 7.7976 5.9227C7.20686 6.51343 6.87499 7.31465 6.87499 8.15008C6.88369 8.92406 7.18084 9.66695 7.70832 10.2334C6.97387 10.5991 6.34184 11.1417 5.86909 11.8123C5.39633 12.4829 5.09768 13.2604 4.99999 14.0751C4.97568 14.2961 5.04016 14.5177 5.17925 14.6912C5.31834 14.8647 5.52064 14.9758 5.74166 15.0001C5.96267 15.0244 6.18429 14.9599 6.35776 14.8208C6.53123 14.6817 6.64235 14.4794 6.66666 14.2584C6.7661 13.451 7.15736 12.7079 7.76673 12.169C8.3761 11.63 9.1615 11.3326 9.97499 11.3326C10.7885 11.3326 11.5739 11.63 12.1833 12.169C12.7926 12.7079 13.1839 13.451 13.2833 14.2584C13.3065 14.4721 13.4113 14.6686 13.5759 14.8068C13.7406 14.945 13.9522 15.0142 14.1667 15.0001H14.2583C14.4768 14.9749 14.6764 14.8645 14.8138 14.6928C14.9512 14.5211 15.0151 14.3021 14.9917 14.0834C14.9012 13.2731 14.612 12.4976 14.1497 11.826C13.6874 11.1543 13.0663 10.6072 12.3417 10.2334ZM9.99999 9.63342C9.70661 9.63342 9.41983 9.54642 9.17589 9.38343C8.93196 9.22044 8.74184 8.98877 8.62957 8.71773C8.5173 8.44669 8.48792 8.14844 8.54516 7.8607C8.60239 7.57296 8.74367 7.30865 8.95112 7.10121C9.15856 6.89376 9.42287 6.75249 9.71061 6.69525C9.99835 6.63802 10.2966 6.66739 10.5676 6.77966C10.8387 6.89193 11.0703 7.08205 11.2333 7.32599C11.3963 7.56992 11.4833 7.85671 11.4833 8.15008C11.4833 8.54349 11.327 8.92078 11.0489 9.19896C10.7707 9.47714 10.3934 9.63342 9.99999 9.63342ZM15.8333 1.66675H4.16666C3.50362 1.66675 2.86773 1.93014 2.39889 2.39898C1.93005 2.86782 1.66666 3.50371 1.66666 4.16675V15.8334C1.66666 16.4965 1.93005 17.1323 2.39889 17.6012C2.86773 18.07 3.50362 18.3334 4.16666 18.3334H15.8333C16.4964 18.3334 17.1322 18.07 17.6011 17.6012C18.0699 17.1323 18.3333 16.4965 18.3333 15.8334V4.16675C18.3333 3.50371 18.0699 2.86782 17.6011 2.39898C17.1322 1.93014 16.4964 1.66675 15.8333 1.66675ZM16.6667 15.8334C16.6667 16.0544 16.5789 16.2664 16.4226 16.4227C16.2663 16.579 16.0543 16.6667 15.8333 16.6667H4.16666C3.94564 16.6667 3.73368 16.579 3.5774 16.4227C3.42112 16.2664 3.33332 16.0544 3.33332 15.8334V4.16675C3.33332 3.94573 3.42112 3.73377 3.5774 3.57749C3.73368 3.42121 3.94564 3.33341 4.16666 3.33341H15.8333C16.0543 3.33341 16.2663 3.42121 16.4226 3.57749C16.5789 3.73377 16.6667 3.94573 16.6667 4.16675V15.8334Z" fill="currentColor"/>
</svg>
