<svg width="20" height="21" viewBox="0 0 20 21" xmlns="http://www.w3.org/2000/svg">
<path d="M14.1667 19.0436H4.16667C3.50363 19.0436 2.86775 18.7802 2.3989 18.3114C1.93006 17.8425 1.66667 17.2066 1.66667 16.5436V8.21027C1.66667 7.54723 1.93006 6.91134 2.3989 6.4425C2.86775 5.97366 3.50363 5.71027 4.16667 5.71027H5.00001C5.01402 5.00413 5.25196 4.3207 5.67952 3.75854C6.10707 3.19638 6.70213 2.78456 7.37887 2.58246C8.05561 2.38037 8.77906 2.39845 9.44486 2.6341C10.1107 2.86975 10.6844 3.31079 11.0833 3.8936C11.457 4.42622 11.6604 5.05965 11.6667 5.71027H14.1667C14.3877 5.71027 14.5996 5.79807 14.7559 5.95435C14.9122 6.11063 15 6.32259 15 6.5436V9.0436C15.7061 9.05762 16.3896 9.29556 16.9517 9.72311C17.5139 10.1507 17.9257 10.7457 18.1278 11.4225C18.3299 12.0992 18.3118 12.8227 18.0762 13.4885C17.8405 14.1543 17.3995 14.728 16.8167 15.1269C16.284 15.5006 15.6506 15.704 15 15.7103V18.2103C15 18.4313 14.9122 18.6432 14.7559 18.7995C14.5996 18.9558 14.3877 19.0436 14.1667 19.0436ZM4.16667 7.37693C3.94566 7.37693 3.7337 7.46473 3.57742 7.62101C3.42114 7.77729 3.33334 7.98925 3.33334 8.21027V16.5436C3.33334 16.7646 3.42114 16.9766 3.57742 17.1329C3.7337 17.2891 3.94566 17.3769 4.16667 17.3769H13.3333V14.7269C13.3326 14.5933 13.364 14.4615 13.425 14.3426C13.4859 14.2236 13.5745 14.1211 13.6833 14.0436C13.7919 13.9662 13.9174 13.916 14.0493 13.8971C14.1813 13.8783 14.3158 13.8914 14.4417 13.9353C14.6792 14.0322 14.9378 14.0654 15.1921 14.0318C15.4464 13.9982 15.6875 13.8989 15.8917 13.7436C16.0949 13.6197 16.2692 13.4537 16.4029 13.2567C16.5366 13.0598 16.6265 12.8365 16.6667 12.6019C16.6988 12.3653 16.6797 12.1246 16.6107 11.896C16.5417 11.6673 16.4244 11.4562 16.2667 11.2769C16.0534 11.0179 15.7629 10.8337 15.4377 10.7512C15.1124 10.6688 14.7693 10.6924 14.4583 10.8186C14.3325 10.8625 14.1979 10.8756 14.066 10.8567C13.934 10.8379 13.8085 10.7877 13.7 10.7103C13.5912 10.6328 13.5025 10.5302 13.4416 10.4113C13.3807 10.2924 13.3493 10.1606 13.35 10.0269V7.37693H10.6833C10.5464 7.3847 10.4096 7.35853 10.2852 7.30075C10.1608 7.24298 10.0526 7.15538 9.97012 7.04574C9.88768 6.93609 9.83359 6.8078 9.81263 6.67223C9.79168 6.53666 9.80452 6.39802 9.85001 6.2686C9.94689 6.03111 9.98017 5.77245 9.94656 5.51817C9.91294 5.26389 9.8136 5.02276 9.65834 4.8186C9.5353 4.60957 9.3668 4.43091 9.16534 4.29585C8.96387 4.16078 8.73459 4.07279 8.49449 4.03837C8.25439 4.00396 8.00963 4.02401 7.77833 4.09704C7.54704 4.17007 7.33514 4.29422 7.15834 4.46027C6.99415 4.62311 6.86565 4.81834 6.781 5.03354C6.69636 5.24874 6.65742 5.4792 6.66667 5.71027C6.6686 5.90141 6.70531 6.09061 6.77501 6.2686C6.81906 6.39462 6.8322 6.52937 6.81331 6.66152C6.79442 6.79367 6.74406 6.91935 6.66647 7.02798C6.58888 7.13661 6.48633 7.22501 6.36744 7.28573C6.24856 7.34646 6.11683 7.37774 5.98334 7.37693H4.16667Z" fill="currentColor"/>
</svg>
