<svg width="20" height="21" viewBox="0 0 20 21" xmlns="http://www.w3.org/2000/svg">
<path d="M15.8333 2.37692H4.16667C3.72464 2.37692 3.30072 2.55252 2.98816 2.86508C2.67559 3.17764 2.5 3.60156 2.5 4.04359V5.71026C2.5 6.15228 2.67559 6.57621 2.98816 6.88877C3.30072 7.20133 3.72464 7.37692 4.16667 7.37692V16.5436C4.16667 17.2066 4.43006 17.8425 4.8989 18.3114C5.36774 18.7802 6.00363 19.0436 6.66667 19.0436H13.3333C13.9964 19.0436 14.6323 18.7802 15.1011 18.3114C15.5699 17.8425 15.8333 17.2066 15.8333 16.5436V7.37692C16.2754 7.37692 16.6993 7.20133 17.0118 6.88877C17.3244 6.57621 17.5 6.15228 17.5 5.71026V4.04359C17.5 3.60156 17.3244 3.17764 17.0118 2.86508C16.6993 2.55252 16.2754 2.37692 15.8333 2.37692ZM14.1667 14.0436H9.16667V10.7103H14.1667V14.0436ZM14.1667 9.04359H8.33333C8.11232 9.04359 7.90036 9.13139 7.74408 9.28767C7.5878 9.44395 7.5 9.65591 7.5 9.87692V14.8769C7.5 15.0979 7.5878 15.3099 7.74408 15.4662C7.90036 15.6225 8.11232 15.7103 8.33333 15.7103H14.1667V16.5436C14.1667 16.7646 14.0789 16.9766 13.9226 17.1328C13.7663 17.2891 13.5543 17.3769 13.3333 17.3769H6.66667C6.44565 17.3769 6.23369 17.2891 6.07741 17.1328C5.92113 16.9766 5.83333 16.7646 5.83333 16.5436V7.37692H14.1667V9.04359ZM4.16667 5.71026V4.04359H15.8333V5.71026H4.16667Z" fill="currentColor"/>
</svg>
