<svg width="20" height="21" viewBox="0 0 20 21" xmlns="http://www.w3.org/2000/svg">
<path d="M10.5917 15.1186C10.5507 15.0809 10.506 15.0474 10.4583 15.0186C10.4158 14.9856 10.3679 14.9602 10.3167 14.9436C10.267 14.9182 10.2135 14.9013 10.1583 14.8936C9.99868 14.8599 9.83245 14.8774 9.68333 14.9436C9.57992 14.981 9.486 15.0407 9.40824 15.1185C9.33047 15.1963 9.27076 15.2902 9.23333 15.3936C9.18668 15.4925 9.16385 15.601 9.16667 15.7103C9.16534 15.8186 9.18515 15.9262 9.225 16.0269C9.27332 16.1265 9.335 16.219 9.40833 16.3019C9.4862 16.3792 9.57855 16.4403 9.68008 16.4818C9.78161 16.5232 9.89033 16.5442 10 16.5436C10.1093 16.5464 10.2178 16.5236 10.3167 16.4769C10.4177 16.4347 10.5107 16.3756 10.5917 16.3019C10.6689 16.2241 10.73 16.1317 10.7715 16.0302C10.8129 15.9287 10.834 15.8199 10.8333 15.7103C10.832 15.6014 10.8094 15.4938 10.7667 15.3936C10.727 15.2913 10.6675 15.1979 10.5917 15.1186ZM7.125 11.6853C7.08246 11.6523 7.03453 11.6269 6.98333 11.6103C6.9348 11.5791 6.88123 11.5565 6.825 11.5436C6.7181 11.5187 6.6069 11.5187 6.5 11.5436L6.35 11.5936L6.2 11.6686L6.075 11.7686C5.91877 11.9325 5.83215 12.1505 5.83333 12.3769C5.8327 12.4866 5.85372 12.5953 5.89519 12.6969C5.93666 12.7984 5.99777 12.8907 6.075 12.9686C6.156 13.0422 6.24901 13.1014 6.35 13.1436C6.47625 13.1955 6.6133 13.2155 6.74912 13.202C6.88494 13.1885 7.01536 13.1419 7.12893 13.0662C7.24249 12.9905 7.33572 12.888 7.40042 12.7678C7.46513 12.6477 7.49932 12.5134 7.5 12.3769C7.49693 12.1563 7.41061 11.945 7.25833 11.7853L7.125 11.6853ZM7.25833 15.1186C7.17908 15.0427 7.08563 14.9833 6.98333 14.9436C6.83248 14.8737 6.66415 14.8504 6.5 14.8769L6.35 14.9269C6.2969 14.9452 6.24645 14.9704 6.2 15.0019C6.15634 15.0327 6.1146 15.0661 6.075 15.1019C5.99913 15.1812 5.93966 15.2746 5.9 15.3769C5.85591 15.4767 5.83314 15.5845 5.83314 15.6936C5.83314 15.8027 5.85591 15.9105 5.9 16.0103C5.9422 16.1113 6.00139 16.2043 6.075 16.2853C6.15148 16.3655 6.2432 16.4297 6.3448 16.4741C6.4464 16.5184 6.55582 16.5421 6.66667 16.5436C6.77598 16.5464 6.88443 16.5236 6.98333 16.4769C7.08432 16.4347 7.17733 16.3756 7.25833 16.3019C7.33194 16.2209 7.39113 16.1279 7.43333 16.0269C7.47742 15.9272 7.50019 15.8193 7.50019 15.7103C7.50019 15.6012 7.47742 15.4934 7.43333 15.3936C7.39367 15.2913 7.3342 15.1979 7.25833 15.1186ZM9.68333 11.6103C9.58104 11.6499 9.48759 11.7094 9.40833 11.7853C9.25605 11.945 9.16974 12.1563 9.16667 12.3769C9.16735 12.5134 9.20154 12.6477 9.26624 12.7678C9.33094 12.888 9.42417 12.9905 9.53774 13.0662C9.6513 13.1419 9.78173 13.1885 9.91754 13.202C10.0534 13.2155 10.1904 13.1955 10.3167 13.1436C10.4177 13.1014 10.5107 13.0422 10.5917 12.9686C10.6689 12.8907 10.73 12.7984 10.7715 12.6969C10.8129 12.5953 10.834 12.4866 10.8333 12.3769C10.8303 12.1563 10.7439 11.945 10.5917 11.7853C10.4745 11.6696 10.3257 11.5913 10.164 11.5602C10.0024 11.529 9.83509 11.5465 9.68333 11.6103ZM13.925 15.1186C13.844 15.045 13.751 14.9858 13.65 14.9436C13.4982 14.8798 13.331 14.8624 13.1693 14.8935C13.0077 14.9246 12.8589 15.003 12.7417 15.1186C12.6658 15.1979 12.6063 15.2913 12.5667 15.3936C12.5226 15.4934 12.4998 15.6012 12.4998 15.7103C12.4998 15.8193 12.5226 15.9272 12.5667 16.0269C12.6089 16.1279 12.6681 16.2209 12.7417 16.3019C12.8195 16.3792 12.9119 16.4403 13.0134 16.4818C13.1149 16.5232 13.2237 16.5442 13.3333 16.5436C13.4426 16.5464 13.5511 16.5236 13.65 16.4769C13.751 16.4347 13.844 16.3756 13.925 16.3019C14.0406 16.1848 14.119 16.0359 14.1501 15.8743C14.1813 15.7126 14.1638 15.5454 14.1 15.3936C14.0603 15.2913 14.0009 15.1979 13.925 15.1186ZM13.3333 4.87694H6.66667C6.44565 4.87694 6.23369 4.96474 6.07741 5.12102C5.92113 5.2773 5.83333 5.48926 5.83333 5.71028V9.04361C5.83333 9.26462 5.92113 9.47658 6.07741 9.63286C6.23369 9.78914 6.44565 9.87694 6.66667 9.87694H13.3333C13.5543 9.87694 13.7663 9.78914 13.9226 9.63286C14.0789 9.47658 14.1667 9.26462 14.1667 9.04361V5.71028C14.1667 5.48926 14.0789 5.2773 13.9226 5.12102C13.7663 4.96474 13.5543 4.87694 13.3333 4.87694ZM12.5 8.21028H7.5V6.54361H12.5V8.21028ZM15 1.54361H5C4.33696 1.54361 3.70107 1.807 3.23223 2.27584C2.76339 2.74468 2.5 3.38057 2.5 4.04361V17.3769C2.5 18.04 2.76339 18.6759 3.23223 19.1447C3.70107 19.6136 4.33696 19.8769 5 19.8769H15C15.663 19.8769 16.2989 19.6136 16.7678 19.1447C17.2366 18.6759 17.5 18.04 17.5 17.3769V4.04361C17.5 3.38057 17.2366 2.74468 16.7678 2.27584C16.2989 1.807 15.663 1.54361 15 1.54361ZM15.8333 17.3769C15.8333 17.598 15.7455 17.8099 15.5893 17.9662C15.433 18.1225 15.221 18.2103 15 18.2103H5C4.77899 18.2103 4.56702 18.1225 4.41074 17.9662C4.25446 17.8099 4.16667 17.598 4.16667 17.3769V4.04361C4.16667 3.8226 4.25446 3.61063 4.41074 3.45435C4.56702 3.29807 4.77899 3.21028 5 3.21028H15C15.221 3.21028 15.433 3.29807 15.5893 3.45435C15.7455 3.61063 15.8333 3.8226 15.8333 4.04361V17.3769ZM13.7917 11.6853C13.7491 11.6523 13.7012 11.6269 13.65 11.6103C13.6004 11.5849 13.5469 11.568 13.4917 11.5603C13.3848 11.5354 13.2736 11.5354 13.1667 11.5603L13.0167 11.6103L12.8667 11.6853L12.7417 11.7853C12.5894 11.945 12.5031 12.1563 12.5 12.3769C12.5007 12.5134 12.5349 12.6477 12.5996 12.7678C12.6643 12.888 12.7575 12.9905 12.8711 13.0662C12.9846 13.1419 13.1151 13.1885 13.2509 13.202C13.3867 13.2155 13.5238 13.1955 13.65 13.1436C13.751 13.1014 13.844 13.0422 13.925 12.9686C14.0022 12.8907 14.0633 12.7984 14.1048 12.6969C14.1463 12.5953 14.1673 12.4866 14.1667 12.3769C14.1636 12.1563 14.0773 11.945 13.925 11.7853L13.7917 11.6853Z" fill="currentColor"/>
</svg>
