<svg width="20" height="21" viewBox="0 0 20 21" xmlns="http://www.w3.org/2000/svg">
<path d="M2.49996 7.37693H17.5C17.721 7.37693 17.9329 7.28914 18.0892 7.13285C18.2455 6.97657 18.3333 6.76461 18.3333 6.5436C18.3333 6.32259 18.2455 6.11062 18.0892 5.95434C17.9329 5.79806 17.721 5.71027 17.5 5.71027H2.49996C2.27895 5.71027 2.06698 5.79806 1.9107 5.95434C1.75442 6.11062 1.66663 6.32259 1.66663 6.5436C1.66663 6.76461 1.75442 6.97657 1.9107 7.13285C2.06698 7.28914 2.27895 7.37693 2.49996 7.37693ZM17.5 14.0436H2.49996C2.27895 14.0436 2.06698 14.1314 1.9107 14.2877C1.75442 14.444 1.66663 14.6559 1.66663 14.8769C1.66663 15.0979 1.75442 15.3099 1.9107 15.4662C2.06698 15.6225 2.27895 15.7103 2.49996 15.7103H17.5C17.721 15.7103 17.9329 15.6225 18.0892 15.4662C18.2455 15.3099 18.3333 15.0979 18.3333 14.8769C18.3333 14.6559 18.2455 14.444 18.0892 14.2877C17.9329 14.1314 17.721 14.0436 17.5 14.0436ZM17.5 9.87693H2.49996C2.27895 9.87693 2.06698 9.96473 1.9107 10.121C1.75442 10.2773 1.66663 10.4893 1.66663 10.7103C1.66663 10.9313 1.75442 11.1432 1.9107 11.2995C2.06698 11.4558 2.27895 11.5436 2.49996 11.5436H17.5C17.721 11.5436 17.9329 11.4558 18.0892 11.2995C18.2455 11.1432 18.3333 10.9313 18.3333 10.7103C18.3333 10.4893 18.2455 10.2773 18.0892 10.121C17.9329 9.96473 17.721 9.87693 17.5 9.87693Z" fill="currentColor"/>
</svg>
