<svg width="20" height="21" viewBox="0 0 20 21" xmlns="http://www.w3.org/2000/svg">
<path d="M16.6667 7.37694L11.6667 2.9936C11.2083 2.58364 10.6149 2.35699 9.99999 2.35699C9.38504 2.35699 8.79167 2.58364 8.33332 2.9936L3.33332 7.37694C3.06863 7.61367 2.8574 7.90407 2.71371 8.22881C2.57002 8.55355 2.49716 8.90517 2.49999 9.26027V16.5436C2.49999 17.2066 2.76338 17.8425 3.23222 18.3114C3.70106 18.7802 4.33695 19.0436 4.99999 19.0436H15C15.663 19.0436 16.2989 18.7802 16.7678 18.3114C17.2366 17.8425 17.5 17.2066 17.5 16.5436V9.25194C17.5016 8.89824 17.4282 8.54822 17.2845 8.22501C17.1409 7.90179 16.9303 7.61273 16.6667 7.37694ZM11.6667 17.3769H8.33332V13.2103C8.33332 12.9893 8.42112 12.7773 8.5774 12.621C8.73368 12.4647 8.94564 12.3769 9.16665 12.3769H10.8333C11.0543 12.3769 11.2663 12.4647 11.4226 12.621C11.5789 12.7773 11.6667 12.9893 11.6667 13.2103V17.3769ZM15.8333 16.5436C15.8333 16.7646 15.7455 16.9766 15.5892 17.1329C15.433 17.2891 15.221 17.3769 15 17.3769H13.3333V13.2103C13.3333 12.5472 13.0699 11.9113 12.6011 11.4425C12.1322 10.9737 11.4964 10.7103 10.8333 10.7103H9.16665C8.50361 10.7103 7.86773 10.9737 7.39889 11.4425C6.93005 11.9113 6.66665 12.5472 6.66665 13.2103V17.3769H4.99999C4.77897 17.3769 4.56701 17.2891 4.41073 17.1329C4.25445 16.9766 4.16665 16.7646 4.16665 16.5436V9.25194C4.1668 9.13362 4.19215 9.01669 4.241 8.90892C4.28986 8.80116 4.3611 8.70503 4.44999 8.62694L9.44999 4.25194C9.60206 4.11834 9.79756 4.04466 9.99999 4.04466C10.2024 4.04466 10.3979 4.11834 10.55 4.25194L15.55 8.62694C15.6389 8.70503 15.7101 8.80116 15.759 8.90892C15.8078 9.01669 15.8332 9.13362 15.8333 9.25194V16.5436Z" fill="currentColor"/>
</svg>
