<svg width="20" height="21" viewBox="0 0 20 21" xmlns="http://www.w3.org/2000/svg">
<path d="M17.6417 2.42692C17.0443 2.32403 16.4395 2.27107 15.8333 2.26859C13.7653 2.26689 11.7404 2.8599 10 3.97692C8.25512 2.87457 6.23054 2.29611 4.16667 2.31026C3.56054 2.31274 2.95567 2.3657 2.35833 2.46859C2.16267 2.50232 1.98548 2.6048 1.85868 2.75758C1.73187 2.91036 1.66378 3.1034 1.66667 3.30192V13.3019C1.66488 13.4244 1.6901 13.5457 1.74054 13.6573C1.79098 13.7689 1.86539 13.868 1.95848 13.9475C2.05157 14.0271 2.16105 14.0852 2.27913 14.1176C2.39721 14.1501 2.52099 14.1561 2.64167 14.1353C3.83585 13.9285 5.05933 13.9628 6.24005 14.2362C7.42077 14.5095 8.53485 15.0164 9.51667 15.7269L9.61667 15.7853H9.70833C9.80075 15.8238 9.89988 15.8436 10 15.8436C10.1001 15.8436 10.1992 15.8238 10.2917 15.7853H10.3833L10.4833 15.7269C11.4583 15.0005 12.5692 14.4772 13.7501 14.188C14.9311 13.8989 16.158 13.8498 17.3583 14.0436C17.479 14.0644 17.6028 14.0584 17.7209 14.026C17.839 13.9935 17.9484 13.9354 18.0415 13.8559C18.1346 13.7763 18.209 13.6772 18.2595 13.5656C18.3099 13.454 18.3351 13.3327 18.3333 13.2103V3.21026C18.3247 3.02038 18.2513 2.83918 18.1255 2.6967C17.9997 2.55423 17.829 2.45904 17.6417 2.42692ZM9.16667 13.5019C7.6249 12.6908 5.90876 12.2675 4.16667 12.2686C3.89167 12.2686 3.61667 12.2686 3.33333 12.2686V3.93526C3.61088 3.91926 3.88912 3.91926 4.16667 3.93526C5.94449 3.93329 7.68351 4.455 9.16667 5.43526V13.5019ZM16.6667 12.3019C16.3833 12.3019 16.1083 12.3019 15.8333 12.3019C14.0912 12.3008 12.3751 12.7242 10.8333 13.5353V5.43526C12.3165 4.455 14.0555 3.93329 15.8333 3.93526C16.1109 3.91926 16.3891 3.91926 16.6667 3.93526V12.3019ZM17.6417 15.7603C17.0443 15.6574 16.4395 15.6044 15.8333 15.6019C13.7653 15.6002 11.7404 16.1932 10 17.3103C8.2596 16.1932 6.2347 15.6002 4.16667 15.6019C3.56054 15.6044 2.95567 15.6574 2.35833 15.7603C2.24986 15.7775 2.14585 15.816 2.0523 15.8735C1.95875 15.9311 1.8775 16.0065 1.81322 16.0956C1.74894 16.1847 1.7029 16.2855 1.67775 16.3925C1.6526 16.4994 1.64883 16.6102 1.66667 16.7186C1.70901 16.935 1.83541 17.1258 2.01816 17.2492C2.20091 17.3726 2.42512 17.4185 2.64167 17.3769C3.83585 17.1702 5.05933 17.2045 6.24005 17.4778C7.42077 17.7512 8.53485 18.258 9.51667 18.9686C9.6578 19.0691 9.82675 19.1231 10 19.1231C10.1733 19.1231 10.3422 19.0691 10.4833 18.9686C11.4651 18.258 12.5792 17.7512 13.7599 17.4778C14.9407 17.2045 16.1642 17.1702 17.3583 17.3769C17.5749 17.4185 17.7991 17.3726 17.9818 17.2492C18.1646 17.1258 18.291 16.935 18.3333 16.7186C18.3512 16.6102 18.3474 16.4994 18.3222 16.3925C18.2971 16.2855 18.2511 16.1847 18.1868 16.0956C18.1225 16.0065 18.0412 15.9311 17.9477 15.8735C17.8541 15.816 17.7501 15.7775 17.6417 15.7603Z" fill="currentColor"/>
</svg>
