<svg width="26" height="27" viewBox="0 0 26 27" xmlns="http://www.w3.org/2000/svg">
<path d="M19.5 14.6335V11.1885C19.4985 9.65357 18.9538 8.16869 17.9624 6.99686C16.971 5.82502 15.5969 5.04184 14.0834 4.78602V3.60518C14.0834 3.31787 13.9692 3.04232 13.7661 2.83915C13.5629 2.63599 13.2874 2.52185 13 2.52185C12.7127 2.52185 12.4372 2.63599 12.234 2.83915C12.0308 3.04232 11.9167 3.31787 11.9167 3.60518V4.78602C10.4032 5.04184 9.02911 5.82502 8.03771 6.99686C7.04631 8.16869 6.5016 9.65357 6.50004 11.1885V14.6335C5.86786 14.857 5.32029 15.2706 4.93239 15.8175C4.54449 16.3645 4.33526 17.018 4.33337 17.6885V19.8552C4.33337 20.1425 4.44751 20.4181 4.65068 20.6212C4.85384 20.8244 5.12939 20.9385 5.41671 20.9385H8.81837C9.06785 21.8565 9.61246 22.6669 10.3682 23.2446C11.1239 23.8224 12.0488 24.1354 13 24.1354C13.9513 24.1354 14.8762 23.8224 15.6319 23.2446C16.3876 22.6669 16.9322 21.8565 17.1817 20.9385H20.5834C20.8707 20.9385 21.1462 20.8244 21.3494 20.6212C21.5526 20.4181 21.6667 20.1425 21.6667 19.8552V17.6885C21.6648 17.018 21.4556 16.3645 21.0677 15.8175C20.6798 15.2706 20.1322 14.857 19.5 14.6335ZM8.66671 11.1885C8.66671 10.0392 9.12325 8.93705 9.93591 8.12439C10.7486 7.31173 11.8508 6.85518 13 6.85518C14.1493 6.85518 15.2515 7.31173 16.0642 8.12439C16.8768 8.93705 17.3334 10.0392 17.3334 11.1885V14.4385H8.66671V11.1885ZM13 22.0219C12.6219 22.0196 12.251 21.9184 11.9241 21.7283C11.5972 21.5383 11.3258 21.266 11.1367 20.9385H14.8634C14.6743 21.266 14.4029 21.5383 14.076 21.7283C13.7491 21.9184 13.3782 22.0196 13 22.0219ZM19.5 18.7719H6.50004V17.6885C6.50004 17.4012 6.61418 17.1257 6.81734 16.9225C7.02051 16.7193 7.29606 16.6052 7.58337 16.6052H18.4167C18.704 16.6052 18.9796 16.7193 19.1827 16.9225C19.3859 17.1257 19.5 17.4012 19.5 17.6885V18.7719Z" fill="currentColor"/>
</svg>
