<svg width="20" height="21" viewBox="0 0 20 21" xmlns="http://www.w3.org/2000/svg">
<path d="M16.2 11.5435C16.0166 11.5435 15.825 11.4852 15.6416 11.4435C15.2704 11.3617 14.9055 11.2531 14.55 11.1185C14.1634 10.9779 13.7384 10.9852 13.3569 11.139C12.9754 11.2929 12.6642 11.5824 12.4833 11.9518L12.3 12.3268C11.4883 11.8753 10.7425 11.3145 10.0833 10.6602C9.42895 10.001 8.86816 9.25517 8.41664 8.44351L8.76664 8.21018C9.13612 8.02927 9.42563 7.71812 9.57947 7.33659C9.73332 6.95505 9.74062 6.5301 9.59998 6.14351C9.46766 5.78719 9.35909 5.42251 9.27498 5.05184C9.23331 4.86851 9.19998 4.67684 9.17498 4.48518C9.07378 3.89819 8.76633 3.36663 8.30799 2.98621C7.84966 2.60579 7.27056 2.40152 6.67498 2.41018H4.17498C3.81584 2.4068 3.46019 2.48085 3.13224 2.62729C2.80429 2.77372 2.51174 2.98909 2.2745 3.25874C2.03727 3.5284 1.86092 3.846 1.75747 4.18994C1.65401 4.53387 1.62588 4.89606 1.67498 5.25184C2.11893 8.74299 3.71333 11.9867 6.20635 14.4707C8.69937 16.9547 11.9489 18.5373 15.4416 18.9685H15.7583C16.3728 18.9694 16.9661 18.744 17.425 18.3352C17.6886 18.0994 17.8992 17.8103 18.0429 17.4871C18.1865 17.1639 18.2599 16.8139 18.2583 16.4602V13.9602C18.2481 13.3813 18.0373 12.824 17.6619 12.3832C17.2865 11.9425 16.7698 11.6457 16.2 11.5435ZM16.6166 16.5435C16.6165 16.6618 16.5911 16.7788 16.5423 16.8865C16.4934 16.9943 16.4222 17.0904 16.3333 17.1685C16.2402 17.2489 16.1313 17.309 16.0136 17.3448C15.896 17.3807 15.7721 17.3916 15.65 17.3768C12.5291 16.9767 9.63017 15.5489 7.41057 13.3188C5.19097 11.0886 3.77699 8.18296 3.39164 5.06018C3.37838 4.93811 3.39 4.81462 3.42581 4.69717C3.46162 4.57972 3.52087 4.47075 3.59998 4.37684C3.67807 4.28795 3.77419 4.21671 3.88196 4.16786C3.98972 4.119 4.10666 4.09366 4.22498 4.09351H6.72498C6.91877 4.0892 7.108 4.15258 7.2601 4.27274C7.4122 4.39289 7.51765 4.56232 7.55831 4.75184C7.59164 4.97962 7.63331 5.20462 7.68331 5.42684C7.77958 5.86613 7.90769 6.29783 8.06664 6.71851L6.89998 7.26018C6.80022 7.30594 6.7105 7.37097 6.63594 7.45151C6.56139 7.53205 6.50348 7.62652 6.46554 7.72951C6.4276 7.83249 6.41037 7.94195 6.41485 8.05161C6.41933 8.16127 6.44543 8.26896 6.49164 8.36851C7.69098 10.9375 9.75601 13.0025 12.325 14.2018C12.5279 14.2852 12.7554 14.2852 12.9583 14.2018C13.0622 14.1647 13.1577 14.1072 13.2393 14.0328C13.3208 13.9584 13.3868 13.8686 13.4333 13.7685L13.95 12.6018C14.3808 12.7559 14.8205 12.8839 15.2666 12.9852C15.4889 13.0352 15.7139 13.0768 15.9416 13.1102C16.1312 13.1508 16.3006 13.2563 16.4208 13.4084C16.5409 13.5605 16.6043 13.7497 16.6 13.9435L16.6166 16.5435Z" fill="currentColor"/>
</svg>
