<svg width="20" height="20" viewBox="0 0 20 20" xmlns="http://www.w3.org/2000/svg">
<path d="M15.8334 9.16666H10.8334V4.16666C10.8334 3.94565 10.7456 3.73369 10.5893 3.57741C10.433 3.42113 10.2211 3.33333 10 3.33333C9.77903 3.33333 9.56706 3.42113 9.41078 3.57741C9.2545 3.73369 9.16671 3.94565 9.16671 4.16666V9.16666H4.16671C3.94569 9.16666 3.73373 9.25446 3.57745 9.41074C3.42117 9.56702 3.33337 9.77898 3.33337 9.99999C3.33337 10.221 3.42117 10.433 3.57745 10.5892C3.73373 10.7455 3.94569 10.8333 4.16671 10.8333H9.16671V15.8333C9.16671 16.0543 9.2545 16.2663 9.41078 16.4226C9.56706 16.5789 9.77903 16.6667 10 16.6667C10.2211 16.6667 10.433 16.5789 10.5893 16.4226C10.7456 16.2663 10.8334 16.0543 10.8334 15.8333V10.8333H15.8334C16.0544 10.8333 16.2663 10.7455 16.4226 10.5892C16.5789 10.433 16.6667 10.221 16.6667 9.99999C16.6667 9.77898 16.5789 9.56702 16.4226 9.41074C16.2663 9.25446 16.0544 9.16666 15.8334 9.16666Z" fill="currentColor"/>
</svg>
