<svg width="24" height="24" viewBox="0 0 24 24" xmlns="http://www.w3.org/2000/svg">
<path d="M17.5013 22C16.4193 22.0125 15.3937 21.5181 14.7296 20.6637C14.0654 19.8094 13.8393 18.6935 14.1183 17.648L7.85831 14.07C6.7766 15.061 5.19099 15.2708 3.8888 14.5951C2.5866 13.9194 1.84519 12.5022 2.03268 11.0472C2.22017 9.59218 3.29664 8.40924 4.72759 8.08574C6.15854 7.76225 7.63917 8.36712 8.43431 9.6L14.1173 6.351C14.0438 6.07318 14.0048 5.78736 14.0013 5.5C13.987 3.82671 15.1491 2.37314 16.7845 2.01882C18.4199 1.6645 20.0795 2.50674 20.759 4.03592C21.4385 5.56509 20.9513 7.36123 19.5923 8.33751C18.2332 9.31379 16.3756 9.20209 15.1433 8.07L8.99231 11.585C8.98622 11.8443 8.94998 12.1021 8.88431 12.353L15.1433 15.93C16.2956 14.8725 18.0101 14.7093 19.3412 15.5303C20.6723 16.3513 21.2959 17.9567 20.8681 19.461C20.4403 20.9653 19.0653 22.0023 17.5013 22ZM17.5013 17C16.6729 17 16.0013 17.6716 16.0013 18.5C16.0013 19.3284 16.6729 20 17.5013 20C18.3297 20 19.0013 19.3284 19.0013 18.5C19.0013 17.6716 18.3297 17 17.5013 17ZM5.50131 10C4.67289 10 4.00131 10.6716 4.00131 11.5C4.00131 12.3284 4.67289 13 5.50131 13C6.32974 13 7.00131 12.3284 7.00131 11.5C7.00131 10.6716 6.32974 10 5.50131 10ZM17.5013 4C16.6729 4 16.0013 4.67157 16.0013 5.5C16.0013 6.32843 16.6729 7 17.5013 7C18.3297 7 19.0013 6.32843 19.0013 5.5C19.0013 4.67157 18.3297 4 17.5013 4Z" fill="currentColor"/>
</svg>
