<svg width="20" height="21" viewBox="0 0 20 21" xmlns="http://www.w3.org/2000/svg">
<path d="M18.3333 2.37695H1.66668C1.44566 2.37695 1.2337 2.46475 1.07742 2.62103C0.921141 2.77731 0.833344 2.98927 0.833344 3.21029V6.54362C0.834793 7.05941 0.995742 7.56212 1.29413 7.98284C1.59251 8.40356 2.01372 8.72169 2.50001 8.89362V18.2103C2.50001 18.4313 2.58781 18.6433 2.74409 18.7995C2.90037 18.9558 3.11233 19.0436 3.33334 19.0436H16.6667C16.8877 19.0436 17.0997 18.9558 17.2559 18.7995C17.4122 18.6433 17.5 18.4313 17.5 18.2103V8.89362C17.9863 8.72169 18.4075 8.40356 18.7059 7.98284C19.0043 7.56212 19.1652 7.05941 19.1667 6.54362V3.21029C19.1667 2.98927 19.0789 2.77731 18.9226 2.62103C18.7663 2.46475 18.5544 2.37695 18.3333 2.37695ZM12.5 4.04362H14.1667V6.54362C14.1667 6.76463 14.0789 6.9766 13.9226 7.13288C13.7663 7.28916 13.5544 7.37695 13.3333 7.37695C13.1123 7.37695 12.9004 7.28916 12.7441 7.13288C12.5878 6.9766 12.5 6.76463 12.5 6.54362V4.04362ZM9.16668 4.04362H10.8333V6.54362C10.8333 6.76463 10.7455 6.9766 10.5893 7.13288C10.433 7.28916 10.221 7.37695 10 7.37695C9.779 7.37695 9.56703 7.28916 9.41075 7.13288C9.25447 6.9766 9.16668 6.76463 9.16668 6.54362V4.04362ZM5.83334 4.04362H7.50001V6.54362C7.50001 6.76463 7.41221 6.9766 7.25593 7.13288C7.09965 7.28916 6.88769 7.37695 6.66668 7.37695C6.44566 7.37695 6.2337 7.28916 6.07742 7.13288C5.92114 6.9766 5.83334 6.76463 5.83334 6.54362V4.04362ZM3.33334 7.37695C3.11233 7.37695 2.90037 7.28916 2.74409 7.13288C2.58781 6.9766 2.50001 6.76463 2.50001 6.54362V4.04362H4.16668V6.54362C4.16668 6.76463 4.07888 6.9766 3.9226 7.13288C3.76632 7.28916 3.55436 7.37695 3.33334 7.37695ZM11.6667 17.377H8.33334V14.0436C8.33334 13.6016 8.50894 13.1777 8.8215 12.8651C9.13406 12.5525 9.55798 12.377 10 12.377C10.442 12.377 10.866 12.5525 11.1785 12.8651C11.4911 13.1777 11.6667 13.6016 11.6667 14.0436V17.377ZM15.8333 17.377H13.3333V14.0436C13.3333 13.1596 12.9822 12.3117 12.357 11.6866C11.7319 11.0615 10.8841 10.7103 10 10.7103C9.11595 10.7103 8.26811 11.0615 7.64299 11.6866C7.01787 12.3117 6.66668 13.1596 6.66668 14.0436V17.377H4.16668V8.89362C4.47298 8.77992 4.75554 8.61039 5.00001 8.39362C5.45836 8.80358 6.05173 9.03023 6.66668 9.03023C7.28162 9.03023 7.87499 8.80358 8.33334 8.39362C8.79169 8.80358 9.38507 9.03023 10 9.03023C10.615 9.03023 11.2083 8.80358 11.6667 8.39362C12.125 8.80358 12.7184 9.03023 13.3333 9.03023C13.9483 9.03023 14.5417 8.80358 15 8.39362C15.2445 8.61039 15.527 8.77992 15.8333 8.89362V17.377ZM17.5 6.54362C17.5 6.76463 17.4122 6.9766 17.2559 7.13288C17.0997 7.28916 16.8877 7.37695 16.6667 7.37695C16.4457 7.37695 16.2337 7.28916 16.0774 7.13288C15.9211 6.9766 15.8333 6.76463 15.8333 6.54362V4.04362H17.5V6.54362Z" fill="currentColor"/>
</svg>
