<svg width="20" height="20" viewBox="0 0 20 20" xmlns="http://www.w3.org/2000/svg">
<path d="M18.3334 8.05831C18.2808 7.90588 18.1851 7.772 18.0579 7.67289C17.9307 7.57379 17.7774 7.51372 17.6167 7.49998L12.8751 6.80831L10.7501 2.49998C10.6818 2.35908 10.5753 2.24026 10.4427 2.15712C10.31 2.07398 10.1566 2.02988 10.0001 2.02988C9.84354 2.02988 9.69015 2.07398 9.55751 2.15712C9.42486 2.24026 9.31832 2.35908 9.25008 2.49998L7.12508 6.79998L2.38342 7.49998C2.22918 7.5219 2.08419 7.58661 1.96487 7.68677C1.84556 7.78694 1.75672 7.91854 1.70842 8.06664C1.6642 8.21137 1.66024 8.36541 1.69694 8.51222C1.73364 8.65903 1.80963 8.79308 1.91675 8.89998L5.35842 12.2333L4.52508 16.9666C4.49533 17.1229 4.51091 17.2844 4.56998 17.432C4.62904 17.5797 4.72913 17.7074 4.85842 17.8C4.98443 17.8901 5.13306 17.9432 5.28762 17.9535C5.44218 17.9639 5.59656 17.9309 5.73342 17.8583L10.0001 15.6333L14.2501 17.8666C14.367 17.9326 14.4991 17.9671 14.6334 17.9666C14.8099 17.9673 14.9821 17.9118 15.1251 17.8083C15.2544 17.7157 15.3545 17.588 15.4135 17.4404C15.4726 17.2927 15.4882 17.1312 15.4584 16.975L14.6251 12.2416L18.0667 8.90831C18.1871 8.80638 18.276 8.67239 18.3232 8.52193C18.3704 8.37147 18.3739 8.2107 18.3334 8.05831Z" fill="currentColor"/>
</svg>
