<svg width="20" height="21" viewBox="0 0 20 21" xmlns="http://www.w3.org/2000/svg">
<path d="M18.0918 17.2635L15.0001 14.1969C16.2002 12.7005 16.7814 10.8013 16.6241 8.88962C16.4669 6.97796 15.5832 5.19919 14.1547 3.91908C12.7262 2.63896 10.8616 1.9548 8.94421 2.00726C7.0268 2.05973 5.20237 2.84484 3.84606 4.20116C2.48974 5.55747 1.70463 7.38191 1.65216 9.29931C1.5997 11.2167 2.28386 13.0813 3.56397 14.5098C4.84409 15.9383 6.62285 16.822 8.53452 16.9792C10.4462 17.1365 12.3454 16.5553 13.8418 15.3552L16.9084 18.4219C16.9859 18.5 17.0781 18.562 17.1796 18.6043C17.2812 18.6466 17.3901 18.6684 17.5001 18.6684C17.6101 18.6684 17.719 18.6466 17.8206 18.6043C17.9221 18.562 18.0143 18.5 18.0918 18.4219C18.242 18.2665 18.3259 18.0588 18.3259 17.8427C18.3259 17.6266 18.242 17.4189 18.0918 17.2635ZM9.16677 15.3552C8.01305 15.3552 6.88523 15.0131 5.92594 14.3721C4.96666 13.7311 4.21898 12.8201 3.77747 11.7542C3.33596 10.6883 3.22044 9.5154 3.44552 8.38385C3.6706 7.25229 4.22617 6.21289 5.04198 5.39708C5.85779 4.58128 6.89719 4.02571 8.02874 3.80063C9.1603 3.57554 10.3332 3.69106 11.3991 4.13258C12.465 4.57409 13.376 5.32176 14.017 6.28105C14.658 7.24033 15.0001 8.36815 15.0001 9.52187C15.0001 11.069 14.3855 12.5527 13.2916 13.6467C12.1976 14.7406 10.7139 15.3552 9.16677 15.3552Z" fill="currentColor"/>
</svg>
