<svg width="20" height="20" viewBox="0 0 20 20" xmlns="http://www.w3.org/2000/svg">
<path d="M9.40964 12.7417C9.3738 12.7813 9.34041 12.823 9.30964 12.8667C9.2781 12.9131 9.25288 12.9636 9.23464 13.0167C9.21061 13.0639 9.19376 13.1145 9.18464 13.1667C9.18055 13.2222 9.18055 13.2779 9.18464 13.3333C9.18182 13.4427 9.20466 13.5511 9.25131 13.65C9.28873 13.7534 9.34844 13.8473 9.42621 13.9251C9.50398 14.0029 9.59789 14.0626 9.70131 14.1C9.80106 14.1441 9.90891 14.1669 10.018 14.1669C10.127 14.1669 10.2349 14.1441 10.3346 14.1C10.4381 14.0626 10.532 14.0029 10.6097 13.9251C10.6875 13.8473 10.7472 13.7534 10.7846 13.65C10.8216 13.5487 10.8386 13.4411 10.8346 13.3333C10.8353 13.2237 10.8143 13.1149 10.7728 13.0134C10.7313 12.9119 10.6702 12.8195 10.593 12.7417C10.5155 12.6636 10.4233 12.6016 10.3218 12.5593C10.2202 12.517 10.1113 12.4952 10.0013 12.4952C9.8913 12.4952 9.78237 12.517 9.68083 12.5593C9.57928 12.6016 9.48711 12.6636 9.40964 12.7417ZM10.0013 1.66667C8.35313 1.66667 6.74196 2.15541 5.37155 3.07109C4.00114 3.98677 2.93304 5.28826 2.30231 6.81098C1.67158 8.33369 1.50655 10.0092 1.8281 11.6258C2.14964 13.2423 2.94331 14.7271 4.10875 15.8926C5.27419 17.058 6.75905 17.8517 8.37555 18.1732C9.99206 18.4948 11.6676 18.3297 13.1903 17.699C14.7131 17.0683 16.0145 16.0002 16.9302 14.6298C17.8459 13.2593 18.3346 11.6482 18.3346 10C18.3346 8.90566 18.1191 7.82202 17.7003 6.81098C17.2815 5.79993 16.6677 4.88127 15.8939 4.10745C15.12 3.33363 14.2014 2.7198 13.1903 2.30101C12.1793 1.88222 11.0957 1.66667 10.0013 1.66667ZM10.0013 16.6667C8.68276 16.6667 7.39383 16.2757 6.2975 15.5431C5.20118 14.8106 4.34669 13.7694 3.84211 12.5512C3.33752 11.3331 3.2055 9.99261 3.46274 8.6994C3.71997 7.4062 4.35491 6.21831 5.28726 5.28596C6.21961 4.35361 7.4075 3.71867 8.7007 3.46144C9.99391 3.2042 11.3344 3.33622 12.5525 3.84081C13.7707 4.34539 14.8119 5.19988 15.5444 6.2962C16.277 7.39253 16.668 8.68146 16.668 10C16.668 11.7681 15.9656 13.4638 14.7154 14.7141C13.4651 15.9643 11.7694 16.6667 10.0013 16.6667ZM10.0013 5.83334C9.56219 5.83306 9.13075 5.94844 8.7504 6.16787C8.37004 6.38731 8.0542 6.70305 7.83464 7.08334C7.77434 7.17819 7.73386 7.28425 7.71562 7.39515C7.69738 7.50605 7.70176 7.6195 7.7285 7.72866C7.75524 7.83782 7.80378 7.94045 7.87121 8.03037C7.93864 8.12028 8.02356 8.19563 8.12086 8.25188C8.21817 8.30812 8.32585 8.3441 8.43742 8.35765C8.54899 8.37121 8.66215 8.36205 8.77009 8.33074C8.87803 8.29942 8.97852 8.2466 9.06551 8.17544C9.15251 8.10428 9.22421 8.01626 9.27631 7.91667C9.34973 7.7895 9.45545 7.68399 9.58276 7.61082C9.71008 7.53765 9.85446 7.49942 10.0013 7.50001C10.2223 7.50001 10.4343 7.5878 10.5906 7.74408C10.7468 7.90036 10.8346 8.11233 10.8346 8.33334C10.8346 8.55435 10.7468 8.76631 10.5906 8.92259C10.4343 9.07887 10.2223 9.16667 10.0013 9.16667C9.78029 9.16667 9.56833 9.25447 9.41205 9.41075C9.25577 9.56703 9.16797 9.77899 9.16797 10V10.8333C9.16797 11.0544 9.25577 11.2663 9.41205 11.4226C9.56833 11.5789 9.78029 11.6667 10.0013 11.6667C10.2223 11.6667 10.4343 11.5789 10.5906 11.4226C10.7468 11.2663 10.8346 11.0544 10.8346 10.8333V10.6833C11.3858 10.4834 11.8491 10.096 12.1436 9.58906C12.4381 9.0821 12.5451 8.48775 12.4458 7.90991C12.3465 7.33208 12.0473 6.80752 11.6005 6.42793C11.1536 6.04835 10.5876 5.83789 10.0013 5.83334Z" fill="currentColor"/>
</svg>
