<svg width="24" height="25" viewBox="0 0 24 25" xmlns="http://www.w3.org/2000/svg">
<path d="M11.9943 2.71021C10.0165 2.71021 8.08312 3.29669 6.43863 4.39551C4.79413 5.49432 3.51241 7.05611 2.75553 8.88337C1.99866 10.7106 1.80062 12.7213 2.18648 14.6611C2.57233 16.6009 3.52474 18.3827 4.92326 19.7813C6.32179 21.1798 8.10362 22.1322 10.0434 22.5181C11.9832 22.9039 13.9939 22.7059 15.8212 21.949C17.6484 21.1921 19.2102 19.9104 20.309 18.2659C21.4078 16.6214 21.9943 14.688 21.9943 12.7102C21.9944 11.397 21.7359 10.0965 21.2333 8.88324C20.7308 7.66994 19.9942 6.5675 19.0656 5.63889C18.137 4.71029 17.0346 3.9737 15.8213 3.47119C14.608 2.96868 13.3076 2.7101 11.9943 2.71021ZM15.1738 17.8627C15.1364 17.956 15.0795 18.0403 15.0068 18.1098C14.9342 18.1793 14.8475 18.2325 14.7526 18.2658C14.6577 18.2991 14.5568 18.3117 14.4566 18.3028C14.3565 18.2939 14.2594 18.2637 14.1718 18.2142L11.4572 16.1048L9.71485 17.7122C9.67442 17.7421 9.62713 17.7613 9.57733 17.7681C9.52752 17.7749 9.47681 17.7691 9.42985 17.7511L9.76385 14.7627L9.77454 14.7712L9.78137 14.7122C9.78137 14.7122 14.6664 10.2647 14.8654 10.0752C15.0668 9.88616 15.0004 9.84517 15.0004 9.84517C15.0118 9.61464 14.6388 9.84517 14.6388 9.84517L8.16633 14.0092L5.47084 13.0912C5.47084 13.0912 5.05684 12.9427 5.01784 12.6162C4.97684 12.2922 5.48433 12.1162 5.48433 12.1162L16.2013 7.8587C16.2013 7.8587 17.0823 7.46618 17.0823 8.11621L15.1738 17.8627Z" fill="currentColor"/>
</svg>
