<svg width="26" height="26" viewBox="0 0 26 26" xmlns="http://www.w3.org/2000/svg">
<path d="M17.0193 13.7692C18.0814 12.9335 18.8566 11.7877 19.2371 10.4909C19.6176 9.1942 19.5845 7.81111 19.1424 6.53408C18.7002 5.25705 17.8711 4.14958 16.7702 3.36575C15.6693 2.58192 14.3515 2.16071 13.0001 2.16071C11.6487 2.16071 10.3309 2.58192 9.23004 3.36575C8.12918 4.14958 7.29999 5.25705 6.85785 6.53408C6.41571 7.81111 6.38259 9.1942 6.76311 10.4909C7.14363 11.7877 7.91886 12.9335 8.98095 13.7692C7.16104 14.4983 5.5731 15.7076 4.38642 17.2682C3.19974 18.8288 2.45881 20.6822 2.24262 22.6308C2.22697 22.7731 2.23949 22.917 2.27948 23.0545C2.31946 23.1919 2.38612 23.3201 2.47566 23.4318C2.65647 23.6573 2.91947 23.8017 3.20679 23.8333C3.4941 23.8649 3.78221 23.7811 4.00772 23.6003C4.23323 23.4195 4.37768 23.1565 4.40929 22.8692C4.64717 20.7515 5.65695 18.7956 7.24569 17.3754C8.83443 15.9551 10.8908 15.1699 13.0218 15.1699C15.1528 15.1699 17.2091 15.9551 18.7979 17.3754C20.3866 18.7956 21.3964 20.7515 21.6343 22.8692C21.6637 23.1354 21.7908 23.3812 21.9908 23.5593C22.1909 23.7373 22.4498 23.835 22.7176 23.8333H22.8368C23.1208 23.8007 23.3803 23.6571 23.5589 23.4338C23.7375 23.2106 23.8206 22.9259 23.7901 22.6417C23.5729 20.6875 22.828 18.8294 21.6352 17.2664C20.4424 15.7034 18.8468 14.4944 17.0193 13.7692ZM13.0001 13C12.1431 13 11.3053 12.7458 10.5926 12.2697C9.88004 11.7935 9.32462 11.1168 8.99664 10.325C8.66866 9.53314 8.58285 8.66185 8.75005 7.82127C8.91725 6.98068 9.32996 6.20856 9.93599 5.60253C10.542 4.9965 11.3141 4.58379 12.1547 4.41659C12.9953 4.24939 13.8666 4.3352 14.6584 4.66318C15.4502 4.99116 16.127 5.54658 16.6032 6.25919C17.0793 6.9718 17.3335 7.80961 17.3335 8.66666C17.3335 9.81593 16.8769 10.9181 16.0642 11.7308C15.2516 12.5434 14.1494 13 13.0001 13Z" fill="currentColor"/>
</svg>
