<svg width="101" height="32" viewBox="0 0 101 32" fill="none" xmlns="http://www.w3.org/2000/svg">
<g clip-path="url(#clip0)">
<path d="M13.4747 16.3277H9.26775C9.18418 16.3277 9.10403 16.361 9.04493 16.4204C8.98583 16.4798 8.95263 16.5603 8.95263 16.6443V30.193C8.95281 30.2345 8.94483 30.2757 8.92914 30.3141C8.91345 30.3525 8.89036 30.3874 8.86121 30.4168C8.83206 30.4462 8.79741 30.4696 8.75925 30.4855C8.72109 30.5014 8.68018 30.5096 8.63886 30.5096H1.8382C1.79688 30.5096 1.75597 30.5014 1.71781 30.4855C1.67965 30.4696 1.645 30.4462 1.61585 30.4168C1.5867 30.3874 1.56361 30.3525 1.54792 30.3141C1.53223 30.2757 1.52425 30.2345 1.52443 30.193V16.6443C1.52443 16.5608 1.4916 16.4807 1.43308 16.4214C1.37457 16.3621 1.29511 16.3284 1.212 16.3277H0.329933C0.288615 16.3279 0.247668 16.3198 0.209444 16.3041C0.171219 16.2883 0.13647 16.2651 0.107191 16.2358C0.0779116 16.2065 0.0546788 16.1717 0.0388261 16.1334C0.0229733 16.0951 0.0148129 16.0539 0.0148133 16.0124L0 10.7223C0 10.6383 0.0332 10.5578 0.0922965 10.4984C0.151393 10.439 0.231545 10.4057 0.31512 10.4057H1.30088C1.34254 10.4059 1.38382 10.3977 1.42231 10.3817C1.4608 10.3657 1.49573 10.3421 1.52507 10.3124C1.5544 10.2827 1.57755 10.2474 1.59316 10.2086C1.60877 10.1698 1.61654 10.1282 1.616 10.0864V8.17462C1.616 3.69896 3.98882 1.07959 8.56345 1.07959H13.4343C13.5179 1.07959 13.5981 1.11295 13.6572 1.17232C13.7163 1.23169 13.7495 1.31222 13.7495 1.39619V7.12065C13.7495 7.20462 13.7163 7.28514 13.6572 7.34452C13.5981 7.40389 13.5179 7.43725 13.4343 7.43725H10.4717C9.36875 7.43725 8.71158 8.11374 8.71158 9.25295V10.403H13.4774C13.5188 10.4033 13.5597 10.4119 13.5978 10.4281C13.6359 10.4443 13.6705 10.468 13.6995 10.4976C13.7285 10.5273 13.7514 10.5624 13.7669 10.6009C13.7824 10.6395 13.7902 10.6807 13.7899 10.7223V16.0138C13.7899 16.0978 13.7567 16.1783 13.6976 16.2377C13.6385 16.297 13.5583 16.3304 13.4747 16.3304" fill="black"/>
<path d="M16.8656 1.07959H23.5518C23.5932 1.07959 23.6341 1.08779 23.6722 1.10372C23.7104 1.11964 23.745 1.14298 23.7742 1.1724C23.8033 1.20182 23.8264 1.23673 23.8421 1.27513C23.8578 1.31354 23.8658 1.35468 23.8656 1.39619V7.29248C23.866 7.3341 23.8581 7.37539 23.8425 7.41395C23.8269 7.45251 23.8038 7.48758 23.7747 7.51714C23.7455 7.5467 23.7108 7.57016 23.6725 7.58618C23.6343 7.60219 23.5933 7.61043 23.5518 7.61043H16.8656C16.8243 7.61061 16.7834 7.60258 16.7451 7.58682C16.7069 7.57106 16.6722 7.54787 16.6429 7.51857C16.6136 7.48928 16.5904 7.45447 16.5745 7.41614C16.5587 7.3778 16.5505 7.3367 16.5505 7.29518V1.39619C16.5505 1.31222 16.5837 1.23169 16.6428 1.17232C16.7019 1.11295 16.7821 1.07959 16.8656 1.07959ZM16.8091 10.403H23.6084C23.65 10.403 23.6912 10.4113 23.7296 10.4273C23.768 10.4434 23.8029 10.467 23.8322 10.4967C23.8615 10.5264 23.8846 10.5616 23.9003 10.6003C23.916 10.639 23.9239 10.6805 23.9235 10.7223V30.1944C23.9235 30.2359 23.9154 30.277 23.8995 30.3153C23.8837 30.3537 23.8604 30.3885 23.8311 30.4178C23.8019 30.4471 23.7671 30.4703 23.7289 30.486C23.6907 30.5018 23.6497 30.5098 23.6084 30.5096H16.8091C16.7678 30.5098 16.7268 30.5018 16.6886 30.486C16.6504 30.4703 16.6156 30.4471 16.5863 30.4178C16.5571 30.3885 16.5338 30.3537 16.518 30.3153C16.5021 30.277 16.494 30.2359 16.494 30.1944V10.7223C16.494 10.6383 16.5272 10.5578 16.5863 10.4984C16.6453 10.439 16.7255 10.4057 16.8091 10.4057" fill="black"/>
<path d="M26.9427 1.07959H33.7421C33.7834 1.07959 33.8244 1.08778 33.8626 1.10369C33.9009 1.1196 33.9356 1.14292 33.9649 1.17232C33.9941 1.20172 34.0174 1.23662 34.0332 1.27503C34.049 1.31344 34.0572 1.35461 34.0572 1.39619V30.1944C34.0572 30.2359 34.049 30.277 34.0332 30.3153C34.0173 30.3537 33.9941 30.3885 33.9648 30.4178C33.9355 30.4471 33.9008 30.4703 33.8625 30.486C33.8243 30.5018 33.7834 30.5098 33.7421 30.5096H26.9427C26.9014 30.5098 26.8605 30.5018 26.8223 30.486C26.784 30.4703 26.7493 30.4471 26.72 30.4178C26.6907 30.3885 26.6675 30.3537 26.6516 30.3153C26.6358 30.277 26.6276 30.2359 26.6276 30.1944V1.39619C26.6276 1.31222 26.6608 1.23169 26.7199 1.17232C26.779 1.11295 26.8592 1.07959 26.9427 1.07959Z" fill="black"/>
<path d="M36.8192 20.9223V8.4925C36.819 8.45099 36.827 8.40985 36.8427 8.37145C36.8584 8.33304 36.8815 8.29813 36.9106 8.26871C36.9398 8.2393 36.9744 8.21596 37.0126 8.20003C37.0508 8.1841 37.0917 8.1759 37.133 8.1759H43.9337C44.0172 8.1759 44.0974 8.20926 44.1565 8.26863C44.2156 8.32801 44.2488 8.40853 44.2488 8.4925V20.5881C44.2488 22.945 45.4729 24.3318 47.4579 24.3318C49.4429 24.3318 50.6427 22.922 50.6427 20.5881V8.4925C50.6427 8.40853 50.6759 8.32801 50.735 8.26863C50.7941 8.20926 50.8743 8.1759 50.9579 8.1759H57.7572C57.7985 8.1759 57.8394 8.1841 57.8776 8.20003C57.9157 8.21596 57.9504 8.2393 57.9795 8.26871C58.0087 8.29813 58.0318 8.33304 58.0475 8.37145C58.0631 8.40985 58.0711 8.45099 58.0709 8.4925V20.9223C58.0709 27.1717 53.8276 31.2429 47.4579 31.2429C41.0881 31.2429 36.8192 27.1717 36.8192 20.9223Z" fill="black"/>
<path d="M67.8316 16.9081H75.6826C75.7331 16.9081 75.7828 16.8961 75.8277 16.873C75.8726 16.85 75.9114 16.8165 75.9408 16.7754C75.9703 16.7343 75.9896 16.6867 75.9972 16.6366C76.0047 16.5865 76.0003 16.5353 75.9843 16.4873C75.2652 14.5255 73.7704 13.4715 71.6749 13.4715C69.6482 13.4715 68.2006 14.539 67.5299 16.4927C67.5149 16.5405 67.5113 16.5912 67.5194 16.6407C67.5275 16.6902 67.5472 16.7371 67.5767 16.7775C67.6062 16.818 67.6447 16.8509 67.6893 16.8735C67.7338 16.8962 67.783 16.908 67.8329 16.9081H67.8316ZM83.4408 19.1324C83.4383 19.7205 83.3991 20.308 83.3236 20.8912C83.3138 20.9682 83.2764 21.039 83.2184 21.0903C83.1604 21.1416 83.0858 21.1699 83.0085 21.1699H67.6673C67.6192 21.1704 67.5718 21.1816 67.5286 21.2028C67.4854 21.2241 67.4475 21.2548 67.4176 21.2927C67.3878 21.3306 67.3668 21.3747 67.3561 21.4218C67.3455 21.469 67.3455 21.5179 67.3562 21.565C67.9245 23.8651 69.4516 25.0557 71.6736 25.0557C73.3421 25.0557 74.7453 24.3291 75.486 23.1128C75.5126 23.0676 75.5504 23.03 75.5957 23.0037C75.641 22.9774 75.6923 22.9632 75.7446 22.9626H82.5277C82.5781 22.963 82.6276 22.9753 82.6724 22.9985C82.7172 23.0216 82.7559 23.055 82.7855 23.0959C82.8151 23.1368 82.8348 23.1842 82.8429 23.2341C82.8509 23.284 82.8473 23.3352 82.8321 23.3834C81.204 28.2339 76.9337 31.2442 71.6736 31.2442C64.9403 31.2442 59.9576 26.1503 59.9576 19.3272C59.9576 12.4798 64.9026 7.44531 71.6736 7.44531C78.6251 7.44531 83.4394 12.5866 83.4394 19.1324H83.4408Z" fill="black"/>
<path d="M100.85 24.0884V30.1944C100.85 30.2359 100.842 30.277 100.826 30.3153C100.811 30.3537 100.787 30.3885 100.758 30.4178C100.729 30.447 100.694 30.4702 100.656 30.486C100.618 30.5018 100.577 30.5098 100.535 30.5096H95.7385C90.9687 30.5096 88.0693 27.4911 88.0693 22.527V14.4159C88.0682 14.333 88.0347 14.2539 87.976 14.1956C87.9172 14.1374 87.838 14.1047 87.7555 14.1047H84.8817C84.8193 14.1047 84.7583 14.0861 84.7064 14.0513C84.6545 14.0164 84.6141 13.9668 84.5903 13.9088C84.5665 13.8509 84.5604 13.7871 84.5727 13.7256C84.585 13.6641 84.6152 13.6077 84.6595 13.5635L94.9615 3.21187C95.0056 3.1673 95.0619 3.13691 95.1232 3.12457C95.1845 3.11223 95.2481 3.11851 95.3059 3.14259C95.3636 3.16667 95.4129 3.20748 95.4475 3.25981C95.4821 3.31214 95.5005 3.37364 95.5002 3.43646V7.86071C95.5002 7.90222 95.5083 7.94333 95.5242 7.98166C95.54 8.02 95.5633 8.05481 95.5926 8.0841C95.6218 8.11339 95.6566 8.13659 95.6948 8.15235C95.733 8.16811 95.774 8.17613 95.8153 8.17596H100.417C100.458 8.17596 100.499 8.18415 100.537 8.20008C100.575 8.21601 100.61 8.23935 100.639 8.26877C100.668 8.29818 100.691 8.3331 100.707 8.3715C100.723 8.4099 100.731 8.45104 100.731 8.49255V13.7841C100.731 13.826 100.724 13.8677 100.708 13.9067C100.693 13.9456 100.67 13.9811 100.64 14.011C100.611 14.0408 100.576 14.0645 100.537 14.0806C100.499 14.0967 100.457 14.1049 100.416 14.1047H95.814C95.7726 14.1045 95.7317 14.1126 95.6935 14.1283C95.6552 14.1441 95.6205 14.1673 95.5912 14.1966C95.5619 14.2259 95.5387 14.2607 95.5228 14.299C95.507 14.3373 95.4988 14.3784 95.4988 14.42V21.2119C95.4988 22.8111 96.4307 23.7758 97.9983 23.7758H100.535C100.619 23.7758 100.699 23.8092 100.758 23.8686C100.817 23.9279 100.85 24.0085 100.85 24.0924" fill="black"/>
<path d="M83.0584 0.710208C82.9748 0.710208 82.8946 0.743564 82.8355 0.802938C82.7764 0.862311 82.7432 0.942839 82.7432 1.02681V11.7275C82.7429 11.7904 82.7613 11.8519 82.7959 11.9042C82.8305 11.9565 82.8798 11.9973 82.9376 12.0214C82.9953 12.0455 83.0589 12.0518 83.1202 12.0394C83.1815 12.0271 83.2378 11.9967 83.2819 11.9521L93.9327 1.2514C93.9771 1.20712 94.0073 1.15058 94.0196 1.08897C94.0319 1.02736 94.0256 0.96348 94.0016 0.90545C93.9777 0.847419 93.9371 0.797866 93.885 0.763098C93.8329 0.72833 93.7717 0.709919 93.7091 0.710208H83.0584Z" fill="url(#paint0_linear)"/>
</g>
<defs>
<linearGradient id="paint0_linear" x1="82.8348" y1="6.37784" x2="89.0147" y2="6.37784" gradientUnits="userSpaceOnUse">
<stop stop-color="#E9635C"/>
<stop offset="1" stop-color="#BE1171"/>
</linearGradient>
<clipPath id="clip0">
<rect width="100.85" height="30.5327" fill="white" transform="translate(0 0.710205)"/>
</clipPath>
</defs>
</svg>
