<svg width="182" height="38" viewBox="0 0 182 38" fill="none" xmlns="http://www.w3.org/2000/svg">
<g clip-path="url(#clip0_2905_37683)">
<path d="M19.1289 0.700191C8.92635 0.700191 0.654297 8.99232 0.654297 19.2093C0.654297 29.4265 8.92635 37.7105 19.1289 37.7105C29.3212 37.7105 37.5913 29.4265 37.5913 19.2093C37.5913 8.99232 29.3212 0.700191 19.1289 0.700191ZM19.1289 36.5766C9.54057 36.5766 1.78898 28.7969 1.78898 19.2093C1.78898 9.60864 9.54057 1.83497 19.1289 1.83497C28.6997 1.83497 36.4575 9.60864 36.4575 19.2093C36.4575 28.7969 28.6997 36.5766 19.1289 36.5766Z" fill="#6EC72F"/>
<path d="M3.20825 19.0829C9.51403 21.0722 15.4586 27.2326 17.2585 35.1118C8.39682 33.9574 3.22974 26.6593 3.20825 19.0829Z" fill="#6EC72F"/>
<path d="M34.9613 19.0829C28.6578 21.0722 22.6386 27.2326 20.9121 35.1118C29.7729 33.9574 34.9429 26.6593 34.9613 19.0829Z" fill="#6EC72F"/>
<path d="M19.1064 35.1117C12.3863 24.7167 13.8372 10.4614 19.1126 2.78276C24.1428 10.4614 25.7162 24.7167 19.1064 35.1117Z" fill="#6EC72F"/>
<path d="M42.5942 2.86285H46.6573V8.42862H54.1353V2.86285H58.1995V17.3635H54.1353V11.1099H46.6573V17.3635H42.5942V2.86285Z" fill="#211D1D"/>
<path d="M61.4607 2.86285H75.2784V5.54461H65.5237V8.65142H74.4763V11.1295H65.5237V14.6831H75.4854V17.3635H61.4607V2.86285Z" fill="#211D1D"/>
<path d="M81.981 9.4245H86.4328C88.2694 9.4245 89.2264 8.81402 89.2264 7.35205C89.2264 5.95267 88.2694 5.34242 86.4328 5.34242H81.981V9.4245ZM77.9177 2.86314H87.8817C91.1937 2.86314 93.2906 4.67169 93.2906 6.86558C93.2906 8.5709 92.4366 9.85071 90.3663 10.5009V10.5397C92.358 10.9682 92.9272 12.4505 93.0568 13.9328C93.1333 14.8468 93.0834 16.5725 93.8333 17.3638H89.7705C89.305 16.4529 89.3306 15.0503 89.1234 13.891C88.8388 12.3688 88.0887 11.698 86.044 11.698H81.981V17.3638H77.9177V2.86314Z" fill="#211D1D"/>
<path d="M104.701 14.8867C106.28 14.8867 107.703 14.4808 107.703 12.979C107.703 11.4958 106.54 10.9056 104.779 10.9056H100.354V14.8867H104.701ZM104.468 8.73321C105.918 8.73321 106.953 8.22433 106.953 7.00664C106.953 5.64603 105.607 5.34242 104.158 5.34242H100.354V8.73321H104.468ZM96.291 2.86314H104.986C108.507 2.86314 110.886 3.75667 110.886 6.45969C110.886 7.90017 110.008 8.85512 108.376 9.48568C110.653 9.99083 111.767 11.3536 111.767 13.16C111.767 16.1053 108.583 17.3638 105.245 17.3638H96.291V2.86314Z" fill="#211D1D"/>
<path d="M123.126 11.7594L120.797 6.4382H120.747L118.34 11.7594H123.126ZM118.728 2.86314H122.894L129.804 17.3638H125.585L124.188 14.1353H117.279L115.83 17.3638H111.715L118.728 2.86314Z" fill="#211D1D"/>
<path d="M131.097 2.86285H135.162V14.6831H144.167V17.3635H131.097V2.86285Z" fill="#211D1D"/>
<path d="M145.616 2.86328H149.679V17.3641H145.616V2.86328Z" fill="#211D1D"/>
<path d="M152.939 2.86285H165.93V5.54461H157.001V8.8957H164.739V11.3738H157.001V17.3635H152.939V2.86285Z" fill="#211D1D"/>
<path d="M167.975 2.86285H181.794V5.54461H172.037V8.65142H180.991V11.1295H172.037V14.6831H182V17.3635H167.975V2.86285Z" fill="#211D1D"/>
<path d="M42.5938 20.7026H46.6302L54.343 30.431H54.394V20.7026H58.1979V35.2031H54.1348L46.4486 25.4953H46.3966V35.2031H42.5938V20.7026Z" fill="#6EC72F"/>
<path d="M77.2197 29.719C77.2197 33.6385 74.27 35.5472 69.3273 35.5472C64.3316 35.5472 61.4595 33.6817 61.4595 29.719V20.7022H65.5225V29.719C65.5225 31.3035 66.0409 32.8688 69.3273 32.8688C72.2253 32.8688 73.1567 31.8923 73.1567 29.719V20.7022H77.2197V29.719Z" fill="#6EC72F"/>
<path d="M84.7351 23.3836H79.1987V20.7023H94.3357V23.3836H88.7982V35.2028H84.7351V23.3836Z" fill="#6EC72F"/>
<path d="M100.422 27.2628H104.874C106.711 27.2628 107.669 26.6535 107.669 25.1903C107.669 23.7877 106.711 23.1795 104.874 23.1795H100.422V27.2628ZM96.3604 20.7024H106.323C109.637 20.7024 111.732 22.5099 111.732 24.7017C111.732 26.4102 110.878 27.689 108.807 28.3382V28.38C110.799 28.8065 111.37 30.2888 111.498 31.7692C111.576 32.684 111.525 34.412 112.274 35.203H108.212C107.746 34.2892 107.772 32.8874 107.564 31.7302C107.28 30.2082 106.53 29.5366 104.485 29.5366H100.422V35.203H96.3604V20.7024Z" fill="#6EC72F"/>
<path d="M115.561 20.7031H119.623V35.2036H115.561V20.7031Z" fill="#6EC72F"/>
<path d="M127.543 23.3836H122.005V20.7023H137.144V23.3836H131.605V35.2028H127.543V23.3836Z" fill="#6EC72F"/>
<path d="M139.525 20.7031H143.588V35.2036H139.525V20.7031Z" fill="#6EC72F"/>
<path d="M154.922 32.8685C158.572 32.8685 159.942 30.4313 159.942 28.0134C159.942 25.4751 158.572 23.0379 154.922 23.0379C151.272 23.0379 149.901 25.4751 149.901 28.0134C149.901 30.4313 151.272 32.8685 154.922 32.8685ZM154.922 20.3563C160.613 20.3563 164.004 23.7075 164.004 28.0134C164.004 32.199 160.613 35.5471 154.922 35.5471C149.229 35.5471 145.839 32.199 145.839 28.0134C145.839 23.7075 149.229 20.3563 154.922 20.3563Z" fill="#6EC72F"/>
<path d="M166.389 20.7026H170.428L178.137 30.431H178.191V20.7026H181.994V35.2031H177.932L170.246 25.4953H170.193V35.2031H166.389V20.7026Z" fill="#6EC72F"/>
</g>
<defs>
<clipPath id="clip0_2905_37683">
<rect width="181.346" height="37.0093" fill="white" transform="translate(0.654297 0.700928)"/>
</clipPath>
</defs>
</svg>
