<svg width="28" height="29" viewBox="0 0 28 29" fill="none" xmlns="http://www.w3.org/2000/svg">
<ellipse cx="14" cy="14.7101" rx="14" ry="13.9999" fill="url(#paint0_linear)"/>
<path fill-rule="evenodd" clip-rule="evenodd" d="M16.4666 8.60767H11.5334C9.52855 8.60767 7.89746 10.2387 7.89746 12.2436V17.1768C7.89746 19.1817 9.52855 20.8127 11.5334 20.8127H16.4666C18.4715 20.8127 20.1026 19.1817 20.1026 17.1768V12.2436C20.1026 10.2387 18.4715 8.60767 16.4666 8.60767ZM18.8751 17.1768C18.8751 18.5067 17.7969 19.5849 16.4669 19.5849H11.5337C10.2038 19.5849 9.1256 18.5067 9.1256 17.1768V12.2436C9.1256 10.9136 10.2038 9.83549 11.5337 9.83549H16.4669C17.7969 9.83549 18.8751 10.9136 18.8751 12.2436V17.1768ZM10.8436 14.7102C10.8436 12.9697 12.2596 11.5536 14.0002 11.5536C15.7408 11.5536 17.1569 12.9697 17.1569 14.7102C17.1569 16.4508 15.7408 17.8669 14.0002 17.8669C12.2596 17.8669 10.8436 16.4508 10.8436 14.7102ZM13.9999 16.6391C12.9346 16.6391 12.0711 15.7755 12.0711 14.7103C12.0711 13.645 12.9347 12.7814 13.9999 12.7814C15.0652 12.7814 15.9288 13.645 15.9288 14.7103C15.9288 15.7755 15.0652 16.6391 13.9999 16.6391ZM17.1631 12.3336C17.5808 12.3336 17.9195 11.995 17.9195 11.5772C17.9195 11.1595 17.5808 10.8208 17.1631 10.8208C16.7453 10.8208 16.4067 11.1595 16.4067 11.5772C16.4067 11.995 16.7453 12.3336 17.1631 12.3336Z" fill="white"/>
<defs>
<linearGradient id="paint0_linear" x1="0.093549" y1="0.663431" x2="1.32929e-06" y2="28.6633" gradientUnits="userSpaceOnUse">
<stop stop-color="#7024C4"/>
<stop offset="0.415461" stop-color="#C21975"/>
<stop offset="0.702206" stop-color="#C74C4D"/>
<stop offset="1" stop-color="#E09B3D"/>
</linearGradient>
</defs>
</svg>
