<svg width="28" height="29" viewBox="0 0 28 29" fill="none" xmlns="http://www.w3.org/2000/svg">
<ellipse cx="14" cy="14.7099" rx="14" ry="13.9999" fill="#007AB7"/>
<path fill-rule="evenodd" clip-rule="evenodd" d="M11.2219 12.6626H9.13725V19.3764H11.2219V12.6626ZM11.3923 10.536C11.3923 9.86851 10.8498 9.3252 10.1833 9.3252C9.51297 9.3252 8.97437 9.86851 8.97437 10.536C8.97437 11.2035 9.51297 11.7468 10.1833 11.7468C10.8498 11.7468 11.3923 11.2035 11.3923 10.536ZM14.5269 12.6627H12.5352V19.3764H14.616V16.0545C14.616 15.1813 14.7787 14.3314 15.8637 14.3314C16.9331 14.3314 16.9448 15.3326 16.9448 16.1127V19.3764H19.0255V15.6974C19.0255 13.889 18.6342 12.4997 16.5263 12.4997C15.5111 12.4997 14.833 13.0546 14.554 13.5824H14.5269V12.6627Z" fill="white"/>
</svg>
