<svg width="28" height="29" viewBox="0 0 28 29" fill="none" xmlns="http://www.w3.org/2000/svg">
<ellipse cx="14" cy="14.7099" rx="14" ry="13.9999" fill="#2AB858"/>
<path fill-rule="evenodd" clip-rule="evenodd" d="M7.89746 14.7081C7.89746 11.3442 10.634 8.60742 13.9977 8.60742C17.3639 8.60742 20.1026 11.3442 20.1026 14.7081C20.1026 18.0741 17.3639 20.8125 13.9977 20.8125C10.634 20.8125 7.89746 18.0741 7.89746 14.7081ZM13.0573 16.6252C12.3345 16.6252 11.6094 16.7344 10.9021 16.9497C10.7556 16.9976 10.6433 17.3937 10.6976 17.5722C10.7378 17.7028 10.8577 17.7908 10.9959 17.7907C11.0275 17.7907 11.0591 17.786 11.0898 17.7767C11.7207 17.58 12.3828 17.4802 13.0573 17.4802C14.1738 17.4802 15.2809 17.7645 16.2593 18.3022C16.3081 18.3286 16.357 18.3411 16.4126 18.3411C16.5247 18.3411 16.631 18.278 16.6834 18.1805C16.7249 18.1044 16.7352 17.9583 16.7093 17.8161C16.6835 17.6739 16.6259 17.5597 16.5625 17.5252C15.4967 16.9363 14.2849 16.6252 13.0573 16.6252ZM10.6358 14.702C11.4241 14.4878 12.2387 14.3791 13.0571 14.3791C14.5283 14.3791 15.9892 14.7351 17.2829 15.4091C17.3736 15.4551 17.4404 15.5331 17.471 15.6287C17.5021 15.7256 17.4927 15.8298 17.4443 15.9228C17.3288 16.1487 17.1939 16.3005 17.1084 16.3005C17.0478 16.3005 16.9893 16.286 16.9311 16.2569C15.7299 15.6314 14.4265 15.3142 13.0571 15.3142C12.2953 15.3142 11.548 15.4143 10.8366 15.6117C10.8035 15.6207 10.7695 15.6252 10.7357 15.6252C10.5645 15.6252 10.4137 15.5096 10.369 15.3446C10.3119 15.1299 10.4425 14.7546 10.6358 14.702ZM10.4581 13.247C10.4948 13.247 10.5317 13.2425 10.5679 13.2336C11.3885 13.032 12.2261 12.9298 13.0574 12.9297C14.675 12.9297 16.2219 13.2934 17.6553 14.0105C17.7163 14.0392 17.7852 14.0549 17.8523 14.0549C18.0264 14.0549 18.1843 13.8974 18.2574 13.7512C18.311 13.6426 18.3195 13.5196 18.281 13.4054C18.2426 13.2913 18.1618 13.1991 18.0535 13.1456C16.4931 12.3672 14.8123 11.9726 13.0573 11.9726C12.1507 11.9726 11.239 12.0837 10.3474 12.3027C10.1181 12.3604 9.95983 12.6544 10.0222 12.9074C10.072 13.1073 10.2512 13.247 10.4581 13.247Z" fill="white"/>
</svg>
