<svg width="28" height="29" viewBox="0 0 28 29" fill="none" xmlns="http://www.w3.org/2000/svg">
<ellipse cx="14" cy="14.7101" rx="14" ry="13.9999" fill="#45AEE4"/>
<path fill-rule="evenodd" clip-rule="evenodd" d="M10.5162 15.6547L7.66094 14.5308C7.37095 14.4162 7.36843 13.9844 7.6576 13.8667L19.3757 9.09912C19.6241 8.99779 19.8805 9.22734 19.8264 9.50248L17.7235 20.1708C17.6739 20.4227 17.3939 20.5369 17.1963 20.3854L14.3256 18.1873C14.1513 18.0538 13.9136 18.061 13.7468 18.2044L12.1552 19.5728C11.9705 19.7321 11.6921 19.6433 11.6214 19.4033L10.5162 15.6547ZM17.0235 11.4316L11.4432 15.0564C11.2293 15.1956 11.1286 15.468 11.1977 15.7231L11.8011 17.959C11.8439 18.1174 12.062 18.1012 12.0827 17.9375L12.2396 16.7113C12.2692 16.4805 12.3736 16.2678 12.5355 16.1089L17.1408 11.5939C17.2269 11.5097 17.1238 11.3666 17.0235 11.4316Z" fill="white"/>
<path d="M11.4432 15.0565L17.0235 11.4317C17.1238 11.3667 17.227 11.5098 17.1408 11.594L12.5355 16.109C12.3736 16.2679 12.2692 16.4806 12.2396 16.7114L12.0827 17.9376C12.062 18.1013 11.8439 18.1175 11.8011 17.9591L11.1977 15.7232C11.1286 15.4681 11.2293 15.1957 11.4432 15.0565Z" fill="#EAEAEA"/>
</svg>
