<svg width="28" height="29" viewBox="0 0 28 29" fill="none" xmlns="http://www.w3.org/2000/svg">
<ellipse cx="14" cy="14.7099" rx="14" ry="13.9999" fill="#2AA3EF"/>
<path fill-rule="evenodd" clip-rule="evenodd" d="M19.7436 11.148C19.3212 11.3353 18.8664 11.462 18.39 11.5193C18.8765 11.2273 19.2503 10.7659 19.426 10.2159C18.9705 10.4859 18.4663 10.6819 17.9291 10.7873C17.4993 10.3292 16.887 10.0432 16.2092 10.0432C14.9076 10.0432 13.852 11.0979 13.852 12.3994C13.852 12.5847 13.8736 12.7641 13.9135 12.9367C11.955 12.8387 10.2189 11.9 9.05655 10.4746C8.85314 10.8226 8.73758 11.2273 8.73758 11.6593C8.73758 12.4767 9.15387 13.1981 9.78573 13.6201C9.39918 13.6081 9.0356 13.5021 8.71865 13.3254C8.71865 13.3354 8.71865 13.3454 8.71865 13.3554C8.71865 14.4968 9.53028 15.4489 10.6089 15.6656C10.4108 15.7196 10.2034 15.7483 9.9878 15.7483C9.83642 15.7483 9.68842 15.7336 9.54448 15.7056C9.84453 16.6417 10.715 17.323 11.7462 17.3424C10.9393 17.9737 9.92292 18.3504 8.81867 18.3504C8.62877 18.3504 8.4409 18.3398 8.25641 18.3178C9.29916 18.9865 10.5379 19.3765 11.8692 19.3765C16.2038 19.3765 18.5745 15.7863 18.5745 12.6727C18.5745 12.57 18.5718 12.4694 18.5677 12.368C19.0279 12.036 19.428 11.6207 19.7436 11.1486V11.148Z" fill="white"/>
</svg>
