<svg width="28" height="29" viewBox="0 0 28 29" fill="none" xmlns="http://www.w3.org/2000/svg">
<ellipse cx="14" cy="14.7101" rx="14" ry="13.9999" fill="#F52929"/>
<path fill-rule="evenodd" clip-rule="evenodd" d="M19.8154 10.4384C20.1941 10.8724 20.3278 11.8547 20.3278 11.8547C20.3278 11.8547 20.4615 13.0198 20.4615 14.1848V15.2584C20.4615 16.4006 20.3278 17.5657 20.3278 17.5657C20.3278 17.5657 20.1942 18.5479 19.8154 18.982C19.3492 19.5033 18.8226 19.5496 18.5613 19.5725C18.5478 19.5737 18.5351 19.5748 18.5231 19.5759C16.7183 19.7358 14 19.7358 14 19.7358C14 19.7358 10.6355 19.713 9.61061 19.5988C9.55615 19.5859 9.48908 19.5762 9.41282 19.5653C9.08348 19.5178 8.58263 19.4457 8.18461 18.982C7.80585 18.548 7.67215 17.5657 7.67215 17.5657C7.67215 17.5657 7.53845 16.4235 7.53845 15.2585V14.1848C7.53845 13.0198 7.67215 11.8547 7.67215 11.8547C7.67215 11.8547 7.78354 10.8725 8.18461 10.4384C8.65078 9.91703 9.1774 9.87082 9.43868 9.84789C9.45214 9.84671 9.4649 9.84559 9.47691 9.84447C11.2817 9.70742 14 9.68457 14 9.68457C14 9.68457 16.7183 9.70742 18.5231 9.84447C18.5417 9.8462 18.5621 9.84781 18.5841 9.84954C18.8524 9.87061 19.3624 9.91068 19.8154 10.4384ZM12.4403 17.36V12.4029L16.6737 14.9386L12.4403 17.36Z" fill="white"/>
</svg>
