<svg width="297" height="41" viewBox="0 0 297 41" fill="none" xmlns="http://www.w3.org/2000/svg">
<g clip-path="url(#clip0)">
<path d="M134.129 3.70019C123.926 3.70019 115.654 11.9923 115.654 22.2093C115.654 32.4265 123.926 40.7105 134.129 40.7105C144.321 40.7105 152.591 32.4265 152.591 22.2093C152.591 11.9923 144.321 3.70019 134.129 3.70019ZM134.129 39.5766C124.54 39.5766 116.789 31.7969 116.789 22.2093C116.789 12.6086 124.54 4.83497 134.129 4.83497C143.7 4.83497 151.457 12.6086 151.457 22.2093C151.457 31.7969 143.7 39.5766 134.129 39.5766Z" fill="#6EC72F"/>
<path d="M118.208 22.0829C124.514 24.0722 130.458 30.2326 132.258 38.1118C123.397 36.9574 118.23 29.6593 118.208 22.0829Z" fill="#6EC72F"/>
<path d="M149.961 22.0829C143.658 24.0722 137.638 30.2326 135.912 38.1118C144.773 36.9574 149.943 29.6593 149.961 22.0829Z" fill="#6EC72F"/>
<path d="M134.106 38.1117C127.386 27.7167 128.837 13.4614 134.112 5.78276C139.143 13.4614 140.716 27.7167 134.106 38.1117Z" fill="#6EC72F"/>
<path d="M157.594 5.86285H161.657V11.4286H169.135V5.86285H173.2V20.3635H169.135V14.1099H161.657V20.3635H157.594V5.86285Z" fill="#211D1D"/>
<path d="M176.461 5.86285H190.278V8.54461H180.524V11.6514H189.476V14.1295H180.524V17.6831H190.485V20.3635H176.461V5.86285Z" fill="#211D1D"/>
<path d="M196.981 12.4245H201.433C203.269 12.4245 204.226 11.814 204.226 10.352C204.226 8.95267 203.269 8.34242 201.433 8.34242H196.981V12.4245ZM192.918 5.86314H202.882C206.194 5.86314 208.291 7.67169 208.291 9.86558C208.291 11.5709 207.436 12.8507 205.366 13.5009V13.5397C207.358 13.9682 207.927 15.4505 208.057 16.9328C208.133 17.8468 208.083 19.5725 208.833 20.3638H204.77C204.305 19.4529 204.331 18.0503 204.123 16.891C203.839 15.3688 203.089 14.698 201.044 14.698H196.981V20.3638H192.918V5.86314Z" fill="#211D1D"/>
<path d="M219.701 17.8867C221.28 17.8867 222.703 17.4808 222.703 15.979C222.703 14.4958 221.539 13.9056 219.779 13.9056H215.354V17.8867H219.701ZM219.468 11.7332C220.918 11.7332 221.952 11.2243 221.952 10.0066C221.952 8.64603 220.607 8.34242 219.158 8.34242H215.354V11.7332H219.468ZM211.291 5.86314H219.985C223.507 5.86314 225.886 6.75667 225.886 9.45969C225.886 10.9002 225.008 11.8551 223.376 12.4857C225.653 12.9908 226.767 14.3536 226.767 16.16C226.767 19.1053 223.583 20.3638 220.244 20.3638H211.291V5.86314Z" fill="#211D1D"/>
<path d="M238.126 14.7594L235.797 9.4382H235.747L233.34 14.7594H238.126ZM233.727 5.86314H237.894L244.804 20.3638H240.585L239.187 17.1353H232.279L230.829 20.3638H226.714L233.727 5.86314Z" fill="#211D1D"/>
<path d="M246.097 5.86285H250.162V17.6831H259.166V20.3635H246.097V5.86285Z" fill="#211D1D"/>
<path d="M260.616 5.86328H264.679V20.3641H260.616V5.86328Z" fill="#211D1D"/>
<path d="M267.939 5.86285H280.93V8.54461H272.001V11.8957H279.739V14.3738H272.001V20.3635H267.939V5.86285Z" fill="#211D1D"/>
<path d="M282.975 5.86285H296.794V8.54461H287.037V11.6514H295.991V14.1295H287.037V17.6831H297V20.3635H282.975V5.86285Z" fill="#211D1D"/>
<path d="M157.594 23.7026H161.63L169.343 33.431H169.394V23.7026H173.198V38.2031H169.135L161.449 28.4953H161.397V38.2031H157.594V23.7026Z" fill="#6EC72F"/>
<path d="M192.22 32.719C192.22 36.6385 189.27 38.5472 184.327 38.5472C179.332 38.5472 176.459 36.6817 176.459 32.719V23.7022H180.523V32.719C180.523 34.3035 181.041 35.8688 184.327 35.8688C187.225 35.8688 188.157 34.8923 188.157 32.719V23.7022H192.22V32.719Z" fill="#6EC72F"/>
<path d="M199.735 26.3836H194.199V23.7023H209.336V26.3836H203.798V38.2028H199.735V26.3836Z" fill="#6EC72F"/>
<path d="M215.422 30.2628H219.874C221.71 30.2628 222.669 29.6535 222.669 28.1903C222.669 26.7877 221.71 26.1795 219.874 26.1795H215.422V30.2628ZM211.36 23.7024H221.323C224.637 23.7024 226.732 25.5099 226.732 27.7017C226.732 29.4102 225.878 30.689 223.807 31.3382V31.38C225.799 31.8065 226.37 33.2888 226.498 34.7692C226.576 35.684 226.525 37.412 227.274 38.203H223.212C222.745 37.2892 222.772 35.8874 222.564 34.7302C222.28 33.2082 221.53 32.5366 219.485 32.5366H215.422V38.203H211.36V23.7024Z" fill="#6EC72F"/>
<path d="M230.561 23.7031H234.623V38.2036H230.561V23.7031Z" fill="#6EC72F"/>
<path d="M242.543 26.3836H237.005V23.7023H252.144V26.3836H246.605V38.2028H242.543V26.3836Z" fill="#6EC72F"/>
<path d="M254.525 23.7031H258.588V38.2036H254.525V23.7031Z" fill="#6EC72F"/>
<path d="M269.922 35.8685C273.572 35.8685 274.942 33.4313 274.942 31.0134C274.942 28.4751 273.572 26.0379 269.922 26.0379C266.272 26.0379 264.901 28.4751 264.901 31.0134C264.901 33.4313 266.272 35.8685 269.922 35.8685ZM269.922 23.3563C275.613 23.3563 279.004 26.7075 279.004 31.0134C279.004 35.199 275.613 38.5471 269.922 38.5471C264.229 38.5471 260.839 35.199 260.839 31.0134C260.839 26.7075 264.229 23.3563 269.922 23.3563Z" fill="#6EC72F"/>
<path d="M281.389 23.7026H285.428L293.137 33.431H293.191V23.7026H296.994V38.2031H292.932L285.246 28.4953H285.193V38.2031H281.389V23.7026Z" fill="#6EC72F"/>
</g>
<g clip-path="url(#clip1)">
<path d="M13.4747 23.0193H9.26775C9.18418 23.0193 9.10403 23.0527 9.04493 23.1121C8.98583 23.1714 8.95263 23.252 8.95263 23.3359V36.8847C8.95281 36.9262 8.94483 36.9673 8.92914 37.0057C8.91345 37.0441 8.89036 37.079 8.86121 37.1085C8.83206 37.1379 8.79741 37.1612 8.75925 37.1771C8.72109 37.1931 8.68018 37.2013 8.63886 37.2013H1.8382C1.79688 37.2013 1.75597 37.1931 1.71781 37.1771C1.67965 37.1612 1.645 37.1379 1.61585 37.1085C1.5867 37.079 1.56361 37.0441 1.54792 37.0057C1.53223 36.9673 1.52425 36.9262 1.52443 36.8847V23.3359C1.52443 23.2524 1.4916 23.1723 1.43308 23.113C1.37457 23.0537 1.29511 23.02 1.212 23.0193H0.329933C0.288615 23.0195 0.247668 23.0115 0.209444 22.9957C0.171219 22.98 0.13647 22.9568 0.107191 22.9275C0.0779116 22.8982 0.0546788 22.8634 0.0388261 22.825C0.0229733 22.7867 0.0148129 22.7456 0.0148133 22.7041L0 17.4139C0 17.33 0.0332 17.2494 0.0922965 17.1901C0.151393 17.1307 0.231545 17.0973 0.31512 17.0973H1.30088C1.34254 17.0975 1.38382 17.0894 1.42231 17.0733C1.4608 17.0573 1.49573 17.0338 1.52507 17.0041C1.5544 16.9743 1.57755 16.939 1.59316 16.9002C1.60877 16.8614 1.61654 16.8199 1.616 16.778V14.8663C1.616 10.3906 3.98882 7.77124 8.56345 7.77124H13.4343C13.5179 7.77124 13.5981 7.8046 13.6572 7.86397C13.7163 7.92334 13.7495 8.00387 13.7495 8.08784V13.8123C13.7495 13.8963 13.7163 13.9768 13.6572 14.0362C13.5981 14.0955 13.5179 14.1289 13.4343 14.1289H10.4717C9.36875 14.1289 8.71158 14.8054 8.71158 15.9446V17.0946H13.4774C13.5188 17.095 13.5597 17.1035 13.5978 17.1198C13.6359 17.136 13.6705 17.1596 13.6995 17.1893C13.7285 17.2189 13.7514 17.254 13.7669 17.2926C13.7824 17.3311 13.7902 17.3724 13.7899 17.4139V22.7054C13.7899 22.7894 13.7567 22.8699 13.6976 22.9293C13.6385 22.9887 13.5583 23.022 13.4747 23.022" fill="black"/>
<path d="M16.8656 7.77124H23.5518C23.5932 7.77124 23.6341 7.77944 23.6722 7.79537C23.7104 7.81129 23.745 7.83463 23.7742 7.86405C23.8033 7.89347 23.8264 7.92838 23.8421 7.96678C23.8578 8.00519 23.8658 8.04633 23.8656 8.08784V13.9841C23.866 14.0258 23.8581 14.067 23.8425 14.1056C23.8269 14.1442 23.8038 14.1792 23.7747 14.2088C23.7455 14.2384 23.7108 14.2618 23.6725 14.2778C23.6343 14.2938 23.5933 14.3021 23.5518 14.3021H16.8656C16.8243 14.3023 16.7834 14.2942 16.7451 14.2785C16.7069 14.2627 16.6722 14.2395 16.6429 14.2102C16.6136 14.1809 16.5904 14.1461 16.5745 14.1078C16.5587 14.0695 16.5505 14.0283 16.5505 13.9868V8.08784C16.5505 8.00387 16.5837 7.92334 16.6428 7.86397C16.7019 7.8046 16.7821 7.77124 16.8656 7.77124ZM16.8091 17.0946H23.6084C23.65 17.0946 23.6912 17.1029 23.7296 17.119C23.768 17.1351 23.8029 17.1586 23.8322 17.1883C23.8615 17.218 23.8846 17.2532 23.9003 17.2919C23.916 17.3307 23.9239 17.3721 23.9235 17.4139V36.886C23.9235 36.9275 23.9154 36.9686 23.8995 37.007C23.8837 37.0453 23.8604 37.0801 23.8311 37.1094C23.8019 37.1387 23.7671 37.1619 23.7289 37.1777C23.6907 37.1934 23.6497 37.2015 23.6084 37.2013H16.8091C16.7678 37.2015 16.7268 37.1934 16.6886 37.1777C16.6504 37.1619 16.6156 37.1387 16.5863 37.1094C16.5571 37.0801 16.5338 37.0453 16.518 37.007C16.5021 36.9686 16.494 36.9275 16.494 36.886V17.4139C16.494 17.33 16.5272 17.2494 16.5863 17.1901C16.6453 17.1307 16.7255 17.0973 16.8091 17.0973" fill="black"/>
<path d="M26.9427 7.77124H33.7421C33.7834 7.77124 33.8244 7.77943 33.8626 7.79534C33.9009 7.81125 33.9356 7.83457 33.9649 7.86397C33.9941 7.89337 34.0174 7.92827 34.0332 7.96668C34.049 8.00509 34.0572 8.04626 34.0572 8.08784V36.886C34.0572 36.9275 34.049 36.9686 34.0332 37.007C34.0173 37.0453 33.9941 37.0801 33.9648 37.1094C33.9355 37.1387 33.9008 37.1619 33.8625 37.1777C33.8243 37.1934 33.7834 37.2015 33.7421 37.2013H26.9427C26.9014 37.2015 26.8605 37.1934 26.8223 37.1777C26.784 37.1619 26.7493 37.1387 26.72 37.1094C26.6907 37.0801 26.6675 37.0453 26.6516 37.007C26.6358 36.9686 26.6276 36.9275 26.6276 36.886V8.08784C26.6276 8.00387 26.6608 7.92334 26.7199 7.86397C26.779 7.8046 26.8592 7.77124 26.9427 7.77124Z" fill="black"/>
<path d="M36.8192 27.614V15.1842C36.819 15.1426 36.827 15.1015 36.8427 15.0631C36.8584 15.0247 36.8815 14.9898 36.9106 14.9604C36.9398 14.9309 36.9744 14.9076 37.0126 14.8917C37.0508 14.8758 37.0917 14.8676 37.133 14.8676H43.9337C44.0172 14.8676 44.0974 14.9009 44.1565 14.9603C44.2156 15.0197 44.2488 15.1002 44.2488 15.1842V27.2798C44.2488 29.6367 45.4729 31.0235 47.4579 31.0235C49.4429 31.0235 50.6427 29.6137 50.6427 27.2798V15.1842C50.6427 15.1002 50.6759 15.0197 50.735 14.9603C50.7941 14.9009 50.8743 14.8676 50.9579 14.8676H57.7572C57.7985 14.8676 57.8394 14.8758 57.8776 14.8917C57.9157 14.9076 57.9504 14.9309 57.9795 14.9604C58.0087 14.9898 58.0318 15.0247 58.0475 15.0631C58.0631 15.1015 58.0711 15.1426 58.0709 15.1842V27.614C58.0709 33.8634 53.8276 37.9345 47.4579 37.9345C41.0881 37.9345 36.8192 33.8634 36.8192 27.614Z" fill="black"/>
<path d="M67.8316 23.5997H75.6826C75.7331 23.5998 75.7828 23.5877 75.8277 23.5647C75.8726 23.5416 75.9114 23.5081 75.9408 23.467C75.9703 23.4259 75.9896 23.3783 75.9972 23.3282C76.0047 23.2781 76.0003 23.227 75.9843 23.1789C75.2652 21.2171 73.7704 20.1631 71.6749 20.1631C69.6482 20.1631 68.2006 21.2306 67.5299 23.1843C67.5149 23.2322 67.5113 23.2829 67.5194 23.3324C67.5275 23.3818 67.5472 23.4287 67.5767 23.4692C67.6062 23.5096 67.6447 23.5425 67.6893 23.5652C67.7338 23.5879 67.783 23.5997 67.8329 23.5997H67.8316ZM83.4408 25.824C83.4383 26.4122 83.3991 26.9996 83.3236 27.5829C83.3138 27.6599 83.2764 27.7307 83.2184 27.782C83.1604 27.8333 83.0858 27.8616 83.0085 27.8616H67.6673C67.6192 27.862 67.5718 27.8732 67.5286 27.8945C67.4854 27.9157 67.4475 27.9464 67.4176 27.9843C67.3878 28.0222 67.3668 28.0664 67.3561 28.1135C67.3455 28.1606 67.3455 28.2095 67.3562 28.2567C67.9245 30.5567 69.4516 31.7474 71.6736 31.7474C73.3421 31.7474 74.7453 31.0208 75.486 29.8045C75.5126 29.7592 75.5504 29.7216 75.5957 29.6953C75.641 29.669 75.6923 29.6549 75.7446 29.6543H82.5277C82.5781 29.6547 82.6276 29.667 82.6724 29.6901C82.7172 29.7132 82.7559 29.7466 82.7855 29.7876C82.8151 29.8285 82.8348 29.8758 82.8429 29.9257C82.8509 29.9757 82.8473 30.0268 82.8321 30.0751C81.204 34.9255 76.9337 37.9359 71.6736 37.9359C64.9403 37.9359 59.9576 32.8419 59.9576 26.0188C59.9576 19.1714 64.9026 14.137 71.6736 14.137C78.6251 14.137 83.4394 19.2783 83.4394 25.824H83.4408Z" fill="black"/>
<path d="M100.85 30.78V36.886C100.85 36.9275 100.842 36.9686 100.826 37.007C100.811 37.0453 100.787 37.0801 100.758 37.1094C100.729 37.1387 100.694 37.1619 100.656 37.1777C100.618 37.1934 100.577 37.2014 100.535 37.2013H95.7385C90.9687 37.2013 88.0693 34.1828 88.0693 29.2187V21.1076C88.0682 21.0247 88.0347 20.9455 87.976 20.8873C87.9172 20.829 87.838 20.7964 87.7555 20.7964H84.8817C84.8193 20.7964 84.7583 20.7778 84.7064 20.7429C84.6545 20.708 84.6141 20.6585 84.5903 20.6005C84.5665 20.5425 84.5604 20.4788 84.5727 20.4173C84.585 20.3558 84.6152 20.2994 84.6595 20.2552L94.9615 9.90352C95.0056 9.85895 95.0619 9.82856 95.1232 9.81622C95.1845 9.80389 95.2481 9.81016 95.3059 9.83424C95.3636 9.85832 95.4129 9.89913 95.4475 9.95146C95.4821 10.0038 95.5005 10.0653 95.5002 10.1281V14.5524C95.5002 14.5939 95.5083 14.635 95.5242 14.6733C95.54 14.7116 95.5633 14.7465 95.5926 14.7758C95.6218 14.805 95.6566 14.8282 95.6948 14.844C95.733 14.8598 95.774 14.8678 95.8153 14.8676H100.417C100.458 14.8676 100.499 14.8758 100.537 14.8917C100.575 14.9077 100.61 14.931 100.639 14.9604C100.668 14.9898 100.691 15.0247 100.707 15.0631C100.723 15.1016 100.731 15.1427 100.731 15.1842V20.4757C100.731 20.5177 100.724 20.5594 100.708 20.5983C100.693 20.6373 100.67 20.6727 100.64 20.7026C100.611 20.7325 100.576 20.7562 100.537 20.7723C100.499 20.7884 100.457 20.7966 100.416 20.7964H95.814C95.7726 20.7962 95.7317 20.8042 95.6935 20.82C95.6552 20.8357 95.6205 20.8589 95.5912 20.8882C95.5619 20.9175 95.5387 20.9523 95.5228 20.9907C95.507 21.029 95.4988 21.0701 95.4988 21.1116V27.9036C95.4988 29.5028 96.4307 30.4675 97.9983 30.4675H100.535C100.619 30.4675 100.699 30.5008 100.758 30.5602C100.817 30.6196 100.85 30.7001 100.85 30.7841" fill="black"/>
<path d="M83.0584 7.40186C82.9748 7.40186 82.8946 7.43521 82.8355 7.49459C82.7764 7.55396 82.7432 7.63449 82.7432 7.71846V18.4192C82.7429 18.482 82.7613 18.5435 82.7959 18.5958C82.8305 18.6482 82.8798 18.689 82.9376 18.7131C82.9953 18.7371 83.0589 18.7434 83.1202 18.7311C83.1815 18.7187 83.2378 18.6883 83.2819 18.6438L93.9327 7.94305C93.9771 7.89877 94.0073 7.84223 94.0196 7.78062C94.0319 7.71901 94.0256 7.65513 94.0016 7.5971C93.9777 7.53907 93.9371 7.48952 93.885 7.45475C93.8329 7.41998 93.7717 7.40157 93.7091 7.40186H83.0584Z" fill="url(#paint0_linear)"/>
</g>
<path d="M109.178 0V40" stroke="black"/>
<defs>
<linearGradient id="paint0_linear" x1="82.8348" y1="13.0695" x2="89.0147" y2="13.0695" gradientUnits="userSpaceOnUse">
<stop stop-color="#E9635C"/>
<stop offset="1" stop-color="#BE1171"/>
</linearGradient>
<clipPath id="clip0">
<rect width="181.346" height="37.0093" fill="white" transform="translate(115.654 3.70093)"/>
</clipPath>
<clipPath id="clip1">
<rect width="100.85" height="30.5327" fill="white" transform="translate(0 7.40186)"/>
</clipPath>
</defs>
</svg>
