<?xml version="1.0" encoding="utf-8"?><svg viewBox="0 0 63 63" xmlns="http://www.w3.org/2000/svg" xmlns:xlink="http://www.w3.org/1999/xlink"><style>:root>svg{display:none}:root>svg:target{display:block}</style><svg fill="none" viewBox="0 0 24 24" id="ic_add" xmlns="http://www.w3.org/2000/svg"><path d="M19 11h-6V5a1 1 0 0 0-2 0v6H5a1 1 0 0 0 0 2h6v6a1 1 0 0 0 2 0v-6h6a1 1 0 0 0 0-2z" fill="currentColor"/></svg><svg fill="none" viewBox="0 0 16 17" id="ic_arrow_down" xmlns="http://www.w3.org/2000/svg"><path d="M8.567 10.722l3.733-3.8a.644.644 0 0 0 0-.933.644.644 0 0 0-.933 0L8.034 9.255 4.7 5.99a.644.644 0 0 0-.933 0 .605.605 0 0 0-.2.466c0 .2.067.334.2.467l3.733 3.8c.334.267.734.267 1.067 0-.067 0-.067 0 0 0z" fill="currentColor"/></svg><svg fill="none" viewBox="0 0 20 21" id="ic_arrow_left" xmlns="http://www.w3.org/2000/svg"><path d="M7.083 11.377l4.75 4.667a.805.805 0 0 0 1.167 0 .806.806 0 0 0 0-1.167L8.917 10.71 13 6.544a.806.806 0 0 0 0-1.167.756.756 0 0 0-.583-.25.757.757 0 0 0-.584.25l-4.75 4.667c-.333.416-.333.916 0 1.333 0-.083 0-.083 0 0z" fill="currentColor"/></svg><svg fill="none" viewBox="0 0 20 21" id="ic_arrow_right" xmlns="http://www.w3.org/2000/svg"><path d="M12.95 10.119L8.233 5.41A.833.833 0 1 0 7.05 6.585l4.125 4.167-4.125 4.125a.834.834 0 0 0 .27 1.36.833.833 0 0 0 .913-.184l4.717-4.71a.834.834 0 0 0 0-1.224z" fill="currentColor"/></svg><svg fill="none" viewBox="0 0 26 27" id="ic_cart" xmlns="http://www.w3.org/2000/svg"><path d="M15.167 19.855a1.084 1.084 0 0 0 1.083-1.083v-2.167a1.083 1.083 0 0 0-2.167 0v2.167a1.083 1.083 0 0 0 1.084 1.083zm-4.334 0a1.083 1.083 0 0 0 1.084-1.083v-2.167a1.083 1.083 0 1 0-2.167 0v2.167a1.083 1.083 0 0 0 1.083 1.083zm9.75-13h-1.495l-1.874-3.737a1.082 1.082 0 0 0-1.834-.275 1.083 1.083 0 0 0-.094 1.25l1.376 2.762H9.338l1.376-2.762a1.083 1.083 0 0 0-1.928-.975L6.912 6.855H5.417a3.25 3.25 0 0 0-.997 6.327l.802 8.082a3.25 3.25 0 0 0 3.25 2.925h9.078a3.25 3.25 0 0 0 3.25-2.925l.802-8.082a3.25 3.25 0 0 0-1.019-6.327zm-1.96 14.192a1.084 1.084 0 0 1-1.084.975H8.461a1.084 1.084 0 0 1-1.084-.975l-.769-7.692h12.784l-.77 7.692zm1.96-9.859H5.417a1.083 1.083 0 1 1 0-2.166h15.166a1.083 1.083 0 1 1 0 2.166z" fill="currentColor"/></svg><svg fill="none" viewBox="0 0 16 16" id="ic_categories_type1" xmlns="http://www.w3.org/2000/svg"><path d="M1.334 11.386v-8a2 2 0 0 1 2-2H10a2 2 0 0 1 2 2v.667a2.667 2.667 0 0 1 1.453 4.867A2.573 2.573 0 0 1 12 9.386v2a.666.666 0 0 1-.666.667h-2a2.667 2.667 0 0 1-4.867 1.453 2.574 2.574 0 0 1-.466-1.453H2a.667.667 0 0 1-.667-.667zm9.333-8a.667.667 0 0 0-.666-.666H3.334a.667.667 0 0 0-.667.666v7.334h2.12a.667.667 0 0 1 .634.886 1.18 1.18 0 0 0 .153 1.16 1.333 1.333 0 0 0 .913.62 1.334 1.334 0 0 0 1.06-.32 1.26 1.26 0 0 0 .367-1.446.667.667 0 0 1 .633-.887h2.12V8.6a.667.667 0 0 1 .887-.667 1.18 1.18 0 0 0 1.16-.153 1.292 1.292 0 0 0 .287-2 1.333 1.333 0 0 0-1-.394 1.26 1.26 0 0 0-.447.087.667.667 0 0 1-.887-.633V3.386z" fill="currentColor"/></svg><svg fill="none" viewBox="0 0 16 16" id="ic_categories_type2" xmlns="http://www.w3.org/2000/svg"><path fill-rule="evenodd" clip-rule="evenodd" d="M12.183 6.68a1.333 1.333 0 0 0-.627.063.667.667 0 0 1-.885-.707V3.352H9.274a2.667 2.667 0 1 1-5.171-.023H2.666v9.342H4.1a2.66 2.66 0 0 1 .147-1.753 2.666 2.666 0 0 1 5.017 1.753h1.406V9.947a.667.667 0 0 1 0-.122v-.032h.004a.667.667 0 0 1 .882-.536 1.333 1.333 0 1 0 .626-2.578zm-.179 3.987a2.663 2.663 0 0 0 2.365-1.442 2.667 2.667 0 0 0-2.365-3.892v-2.58a.733.733 0 0 0-.733-.734H8.323a.666.666 0 0 0-.637 1.093 1.333 1.333 0 1 1-1.996-.006A.667.667 0 0 0 5.127 2v-.003H2.066a.733.733 0 0 0-.734.733v10.542c0 .405.329.733.734.733h3.2v-.006a.667.667 0 0 0 .423-1.106 1.333 1.333 0 1 1 1.994-.006.667.667 0 0 0 .482 1.107v.011h3.106a.733.733 0 0 0 .733-.733v-2.604z" fill="currentColor"/></svg><svg fill="none" viewBox="0 0 16 16" id="ic_categories_type3" xmlns="http://www.w3.org/2000/svg"><path d="M11.333 14.667h-8a2 2 0 0 1-2-2V6a2 2 0 0 1 2-2H4a2.667 2.667 0 0 1 4.866-1.453c.3.426.462.933.467 1.453h2a.667.667 0 0 1 .667.667v2a2.667 2.667 0 0 1 1.453 4.866A2.573 2.573 0 0 1 12 12v2a.667.667 0 0 1-.667.667zm-8-9.334A.667.667 0 0 0 2.666 6v6.667a.667.667 0 0 0 .667.666h7.333v-2.12a.668.668 0 0 1 .887-.633 1.18 1.18 0 0 0 1.16-.153 1.335 1.335 0 0 0 .62-.914 1.332 1.332 0 0 0-.32-1.06 1.26 1.26 0 0 0-1.447-.366.666.666 0 0 1-.886-.634v-2.12H8.546a.667.667 0 0 1-.666-.886 1.18 1.18 0 0 0-.154-1.16 1.293 1.293 0 0 0-2-.287 1.333 1.333 0 0 0-.393 1c.002.153.03.304.087.447a.667.667 0 0 1-.634.886H3.333z" fill="currentColor"/></svg><svg fill="none" viewBox="0 0 16 16" id="ic_check" xmlns="http://www.w3.org/2000/svg"><path d="M5.879 13.186L1.636 8.943l1.887-1.886 2.356 2.362 6.598-6.605 1.887 1.887-8.485 8.485z" fill="currentColor"/></svg><svg fill="none" viewBox="0 0 20 20" id="ic_close" xmlns="http://www.w3.org/2000/svg"><path d="M14.658 4.167L10 8.825 5.34 4.167 4.167 5.341 8.825 10l-4.658 4.658 1.175 1.175L10 11.175l4.658 4.658 1.175-1.175L11.175 10l4.658-4.659-1.175-1.175z" fill="currentColor"/></svg><svg fill="none" viewBox="0 0 24 24" id="ic_compare" xmlns="http://www.w3.org/2000/svg"><path d="M21 8.94a1.307 1.307 0 0 0-.06-.27v-.09a1.07 1.07 0 0 0-.19-.28l-6-6a1.071 1.071 0 0 0-.28-.19.32.32 0 0 0-.09 0 .88.88 0 0 0-.33-.11H10a3 3 0 0 0-3 3v1H6a3 3 0 0 0-3 3v10a3 3 0 0 0 3 3h8a3 3 0 0 0 3-3v-1h1a3 3 0 0 0 3-3V9v-.06zm-6-3.53L17.59 8H16a1 1 0 0 1-1-1V5.41zM15 19a1 1 0 0 1-1 1H6a1 1 0 0 1-1-1V9a1 1 0 0 1 1-1h1v7a3 3 0 0 0 3 3h5v1zm4-4a1 1 0 0 1-1 1h-8a1 1 0 0 1-1-1V5a1 1 0 0 1 1-1h3v3a3 3 0 0 0 3 3h3v5z" fill="currentColor"/></svg><svg fill="none" viewBox="0 0 20 20" id="ic_delete" xmlns="http://www.w3.org/2000/svg"><path d="M14.167 18.333H5.833c-.92 0-1.666-.746-1.666-1.666V5.833H2.5V4.167h3.333v-.834c0-.92.747-1.666 1.667-1.666h5c.92 0 1.667.746 1.667 1.666v.834H17.5v1.666h-1.667v10.834c0 .92-.746 1.666-1.666 1.666zm-8.334-12.5v10.834h8.334V5.833H5.833zm1.667-2.5v.834h5v-.834h-5zM12.5 15h-1.667V7.5H12.5V15zm-3.333 0H7.5V7.5h1.667V15z" fill="currentColor"/></svg><svg fill="none" viewBox="0 0 24 24" id="ic_download" xmlns="http://www.w3.org/2000/svg"><path d="M19 22H5v-2h14v2zm-7-4l-6-6 1.41-1.41L11 14.17V2h2v12.17l3.59-3.58L18 12l-6 6z" fill="currentColor"/></svg><svg fill="none" viewBox="0 0 20 21" id="ic_email" xmlns="http://www.w3.org/2000/svg"><path d="M16.667 17.377H3.333c-.92 0-1.666-.746-1.666-1.667V5.638a1.667 1.667 0 0 1 1.666-1.595h13.334c.92 0 1.666.747 1.666 1.667v10c0 .92-.746 1.667-1.666 1.667zM3.333 7.267v8.443h13.334V7.267L10 11.71 3.333 7.267zM4 5.71l6 4 6-4H4z" fill="currentColor"/></svg><svg fill="none" viewBox="0 0 24 24" id="ic_favorite" xmlns="http://www.w3.org/2000/svg"><path d="M12 21c-.645-.572-1.374-1.167-2.145-1.8h-.01c-2.715-2.22-5.792-4.732-7.151-7.742-.446-.958-.683-2-.694-3.058A5.39 5.39 0 0 1 7.5 3a6.158 6.158 0 0 1 3.328.983A5.6 5.6 0 0 1 12 5c.344-.39.738-.732 1.173-1.017A6.152 6.152 0 0 1 16.5 3 5.39 5.39 0 0 1 22 8.4a7.422 7.422 0 0 1-.694 3.063c-1.359 3.01-4.435 5.521-7.15 7.737l-.01.008c-.772.629-1.5 1.224-2.145 1.8L12 21zM7.5 5a3.535 3.535 0 0 0-2.5.992A3.342 3.342 0 0 0 4 8.4c.011.77.186 1.53.512 2.228A12.314 12.314 0 0 0 7.069 14.1c.991 1 2.131 1.968 3.117 2.782.273.225.551.452.829.679l.175.143c.267.218.543.444.81.666l.013-.012.006-.005h.006l.009-.007h.01l.018-.015.041-.033.007-.006.011-.008h.006l.009-.008.664-.545.174-.143c.281-.229.559-.456.832-.681.986-.814 2.127-1.781 3.118-2.786a12.298 12.298 0 0 0 2.557-3.471c.332-.704.51-1.471.52-2.25A3.343 3.343 0 0 0 19 6a3.535 3.535 0 0 0-2.5-1 3.988 3.988 0 0 0-2.99 1.311L12 8.051l-1.51-1.74A3.988 3.988 0 0 0 7.5 5z" fill="currentColor"/></svg><svg fill="none" viewBox="0 0 24 24" id="ic_filter" xmlns="http://www.w3.org/2000/svg"><path d="M19 2H5a3 3 0 0 0-3 3v1.17a3 3 0 0 0 .25 1.2v.06c.141.321.341.613.59.86L9 14.41V21a1 1 0 0 0 1 1 1 1 0 0 0 .45-.11l4-2A1 1 0 0 0 15 19v-4.59l6.12-6.12a2.81 2.81 0 0 0 .59-.86v-.06a3 3 0 0 0 .29-1.2V5a3 3 0 0 0-3-3zm-5.71 11.29A1 1 0 0 0 13 14v4.38l-2 1V14a1 1 0 0 0-.29-.71L5.41 8h13.18l-5.3 5.29zM20 6H4V5a1 1 0 0 1 1-1h14a1 1 0 0 1 1 1v1z" fill="currentColor"/></svg><svg fill="none" viewBox="0 0 20 20" id="ic_footer_links1" xmlns="http://www.w3.org/2000/svg"><path d="M15.833 5.417h-2.5v-.834a2.5 2.5 0 0 0-2.5-2.5H9.167a2.5 2.5 0 0 0-2.5 2.5v.834h-2.5a2.5 2.5 0 0 0-2.5 2.5v7.5a2.5 2.5 0 0 0 2.5 2.5h11.666a2.5 2.5 0 0 0 2.5-2.5v-7.5a2.5 2.5 0 0 0-2.5-2.5zm-7.5-.834a.833.833 0 0 1 .834-.833h1.666a.833.833 0 0 1 .834.833v.834H8.333v-.834zm8.334 10.834a.833.833 0 0 1-.834.833H4.167a.833.833 0 0 1-.834-.833v-4.584a17.73 17.73 0 0 0 2.5.784v.491a.833.833 0 0 0 1.667 0v-.175a19.18 19.18 0 0 0 2.5.175 19.18 19.18 0 0 0 2.5-.175v.175a.833.833 0 0 0 1.667 0v-.491c.851-.2 1.687-.461 2.5-.784v4.584zm0-6.409c-.81.342-1.647.62-2.5.834v-.259a.833.833 0 1 0-1.667 0v.617a16.76 16.76 0 0 1-5 0v-.617a.833.833 0 0 0-1.667 0v.275a16.991 16.991 0 0 1-2.5-.833V7.917a.833.833 0 0 1 .834-.834h11.666a.833.833 0 0 1 .834.834v1.091z" fill="currentColor"/></svg><svg fill="none" viewBox="0 0 20 20" id="ic_footer_links2" xmlns="http://www.w3.org/2000/svg"><path d="M15.703 6.563c-.114 1.588-1.293 2.812-2.578 2.812s-2.466-1.223-2.578-2.813c-.117-1.652 1.03-2.812 2.578-2.812 1.548 0 2.695 1.19 2.578 2.813z" stroke="currentColor" stroke-width="2" stroke-linecap="round" stroke-linejoin="round"/><path d="M13.125 11.875c-2.546 0-4.994 1.264-5.607 3.727-.081.326.123.648.458.648h10.299c.334 0 .538-.322.457-.648-.613-2.502-3.06-3.727-5.607-3.727z" stroke="currentColor" stroke-width="2" stroke-miterlimit="10"/><path d="M7.812 7.263c-.09 1.269-1.043 2.268-2.07 2.268-1.026 0-1.98-.999-2.07-2.268C3.578 5.943 4.505 5 5.742 5c1.237 0 2.164.968 2.07 2.263z" stroke="currentColor" stroke-width="2" stroke-linecap="round" stroke-linejoin="round"/><path d="M8.047 11.953c-.705-.323-1.482-.447-2.305-.447-2.031 0-3.988 1.01-4.478 2.976-.065.26.099.518.366.518h4.386" stroke="currentColor" stroke-width="2" stroke-miterlimit="10" stroke-linecap="round"/></svg><svg fill="none" viewBox="0 0 20 20" id="ic_footer_links3" xmlns="http://www.w3.org/2000/svg"><path d="M12.342 10.233c.527-.566.824-1.309.833-2.083a3.15 3.15 0 0 0-6.3 0c.009.774.306 1.517.833 2.083A4.95 4.95 0 0 0 5 14.075a.838.838 0 0 0 1.667.183 3.333 3.333 0 0 1 6.616 0 .833.833 0 0 0 .884.742h.091a.834.834 0 0 0 .734-.917 4.95 4.95 0 0 0-2.65-3.85zM10 9.633a1.483 1.483 0 1 1 0-2.966 1.483 1.483 0 0 1 0 2.966zm5.833-7.966H4.167a2.5 2.5 0 0 0-2.5 2.5v11.666a2.5 2.5 0 0 0 2.5 2.5h11.666a2.5 2.5 0 0 0 2.5-2.5V4.167a2.5 2.5 0 0 0-2.5-2.5zm.834 14.166a.833.833 0 0 1-.834.834H4.167a.833.833 0 0 1-.834-.834V4.167a.833.833 0 0 1 .834-.834h11.666a.833.833 0 0 1 .834.834v11.666z" fill="currentColor"/></svg><svg fill="none" viewBox="0 0 20 20" id="ic_footer_links4" xmlns="http://www.w3.org/2000/svg"><path d="M5.833 5a.833.833 0 1 0 0 1.667.833.833 0 0 0 0-1.667zm12.259 4.817l-7.9-7.884a.834.834 0 0 0-.609-.266h-5a.833.833 0 0 0-.591.241L1.908 3.983a.833.833 0 0 0-.241.592v5c.003.22.089.432.241.592l7.909 7.916c.16.153.37.239.591.242a.833.833 0 0 0 .592-.242l7.092-7.091a.834.834 0 0 0 .241-.592.874.874 0 0 0-.241-.583zm-7.684 6.508L3.333 9.242V4.917l1.584-1.584h4.316l7.084 7.075-5.909 5.917z" fill="currentColor"/></svg><svg fill="none" viewBox="0 0 24 24" id="ic_grid" xmlns="http://www.w3.org/2000/svg"><path fill-rule="evenodd" clip-rule="evenodd" d="M7 7a2 2 0 1 1-4 0 2 2 0 0 1 4 0zm7 0a2 2 0 1 1-4 0 2 2 0 0 1 4 0zm5 2a2 2 0 1 0 0-4 2 2 0 0 0 0 4zM7 12a2 2 0 1 1-4 0 2 2 0 0 1 4 0zm5 2a2 2 0 1 0 0-4 2 2 0 0 0 0 4zm9-2a2 2 0 1 1-4 0 2 2 0 0 1 4 0zM5 19a2 2 0 1 0 0-4 2 2 0 0 0 0 4zm9-2a2 2 0 1 1-4 0 2 2 0 0 1 4 0zm5 2a2 2 0 1 0 0-4 2 2 0 0 0 0 4z" fill="currentColor"/></svg><svg fill="none" viewBox="0 0 24 24" id="ic_list" xmlns="http://www.w3.org/2000/svg"><path d="M3.71 16.29a1 1 0 0 0-.33-.21 1 1 0 0 0-.76 0 1 1 0 0 0-.33.21 1 1 0 0 0-.21.33 1 1 0 0 0 .21 1.09c.097.088.209.16.33.21a.94.94 0 0 0 .76 0 1.15 1.15 0 0 0 .33-.21 1 1 0 0 0 .21-1.09 1 1 0 0 0-.21-.33zM7 8h14a1 1 0 1 0 0-2H7a1 1 0 0 0 0 2zm-3.29 3.29a1 1 0 0 0-1.09-.21 1.15 1.15 0 0 0-.33.21 1 1 0 0 0-.21.33.94.94 0 0 0 0 .76c.05.121.122.233.21.33.097.088.209.16.33.21a.94.94 0 0 0 .76 0 1.15 1.15 0 0 0 .33-.21 1.15 1.15 0 0 0 .21-.33.94.94 0 0 0 0-.76 1 1 0 0 0-.21-.33zM21 11H7a1 1 0 0 0 0 2h14a1 1 0 0 0 0-2zM3.71 6.29a1 1 0 0 0-.33-.21 1 1 0 0 0-1.09.21 1.15 1.15 0 0 0-.21.33.94.94 0 0 0 0 .76c.05.121.122.233.21.33.097.088.209.16.33.21a1 1 0 0 0 1.09-.21 1.15 1.15 0 0 0 .21-.33.94.94 0 0 0 0-.76 1.15 1.15 0 0 0-.21-.33zM21 16H7a1 1 0 0 0 0 2h14a1 1 0 0 0 0-2z" fill="currentColor"/></svg><svg fill="none" viewBox="0 0 16 16" id="ic_logout" xmlns="http://www.w3.org/2000/svg"><path d="M12.667 14H3.333A1.333 1.333 0 0 1 2 12.667V10h1.333v2.667h9.334V3.333H3.333V6H2V3.333C2 2.597 2.597 2 3.333 2h9.334C13.403 2 14 2.597 14 3.333v9.334c0 .736-.597 1.333-1.333 1.333zm-5.334-3.333v-2H2V7.333h5.333v-2L10.667 8l-3.334 2.667z" fill="currentColor"/></svg><svg fill="none" viewBox="0 0 20 21" id="ic_menu" xmlns="http://www.w3.org/2000/svg"><path d="M2.5 7.377h15a.833.833 0 0 0 0-1.667h-15a.833.833 0 1 0 0 1.667zm15 6.667h-15a.833.833 0 1 0 0 1.666h15a.833.833 0 0 0 0-1.666zm0-4.167h-15a.833.833 0 0 0 0 1.667h15a.833.833 0 0 0 0-1.667z" fill="currentColor"/></svg><svg fill="none" viewBox="0 0 20 21" id="ic_menu1" xmlns="http://www.w3.org/2000/svg"><path d="M16.667 7.377l-5-4.383a2.5 2.5 0 0 0-3.334 0l-5 4.383A2.5 2.5 0 0 0 2.5 9.26v7.284a2.5 2.5 0 0 0 2.5 2.5h10a2.5 2.5 0 0 0 2.5-2.5V9.252a2.5 2.5 0 0 0-.833-1.875zm-5 10H8.333V13.21a.833.833 0 0 1 .834-.833h1.666a.833.833 0 0 1 .834.833v4.167zm4.166-.833a.833.833 0 0 1-.833.833h-1.667V13.21a2.5 2.5 0 0 0-2.5-2.5H9.167a2.5 2.5 0 0 0-2.5 2.5v4.167H5a.834.834 0 0 1-.833-.833V9.252a.833.833 0 0 1 .283-.625l5-4.375a.833.833 0 0 1 1.1 0l5 4.375a.834.834 0 0 1 .283.625v7.292z" fill="currentColor"/></svg><svg fill="none" viewBox="0 0 20 21" id="ic_menu2" xmlns="http://www.w3.org/2000/svg"><path d="M14.167 19.044h-10a2.5 2.5 0 0 1-2.5-2.5V8.21a2.5 2.5 0 0 1 2.5-2.5H5a3.333 3.333 0 0 1 6.083-1.816c.374.532.577 1.166.584 1.816h2.5a.833.833 0 0 1 .833.834v2.5a3.333 3.333 0 0 1 1.817 6.083A3.218 3.218 0 0 1 15 15.71v2.5a.833.833 0 0 1-.833.834zm-10-11.667a.833.833 0 0 0-.834.833v8.334a.833.833 0 0 0 .834.833h9.166v-2.65a.832.832 0 0 1 1.109-.792 1.475 1.475 0 0 0 1.45-.191 1.666 1.666 0 0 0 .775-1.142 1.667 1.667 0 0 0-.4-1.325 1.576 1.576 0 0 0-1.809-.458.833.833 0 0 1-1.108-.792v-2.65h-2.667a.833.833 0 0 1-.833-1.108 1.475 1.475 0 0 0-.192-1.45 1.617 1.617 0 0 0-2.5-.359 1.667 1.667 0 0 0-.491 1.25c.002.191.038.38.108.559a.833.833 0 0 1-.792 1.108H4.167z" fill="currentColor"/></svg><svg fill="none" viewBox="0 0 20 21" id="ic_menu3" xmlns="http://www.w3.org/2000/svg"><path d="M15.833 2.377H4.167A1.667 1.667 0 0 0 2.5 4.044V5.71a1.667 1.667 0 0 0 1.667 1.667v9.167a2.5 2.5 0 0 0 2.5 2.5h6.666a2.5 2.5 0 0 0 2.5-2.5V7.377A1.666 1.666 0 0 0 17.5 5.71V4.044a1.667 1.667 0 0 0-1.667-1.667zm-1.666 11.667h-5V10.71h5v3.334zm0-5H8.333a.833.833 0 0 0-.833.833v5a.833.833 0 0 0 .833.833h5.834v.834a.833.833 0 0 1-.834.833H6.667a.833.833 0 0 1-.834-.833V7.377h8.334v1.667zm-10-3.334V4.044h11.666V5.71H4.167z" fill="currentColor"/></svg><svg fill="none" viewBox="0 0 20 21" id="ic_menu4" xmlns="http://www.w3.org/2000/svg"><path d="M10.592 15.119a.834.834 0 0 0-.134-.1.464.464 0 0 0-.141-.075.5.5 0 0 0-.159-.05.776.776 0 0 0-.475.05.75.75 0 0 0-.45.45.7.7 0 0 0-.066.316.833.833 0 0 0 .058.317c.048.1.11.192.183.275a.833.833 0 0 0 .909.175.956.956 0 0 0 .275-.175.834.834 0 0 0 .175-.908.835.835 0 0 0-.175-.275zm-3.467-3.434a.465.465 0 0 0-.142-.075.5.5 0 0 0-.158-.066.716.716 0 0 0-.325 0l-.15.05-.15.075-.125.1a.875.875 0 0 0-.18.928.834.834 0 0 0 .18.272.958.958 0 0 0 .275.175.833.833 0 0 0 .908-1.359l-.133-.1zm.133 3.434a.833.833 0 0 0-.275-.175.834.834 0 0 0-.483-.067l-.15.05a.637.637 0 0 0-.15.075c-.044.03-.085.064-.125.1a.834.834 0 0 0-.175.275.783.783 0 0 0 0 .633.835.835 0 0 0 .767.533.7.7 0 0 0 .316-.066.956.956 0 0 0 .275-.175.958.958 0 0 0 .175-.275.783.783 0 0 0 0-.633.834.834 0 0 0-.175-.275zm2.425-3.509a.832.832 0 0 0-.275.175.875.875 0 0 0-.241.592.833.833 0 0 0 1.15.767.958.958 0 0 0 .275-.175.835.835 0 0 0 .241-.592.875.875 0 0 0-.241-.592.833.833 0 0 0-.909-.175zm4.242 3.509a.958.958 0 0 0-.275-.175.834.834 0 0 0-.908.175.832.832 0 0 0-.175.275.783.783 0 0 0 0 .633.958.958 0 0 0 .175.275.832.832 0 0 0 .908.175.956.956 0 0 0 .275-.175.833.833 0 0 0 .175-.908.834.834 0 0 0-.175-.275zm-.592-10.242H6.667a.833.833 0 0 0-.834.833v3.334a.833.833 0 0 0 .834.833h6.666a.833.833 0 0 0 .834-.833V5.71a.833.833 0 0 0-.834-.833zM12.5 8.21h-5V6.544h5V8.21zM15 1.544H5a2.5 2.5 0 0 0-2.5 2.5v13.333a2.5 2.5 0 0 0 2.5 2.5h10a2.5 2.5 0 0 0 2.5-2.5V4.044a2.5 2.5 0 0 0-2.5-2.5zm.833 15.833a.834.834 0 0 1-.833.833H5a.833.833 0 0 1-.833-.833V4.044A.833.833 0 0 1 5 3.21h10a.833.833 0 0 1 .833.834v13.333zm-2.041-5.692a.466.466 0 0 0-.142-.075.498.498 0 0 0-.158-.05.716.716 0 0 0-.325 0l-.15.05-.15.075-.125.1a.875.875 0 0 0-.242.592.833.833 0 0 0 1.15.767.958.958 0 0 0 .275-.175.835.835 0 0 0 .242-.592.875.875 0 0 0-.242-.592l-.133-.1z" fill="currentColor"/></svg><svg fill="none" viewBox="0 0 20 21" id="ic_menu5" xmlns="http://www.w3.org/2000/svg"><path d="M17.642 2.427a10.917 10.917 0 0 0-1.809-.158A10.783 10.783 0 0 0 10 3.977 10.783 10.783 0 0 0 4.167 2.31c-.606.003-1.211.056-1.809.159a.833.833 0 0 0-.691.833v10a.833.833 0 0 0 .975.833 9.082 9.082 0 0 1 6.875 1.592l.1.058h.091a.758.758 0 0 0 .584 0h.091l.1-.058a9.085 9.085 0 0 1 6.875-1.683.835.835 0 0 0 .975-.834v-10a.833.833 0 0 0-.691-.783zM9.167 13.502a10.725 10.725 0 0 0-5-1.233h-.834V3.935a7.24 7.24 0 0 1 .834 0 9.05 9.05 0 0 1 5 1.5v8.067zm7.5-1.2h-.834a10.725 10.725 0 0 0-5 1.233v-8.1a9.05 9.05 0 0 1 5-1.5c.278-.016.556-.016.834 0v8.367zm.975 3.458a10.918 10.918 0 0 0-1.809-.158A10.783 10.783 0 0 0 10 17.31a10.783 10.783 0 0 0-5.833-1.708c-.606.002-1.211.055-1.809.158a.834.834 0 0 0-.691.959.833.833 0 0 0 .975.658 9.085 9.085 0 0 1 6.875 1.592.833.833 0 0 0 .966 0 9.083 9.083 0 0 1 6.875-1.592.833.833 0 0 0 .975-.658.831.831 0 0 0-.691-.959z" fill="currentColor"/></svg><svg fill="none" viewBox="0 0 26 27" id="ic_notifications" xmlns="http://www.w3.org/2000/svg"><path d="M19.5 14.633V11.19a6.5 6.5 0 0 0-5.417-6.403v-1.18a1.084 1.084 0 0 0-2.166 0v1.18A6.5 6.5 0 0 0 6.5 11.188v3.445a3.25 3.25 0 0 0-2.167 3.056v2.166a1.083 1.083 0 0 0 1.084 1.084h3.401a4.333 4.333 0 0 0 8.364 0h3.401a1.083 1.083 0 0 0 1.084-1.084V17.69a3.25 3.25 0 0 0-2.167-3.056zM8.667 11.19a4.333 4.333 0 1 1 8.666 0v3.25H8.667v-3.25zM13 22.021a2.166 2.166 0 0 1-1.863-1.083h3.726A2.166 2.166 0 0 1 13 22.021zm6.5-3.25h-13v-1.083a1.083 1.083 0 0 1 1.083-1.084h10.834A1.083 1.083 0 0 1 19.5 17.69v1.083z" fill="currentColor"/></svg><svg fill="none" viewBox="0 0 20 21" id="ic_phone" xmlns="http://www.w3.org/2000/svg"><path d="M16.2 11.543c-.183 0-.375-.058-.558-.1a7.86 7.86 0 0 1-1.092-.325 1.667 1.667 0 0 0-2.067.834l-.183.375a10.151 10.151 0 0 1-2.217-1.667 10.152 10.152 0 0 1-1.666-2.216l.35-.234A1.667 1.667 0 0 0 9.6 6.144a8.607 8.607 0 0 1-.325-1.092 6.181 6.181 0 0 1-.1-.567 2.5 2.5 0 0 0-2.5-2.075h-2.5a2.5 2.5 0 0 0-2.5 2.842 15.833 15.833 0 0 0 13.767 13.716h.316a2.5 2.5 0 0 0 2.285-1.48c.143-.324.217-.674.215-1.028v-2.5a2.5 2.5 0 0 0-2.058-2.417zm.417 5a.833.833 0 0 1-.603.802.882.882 0 0 1-.364.032A14.167 14.167 0 0 1 3.392 5.06a.908.908 0 0 1 .208-.683.833.833 0 0 1 .625-.283h2.5a.833.833 0 0 1 .833.658c.034.228.075.453.125.675.097.44.225.87.384 1.292L6.9 7.26a.833.833 0 0 0-.408 1.109 12.075 12.075 0 0 0 5.833 5.833c.203.083.43.083.633 0a.833.833 0 0 0 .475-.434l.517-1.166c.43.154.87.282 1.317.383.222.05.447.092.675.125a.833.833 0 0 1 .658.834l.017 2.6z" fill="currentColor"/></svg><svg fill="none" viewBox="0 0 14 15" id="ic_pin" xmlns="http://www.w3.org/2000/svg"><path fill-rule="evenodd" clip-rule="evenodd" d="M9.333 5.46V2.543h.584c.32 0 .583-.262.583-.583a.585.585 0 0 0-.583-.583H4.083a.585.585 0 0 0-.583.583c0 .321.262.583.583.583h.584V5.46c0 .968-.782 1.75-1.75 1.75v1.167h3.482v4.083l.583.583.584-.583V8.377h3.517V7.21c-.968 0-1.75-.782-1.75-1.75z" fill="currentColor"/></svg><svg fill="none" viewBox="0 0 63 63" id="ic_quote" xmlns="http://www.w3.org/2000/svg"><path d="M24.596.782C7.12 4.25 0 15.089 0 33.732v29.05h24.596V34.166H13.808v-2.601c0-9.755 3.452-16.259 10.788-18.21V.782zM63 .782c-16.829 3.251-24.596 13.44-24.596 32.95v29.05H63V34.166H52.212v-2.601c0-10.189 3.668-16.042 10.788-18.21V.782z" fill="currentColor"/></svg><svg fill="none" viewBox="0 0 20 21" id="ic_search" xmlns="http://www.w3.org/2000/svg"><path d="M18.092 17.264L15 14.197a7.5 7.5 0 1 0-1.158 1.158l3.066 3.067a.834.834 0 0 0 1.184 0 .833.833 0 0 0 0-1.159zm-8.925-1.909a5.833 5.833 0 1 1 0-11.666 5.833 5.833 0 0 1 0 11.666z" fill="currentColor"/></svg><svg fill="none" viewBox="0 0 24 24" id="ic_share" xmlns="http://www.w3.org/2000/svg"><path d="M17.501 22a3.46 3.46 0 0 1-3.383-4.352l-6.26-3.578a3.494 3.494 0 1 1 .576-4.47l5.683-3.249a3.494 3.494 0 0 1-.116-.851 3.531 3.531 0 1 1 1.142 2.57l-6.15 3.515c-.007.26-.043.517-.109.768l6.26 3.577A3.495 3.495 0 1 1 17.5 22zm0-5a1.5 1.5 0 1 0 0 3 1.5 1.5 0 0 0 0-3zm-12-7a1.5 1.5 0 1 0 0 3 1.5 1.5 0 0 0 0-3zm12-6a1.5 1.5 0 1 0 0 3 1.5 1.5 0 0 0 0-3z" fill="currentColor"/></svg><svg fill="none" viewBox="0 0 20 21" id="ic_shop" xmlns="http://www.w3.org/2000/svg"><path d="M18.333 2.377H1.667a.833.833 0 0 0-.834.833v3.334A2.5 2.5 0 0 0 2.5 8.894v9.316a.833.833 0 0 0 .833.834h13.334a.833.833 0 0 0 .833-.834V8.894a2.5 2.5 0 0 0 1.667-2.35V3.21a.833.833 0 0 0-.834-.833zM12.5 4.044h1.667v2.5a.833.833 0 1 1-1.667 0v-2.5zm-3.333 0h1.666v2.5a.834.834 0 0 1-1.666 0v-2.5zm-3.334 0H7.5v2.5a.833.833 0 0 1-1.667 0v-2.5zm-2.5 3.333a.833.833 0 0 1-.833-.833v-2.5h1.667v2.5a.833.833 0 0 1-.834.833zm8.334 10H8.333v-3.333a1.667 1.667 0 0 1 3.334 0v3.333zm4.166 0h-2.5v-3.333a3.333 3.333 0 1 0-6.666 0v3.333h-2.5V8.894c.306-.114.589-.284.833-.5a2.5 2.5 0 0 0 3.333 0 2.5 2.5 0 0 0 3.334 0 2.5 2.5 0 0 0 3.333 0c.245.216.527.386.833.5v8.483zM17.5 6.544a.833.833 0 1 1-1.667 0v-2.5H17.5v2.5z" fill="currentColor"/></svg><svg fill="none" viewBox="0 0 20 20" id="ic_star" xmlns="http://www.w3.org/2000/svg"><path d="M18.333 8.058a.833.833 0 0 0-.716-.558l-4.742-.692L10.75 2.5a.834.834 0 0 0-1.5 0L7.125 6.8l-4.742.7a.833.833 0 0 0-.675.567.833.833 0 0 0 .209.833l3.441 3.333-.833 4.734a.833.833 0 0 0 1.208.891L10 15.633l4.25 2.234c.117.066.25.1.383.1a.833.833 0 0 0 .78-.527.833.833 0 0 0 .045-.465l-.833-4.733 3.442-3.334a.833.833 0 0 0 .266-.85z" fill="currentColor"/></svg><svg fill="none" viewBox="0 0 24 25" id="ic_telegram" xmlns="http://www.w3.org/2000/svg"><path d="M11.994 2.71a10 10 0 1 0 0 20 10 10 0 0 0 0-20zm3.18 15.153a.704.704 0 0 1-1.002.351l-2.715-2.11-1.742 1.608a.3.3 0 0 1-.285.04l.334-2.99.01.01.007-.06s4.885-4.447 5.084-4.637c.202-.189.135-.23.135-.23.012-.23-.361 0-.361 0L8.166 14.01l-2.695-.918s-.414-.148-.453-.475c-.041-.324.466-.5.466-.5L16.201 7.86s.881-.393.881.257l-1.908 9.747z" fill="currentColor"/></svg><svg fill="none" viewBox="0 0 20 20" id="ic_tooltip" xmlns="http://www.w3.org/2000/svg"><path d="M9.41 12.742c-.036.04-.07.081-.1.125a.632.632 0 0 0-.075.15.533.533 0 0 0-.05.15 1.133 1.133 0 0 0 0 .166.7.7 0 0 0 .066.317.75.75 0 0 0 .45.45.783.783 0 0 0 .634 0 .748.748 0 0 0 .45-.45.833.833 0 0 0 .05-.317.832.832 0 0 0-1.154-.774.833.833 0 0 0-.271.183zM10 1.667a8.333 8.333 0 1 0 0 16.666 8.333 8.333 0 0 0 0-16.666zm0 15a6.666 6.666 0 1 1 0-13.333 6.666 6.666 0 0 1 0 13.333zm0-10.834a2.5 2.5 0 0 0-2.166 1.25.833.833 0 1 0 1.441.834.833.833 0 0 1 1.315-.173.834.834 0 0 1-.59 1.423.833.833 0 0 0-.833.833v.833a.833.833 0 1 0 1.667 0v-.15A2.5 2.5 0 0 0 10 5.833z" fill="currentColor"/></svg><svg fill="none" viewBox="0 0 26 26" id="ic_user" xmlns="http://www.w3.org/2000/svg"><path d="M17.02 13.77a6.5 6.5 0 1 0-8.04 0 10.833 10.833 0 0 0-6.737 8.86 1.09 1.09 0 0 0 2.166.24 8.666 8.666 0 0 1 17.225 0 1.083 1.083 0 0 0 1.084.963h.119a1.083 1.083 0 0 0 .953-1.191 10.833 10.833 0 0 0-6.77-8.873zM13 13a4.334 4.334 0 1 1 0-8.668A4.334 4.334 0 0 1 13 13z" fill="currentColor"/></svg></svg>