<svg width="0" height="0" class="hidden">
  <symbol xmlns="http://www.w3.org/2000/svg" viewBox="0 0 24 24" id="ic_add">
    <path d="M19 11H13V5C13 4.73478 12.8946 4.48043 12.7071 4.29289C12.5196 4.10536 12.2652 4 12 4C11.7348 4 11.4804 4.10536 11.2929 4.29289C11.1054 4.48043 11 4.73478 11 5V11H5C4.73478 11 4.48043 11.1054 4.29289 11.2929C4.10536 11.4804 4 11.7348 4 12C4 12.2652 4.10536 12.5196 4.29289 12.7071C4.48043 12.8946 4.73478 13 5 13H11V19C11 19.2652 11.1054 19.5196 11.2929 19.7071C11.4804 19.8946 11.7348 20 12 20C12.2652 20 12.5196 19.8946 12.7071 19.7071C12.8946 19.5196 13 19.2652 13 19V13H19C19.2652 13 19.5196 12.8946 19.7071 12.7071C19.8946 12.5196 20 12.2652 20 12C20 11.7348 19.8946 11.4804 19.7071 11.2929C19.5196 11.1054 19.2652 11 19 11Z" fill="currentColor"></path>
  </symbol>
  <symbol xmlns="http://www.w3.org/2000/svg" viewBox="0 0 16 17" id="ic_arrow_down">
    <path d="M8.56699 10.7219L12.3003 6.92188C12.567 6.65521 12.567 6.25521 12.3003 5.98854C12.0337 5.72188 11.6337 5.72188 11.367 5.98854L8.03366 9.25521L4.70033 5.98854C4.43366 5.72188 4.03366 5.72188 3.76699 5.98854C3.63366 6.12188 3.56699 6.25521 3.56699 6.45521C3.56699 6.65521 3.63366 6.78854 3.76699 6.92188L7.50033 10.7219C7.83366 10.9885 8.23366 10.9885 8.56699 10.7219C8.50033 10.7219 8.50033 10.7219 8.56699 10.7219Z" fill="currentColor"></path>
  </symbol>
  <symbol xmlns="http://www.w3.org/2000/svg" viewBox="0 0 20 21" id="ic_arrow_left">
    <path d="M7.08344 11.377L11.8334 16.0436C12.1668 16.377 12.6668 16.377 13.0001 16.0436C13.3334 15.7103 13.3334 15.2103 13.0001 14.877L8.91677 10.7103L13.0001 6.54363C13.3334 6.2103 13.3334 5.7103 13.0001 5.37697C12.8334 5.2103 12.6668 5.12697 12.4168 5.12697C12.1668 5.12697 12.0001 5.2103 11.8334 5.37697L7.08344 10.0436C6.7501 10.4603 6.7501 10.9603 7.08344 11.377C7.08344 11.2936 7.08344 11.2936 7.08344 11.377Z" fill="currentColor"></path>
  </symbol>
  <symbol xmlns="http://www.w3.org/2000/svg" viewBox="0 0 20 21" id="ic_arrow_right">
    <path d="M12.9499 10.1186L8.23328 5.41026C8.15581 5.33215 8.06364 5.27015 7.96209 5.22785C7.86054 5.18554 7.75162 5.16376 7.64161 5.16376C7.5316 5.16376 7.42268 5.18554 7.32113 5.22785C7.21958 5.27015 7.12741 5.33215 7.04994 5.41026C6.89474 5.56639 6.80762 5.7776 6.80762 5.99776C6.80762 6.21791 6.89474 6.42912 7.04994 6.58526L11.1749 10.7519L7.04994 14.8769C6.89474 15.0331 6.80762 15.2443 6.80762 15.4644C6.80762 15.6846 6.89474 15.8958 7.04994 16.0519C7.12712 16.1307 7.21916 16.1933 7.32072 16.2362C7.42229 16.2791 7.53135 16.3015 7.64161 16.3019C7.75187 16.3015 7.86094 16.2791 7.9625 16.2362C8.06406 16.1933 8.1561 16.1307 8.23328 16.0519L12.9499 11.3436C13.0345 11.2656 13.102 11.1708 13.1482 11.0654C13.1944 10.96 13.2182 10.8462 13.2182 10.7311C13.2182 10.616 13.1944 10.5022 13.1482 10.3968C13.102 10.2913 13.0345 10.1966 12.9499 10.1186Z" fill="currentColor"></path>
  </symbol>
  <symbol xmlns="http://www.w3.org/2000/svg" viewBox="0 0 20 20" id="ic_back">
    <path d="M14.1664 9.16666H7.84142L10.5914 6.42499C10.7483 6.26807 10.8365 6.05524 10.8365 5.83333C10.8365 5.61141 10.7483 5.39858 10.5914 5.24166C10.4345 5.08474 10.2217 4.99658 9.99975 4.99658C9.77783 4.99658 9.565 5.08474 9.40808 5.24166L5.24142 9.40833C5.16555 9.48758 5.10608 9.58103 5.06642 9.68333C4.98307 9.88621 4.98307 10.1138 5.06642 10.3167C5.10608 10.419 5.16555 10.5124 5.24142 10.5917L9.40808 14.7583C9.48555 14.8364 9.57772 14.8984 9.67927 14.9407C9.78082 14.983 9.88974 15.0048 9.99975 15.0048C10.1098 15.0048 10.2187 14.983 10.3202 14.9407C10.4218 14.8984 10.5139 14.8364 10.5914 14.7583C10.6695 14.6809 10.7315 14.5887 10.7738 14.4871C10.8161 14.3856 10.8379 14.2767 10.8379 14.1667C10.8379 14.0566 10.8161 13.9477 10.7738 13.8462C10.7315 13.7446 10.6695 13.6525 10.5914 13.575L7.84142 10.8333H14.1664C14.3874 10.8333 14.5994 10.7455 14.7557 10.5892C14.912 10.433 14.9998 10.221 14.9998 9.99999C14.9998 9.77898 14.912 9.56702 14.7557 9.41074C14.5994 9.25446 14.3874 9.16666 14.1664 9.16666Z" fill="currentColor"></path>
  </symbol>
  <symbol xmlns="http://www.w3.org/2000/svg" viewBox="0 0 26 27" id="ic_cart">
    <path d="M15.1666 19.8552C15.454 19.8552 15.7295 19.741 15.9327 19.5379C16.1358 19.3347 16.25 19.0592 16.25 18.7718V16.6052C16.25 16.3179 16.1358 16.0423 15.9327 15.8392C15.7295 15.636 15.454 15.5218 15.1666 15.5218C14.8793 15.5218 14.6038 15.636 14.4006 15.8392C14.1974 16.0423 14.0833 16.3179 14.0833 16.6052V18.7718C14.0833 19.0592 14.1974 19.3347 14.4006 19.5379C14.6038 19.741 14.8793 19.8552 15.1666 19.8552ZM10.8333 19.8552C11.1206 19.8552 11.3962 19.741 11.5993 19.5379C11.8025 19.3347 11.9166 19.0592 11.9166 18.7718V16.6052C11.9166 16.3179 11.8025 16.0423 11.5993 15.8392C11.3962 15.636 11.1206 15.5218 10.8333 15.5218C10.546 15.5218 10.2704 15.636 10.0673 15.8392C9.86411 16.0423 9.74998 16.3179 9.74998 16.6052V18.7718C9.74998 19.0592 9.86411 19.3347 10.0673 19.5379C10.2704 19.741 10.546 19.8552 10.8333 19.8552ZM20.5833 6.85518H19.0883L17.2141 3.11768C17.1569 2.98016 17.0719 2.85592 16.9644 2.75274C16.857 2.64956 16.7294 2.56964 16.5896 2.518C16.4499 2.46635 16.301 2.44407 16.1523 2.45257C16.0036 2.46106 15.8582 2.50014 15.7252 2.56736C15.5923 2.63458 15.4746 2.7285 15.3796 2.84324C15.2846 2.95799 15.2143 3.09109 15.1731 3.23424C15.1318 3.37739 15.1205 3.52751 15.1399 3.67522C15.1593 3.82292 15.209 3.96504 15.2858 4.09268L16.6616 6.85518H9.33831L10.7141 4.09268C10.8193 3.84016 10.825 3.55722 10.7302 3.30064C10.6354 3.04407 10.447 2.83287 10.2029 2.70945C9.95877 2.58602 9.67701 2.55951 9.41416 2.63523C9.15131 2.71095 8.92684 2.8833 8.78581 3.11768L6.91165 6.85518H5.41665C4.65093 6.86683 3.91393 7.14849 3.33562 7.65049C2.7573 8.15249 2.37483 8.84259 2.25566 9.59906C2.13649 10.3555 2.28828 11.1298 2.68425 11.7853C3.08022 12.4408 3.69493 12.9354 4.41998 13.1818L5.22165 21.2635C5.30249 22.068 5.68027 22.8134 6.28122 23.3543C6.88218 23.8951 7.66315 24.1926 8.47165 24.1885H17.55C18.3585 24.1926 19.1394 23.8951 19.7404 23.3543C20.3414 22.8134 20.7191 22.068 20.8 21.2635L21.6016 13.1818C22.3283 12.9346 22.944 12.4382 23.3396 11.7805C23.7353 11.1229 23.8855 10.3464 23.7635 9.58859C23.6415 8.83081 23.2553 8.14065 22.6732 7.64036C22.0912 7.14006 21.3508 6.86191 20.5833 6.85518ZM18.6225 21.0469C18.5955 21.315 18.4696 21.5635 18.2693 21.7438C18.069 21.9241 17.8086 22.0232 17.5391 22.0219H8.46081C8.19131 22.0232 7.93099 21.9241 7.73067 21.7438C7.53035 21.5635 7.40443 21.315 7.37748 21.0469L6.60831 13.3552H19.3916L18.6225 21.0469ZM20.5833 11.1885H5.41665C5.12933 11.1885 4.85378 11.0744 4.65061 10.8712C4.44745 10.6681 4.33331 10.3925 4.33331 10.1052C4.33331 9.81787 4.44745 9.54232 4.65061 9.33915C4.85378 9.13599 5.12933 9.02185 5.41665 9.02185H20.5833C20.8706 9.02185 21.1462 9.13599 21.3493 9.33915C21.5525 9.54232 21.6666 9.81787 21.6666 10.1052C21.6666 10.3925 21.5525 10.6681 21.3493 10.8712C21.1462 11.0744 20.8706 11.1885 20.5833 11.1885Z" fill="currentColor"></path>
  </symbol>
  <symbol xmlns="http://www.w3.org/2000/svg" viewBox="0 0 16 16" id="ic_categories_type1">
    <path d="M1.33385 11.3864V3.38638C1.33385 2.85595 1.54456 2.34724 1.91963 1.97217C2.2947 1.5971 2.80341 1.38638 3.33385 1.38638L10.0005 1.38638C10.5309 1.38638 11.0397 1.5971 11.4147 1.97217C11.7898 2.34724 12.0005 2.85595 12.0005 3.38638V4.05305C12.5654 4.06426 13.1122 4.25462 13.5619 4.59666C14.0116 4.9387 14.3411 5.41475 14.5028 5.95614C14.6644 6.49754 14.65 7.07629 14.4614 7.60893C14.2729 8.14157 13.9201 8.60057 13.4538 8.91972C13.0277 9.21868 12.521 9.38139 12.0005 9.38638V11.3864C12.0005 11.5632 11.9303 11.7328 11.8052 11.8578C11.6802 11.9828 11.5107 12.053 11.3338 12.053H9.33385C9.32263 12.618 9.13228 13.1647 8.79024 13.6144C8.44819 14.0642 7.97215 14.3936 7.43075 14.5553C6.88936 14.717 6.3106 14.7025 5.77796 14.514C5.24532 14.3255 4.78633 13.9726 4.46718 13.5064C4.16822 13.0803 4.0055 12.5735 4.00051 12.053H2.00051C1.8237 12.053 1.65413 11.9828 1.52911 11.8578C1.40408 11.7328 1.33385 11.5632 1.33385 11.3864ZM10.6672 3.38638C10.6672 3.20957 10.5969 3.04 10.4719 2.91498C10.3469 2.78995 10.1773 2.71972 10.0005 2.71972L3.33385 2.71972C3.15703 2.71972 2.98746 2.78995 2.86244 2.91498C2.73742 3.04 2.66718 3.20957 2.66718 3.38638V10.7197H4.78718C4.89407 10.7191 4.99954 10.7443 5.09468 10.793C5.18982 10.8417 5.27185 10.9126 5.33385 10.9997C5.39576 11.0865 5.43594 11.1869 5.45102 11.2925C5.4661 11.3981 5.45564 11.5057 5.42051 11.6064C5.343 11.7964 5.31638 12.0033 5.34327 12.2067C5.37016 12.4102 5.44963 12.6031 5.57384 12.7664C5.67298 12.9289 5.80579 13.0684 5.96333 13.1753C6.12088 13.2823 6.2995 13.3542 6.48718 13.3864C6.67647 13.4121 6.86908 13.3968 7.05197 13.3416C7.23485 13.2864 7.40373 13.1925 7.54718 13.0664C7.75444 12.8958 7.90178 12.6634 7.96774 12.4032C8.03369 12.1429 8.01481 11.8685 7.91384 11.6197C7.87872 11.519 7.86826 11.4114 7.88334 11.3058C7.89842 11.2003 7.9386 11.0999 8.00051 11.013C8.06251 10.926 8.14454 10.8551 8.23968 10.8063C8.33482 10.7576 8.44028 10.7325 8.54718 10.733H10.6672V8.59972C10.661 8.49015 10.6819 8.38075 10.7281 8.28121C10.7743 8.18168 10.8444 8.09509 10.9321 8.02914C11.0199 7.96319 11.1225 7.91992 11.2309 7.90315C11.3394 7.88639 11.4503 7.89666 11.5538 7.93305C11.7438 8.01056 11.9508 8.03718 12.1542 8.01029C12.3576 7.9834 12.5505 7.90393 12.7138 7.77972C12.8811 7.68129 13.024 7.54649 13.132 7.38531C13.2401 7.22414 13.3105 7.04072 13.338 6.84864C13.3656 6.65656 13.3495 6.46075 13.2911 6.27571C13.2327 6.09067 13.1334 5.92116 13.0005 5.77972C12.8702 5.64837 12.7141 5.54556 12.5419 5.47785C12.3697 5.41013 12.1854 5.37898 12.0005 5.38638C11.8476 5.38793 11.6962 5.41729 11.5538 5.47305C11.453 5.50829 11.3452 5.5188 11.2395 5.50369C11.1338 5.48858 11.0332 5.4483 10.9463 5.38622C10.8594 5.32415 10.7887 5.24211 10.7401 5.147C10.6916 5.05189 10.6665 4.94651 10.6672 4.83972V3.38638Z" fill="currentColor"></path>
  </symbol>
  <symbol xmlns="http://www.w3.org/2000/svg" viewBox="0 0 16 16" id="ic_categories_type2">
    <path fill-rule="evenodd" clip-rule="evenodd" d="M12.183 6.67933C11.9718 6.65011 11.7566 6.67199 11.5555 6.74315C11.2084 6.86599 10.8274 6.6842 10.7046 6.33711C10.6692 6.23724 10.6591 6.13457 10.6709 6.03606V3.35206H9.27384C9.29401 3.43343 9.31039 3.51592 9.32286 3.5993C9.39889 4.10745 9.32646 4.62674 9.11439 5.09472C8.90226 5.56269 8.55946 5.95943 8.12719 6.23721C7.69499 6.51498 7.19166 6.66197 6.67786 6.66049C6.16406 6.65901 5.66166 6.50913 5.23099 6.22887C4.80033 5.94861 4.45986 5.54991 4.25046 5.08072C4.04099 4.61153 3.97159 4.09183 4.05053 3.58412C4.06393 3.49811 4.08146 3.41307 4.10299 3.32927H2.66566V12.6709H4.10093C4.07913 12.5865 4.06139 12.5008 4.04792 12.4141C3.96899 11.9064 4.03839 11.3867 4.24786 10.9175C4.45726 10.4483 4.79773 10.0496 5.22839 9.76937C5.65906 9.4891 6.16146 9.33923 6.67526 9.33777C7.18906 9.3363 7.69233 9.48323 8.12459 9.76103C8.55686 10.0388 8.89966 10.4356 9.11179 10.9035C9.32386 11.3715 9.39628 11.8908 9.32026 12.399C9.30654 12.4907 9.28809 12.5814 9.26506 12.6706H10.6709V9.94737C10.6672 9.90703 10.6671 9.8661 10.6709 9.82497V9.79317H10.6746C10.6808 9.7501 10.6912 9.70697 10.7062 9.66437C10.8287 9.3171 11.2095 9.13497 11.5567 9.25743C11.7579 9.32843 11.9731 9.3501 12.1843 9.3207C12.3956 9.29123 12.5967 9.21157 12.7708 9.0883C12.9448 8.9651 13.0868 8.80183 13.1848 8.61237C13.2827 8.4229 13.3338 8.2127 13.3337 7.99943C13.3336 7.78617 13.2823 7.57603 13.1842 7.38663C13.086 7.19726 12.9439 7.03419 12.7697 6.91112C12.5955 6.78805 12.3943 6.70856 12.183 6.67933ZM12.0042 10.6668C12.1257 10.6666 12.2473 10.6581 12.3683 10.6412C12.7908 10.5824 13.193 10.423 13.5412 10.1765C13.8893 9.93003 14.1733 9.60363 14.3692 9.2247C14.5651 8.84577 14.6672 8.42537 14.667 7.99877C14.6668 7.57223 14.5642 7.15191 14.368 6.77317C14.1717 6.39443 13.8874 6.06829 13.5391 5.82215C13.1907 5.57601 12.7883 5.41703 12.3657 5.35858C12.2456 5.34196 12.1248 5.33361 12.0042 5.33343V2.75206C12.0042 2.34705 11.6759 2.01873 11.2709 2.01873L8.32267 2.01873C8.124 1.97721 7.90893 2.0266 7.74493 2.17115C7.46873 2.41463 7.44219 2.83591 7.68573 3.1121C7.85559 3.30481 7.96619 3.54249 8.00419 3.79657C8.04219 4.05064 8.00599 4.31029 7.89993 4.54427C7.79393 4.77827 7.62253 4.97663 7.40639 5.11552C7.19026 5.25441 6.93859 5.3279 6.68173 5.32716C6.42479 5.32642 6.17359 5.25148 5.95826 5.11135C5.74293 4.97122 5.57273 4.77187 5.46799 4.53727C5.36326 4.30268 5.32859 4.04283 5.36806 3.78898C5.40753 3.53513 5.51946 3.29808 5.69046 3.10635C5.93553 2.83157 5.91146 2.41015 5.63666 2.16508C5.49166 2.03574 5.30579 1.98137 5.12659 1.99926V1.99594H2.06566C1.66072 1.99594 1.33232 2.32419 1.33232 2.72927V13.2709C1.33232 13.6759 1.66066 14.0042 2.06566 14.0042H5.26533V13.9981C5.39773 13.9832 5.52706 13.9286 5.63406 13.8332C5.90886 13.5881 5.93292 13.1666 5.68786 12.8919C5.51686 12.7002 5.40493 12.4631 5.36546 12.2092C5.32599 11.9554 5.36066 11.6956 5.46539 11.461C5.57013 11.2264 5.74032 11.027 5.95566 10.8869C6.17099 10.7468 6.42219 10.6718 6.67913 10.6711C6.93599 10.6704 7.18766 10.7438 7.40379 10.8827C7.61993 11.0216 7.79133 11.22 7.89733 11.454C8.00339 11.688 8.03959 11.9476 8.00159 12.2017C7.96359 12.4558 7.85299 12.6934 7.68313 12.8862C7.43959 13.1623 7.46613 13.5836 7.74233 13.8271C7.86433 13.9346 8.01457 13.9895 8.16533 13.9934V14.004H11.2709C11.676 14.004 12.0042 13.6754 12.0042 13.2706V10.6668Z" fill="currentColor"></path>
  </symbol>
  <symbol xmlns="http://www.w3.org/2000/svg" viewBox="0 0 16 16" id="ic_categories_type3">
    <path d="M11.333 14.6667H3.33301C2.80257 14.6667 2.29387 14.456 1.91879 14.0809C1.54372 13.7058 1.33301 13.1971 1.33301 12.6667V6.00001C1.33301 5.46957 1.54372 4.96087 1.91879 4.58579C2.29387 4.21072 2.80257 4.00001 3.33301 4.00001H3.99967C4.01089 3.4351 4.20124 2.88835 4.54328 2.43863C4.88532 1.9889 5.36137 1.65944 5.90277 1.49776C6.44416 1.33609 7.02292 1.35055 7.55556 1.53907C8.0882 1.72759 8.54719 2.08042 8.86634 2.54667C9.1653 2.97277 9.32802 3.47952 9.33301 4.00001H11.333C11.5098 4.00001 11.6794 4.07025 11.8044 4.19527C11.9294 4.32029 11.9997 4.48986 11.9997 4.66667V6.66667C12.5646 6.67789 13.1113 6.86824 13.5611 7.21028C14.0108 7.55232 14.3402 8.02837 14.5019 8.56977C14.6636 9.11116 14.6491 9.68992 14.4606 10.2226C14.2721 10.7552 13.9193 11.2142 13.453 11.5333C13.0269 11.8323 12.5202 11.995 11.9997 12V14C11.9997 14.1768 11.9294 14.3464 11.8044 14.4714C11.6794 14.5964 11.5098 14.6667 11.333 14.6667ZM3.33301 5.33334C3.1562 5.33334 2.98663 5.40358 2.8616 5.5286C2.73658 5.65363 2.66634 5.8232 2.66634 6.00001V12.6667C2.66634 12.8435 2.73658 13.0131 2.8616 13.1381C2.98663 13.2631 3.1562 13.3333 3.33301 13.3333H10.6663V11.2133C10.6658 11.1064 10.6909 11.001 10.7396 10.9058C10.7884 10.8107 10.8593 10.7287 10.9463 10.6667C11.0332 10.6048 11.1336 10.5646 11.2391 10.5495C11.3447 10.5344 11.4523 10.5449 11.553 10.58C11.743 10.6575 11.9499 10.6841 12.1534 10.6572C12.3568 10.6304 12.5497 10.5509 12.713 10.4267C12.8756 10.3275 13.015 10.1947 13.122 10.0372C13.2289 9.87964 13.3009 9.70102 13.333 9.51334C13.3587 9.32405 13.3435 9.13144 13.2882 8.94855C13.233 8.76567 13.1392 8.59679 13.013 8.45334C12.8424 8.24608 12.61 8.09874 12.3498 8.03278C12.0896 7.96683 11.8151 7.98571 11.5663 8.08667C11.4657 8.1218 11.358 8.13226 11.2525 8.11718C11.1469 8.1021 11.0465 8.06192 10.9597 8.00001C10.8726 7.93801 10.8017 7.85598 10.753 7.76084C10.7042 7.6657 10.6791 7.56023 10.6797 7.45334V5.33334H8.54634C8.43678 5.33955 8.32737 5.31862 8.22784 5.27239C8.1283 5.22617 8.04172 5.1561 7.97577 5.06838C7.90982 4.98067 7.86654 4.87803 7.84978 4.76958C7.83301 4.66112 7.84328 4.55021 7.87967 4.44667C7.95718 4.25668 7.9838 4.04976 7.95691 3.84633C7.93002 3.6429 7.85055 3.45001 7.72634 3.28667C7.62791 3.11945 7.49311 2.97652 7.33194 2.86847C7.17076 2.76042 6.98734 2.69002 6.79526 2.66249C6.60318 2.63496 6.40737 2.651 6.22234 2.70943C6.0373 2.76785 5.86778 2.86717 5.72634 3.00001C5.59499 3.13028 5.49219 3.28647 5.42447 3.45863C5.35676 3.63079 5.32561 3.81516 5.33301 4.00001C5.33455 4.15292 5.36392 4.30428 5.41967 4.44667C5.45492 4.54749 5.46543 4.65529 5.45032 4.76101C5.43521 4.86673 5.39492 4.96728 5.33285 5.05418C5.27077 5.14108 5.18873 5.2118 5.09363 5.26038C4.99852 5.30896 4.89313 5.33398 4.78634 5.33334H3.33301Z" fill="currentColor"></path>
  </symbol>
  <symbol xmlns="http://www.w3.org/2000/svg" viewBox="0 0 16 16" id="ic_check">
    <path d="M5.87887 13.1859L1.63623 8.94327L3.5229 7.0566L5.87887 9.41925L12.4775 2.81396L14.3642 4.70063L5.87887 13.1859Z" fill="currentColor"></path>
  </symbol>
  <symbol xmlns="http://www.w3.org/2000/svg" viewBox="0 0 20 20" id="ic_close">
    <path d="M14.6582 4.1665L9.99984 8.82484L5.3415 4.1665L4.1665 5.3415L8.82484 9.99984L4.1665 14.6582L5.3415 15.8332L9.99984 11.1748L14.6582 15.8332L15.8332 14.6582L11.1748 9.99984L15.8332 5.3415L14.6582 4.1665Z" fill="currentColor"></path>
  </symbol>
  <symbol xmlns="http://www.w3.org/2000/svg" viewBox="0 0 24 24" id="ic_compare">
    <path d="M21 8.94C20.9896 8.84813 20.9695 8.75763 20.94 8.67V8.58C20.8919 8.47718 20.8278 8.38267 20.75 8.3L14.75 2.3C14.6673 2.22222 14.5728 2.15808 14.47 2.11C14.4402 2.10576 14.4099 2.10576 14.38 2.11C14.2784 2.05174 14.1662 2.01434 14.05 2H10C9.20435 2 8.44129 2.31607 7.87868 2.87868C7.31607 3.44129 7 4.20435 7 5V6H6C5.20435 6 4.44129 6.31607 3.87868 6.87868C3.31607 7.44129 3 8.20435 3 9V19C3 19.7956 3.31607 20.5587 3.87868 21.1213C4.44129 21.6839 5.20435 22 6 22H14C14.7956 22 15.5587 21.6839 16.1213 21.1213C16.6839 20.5587 17 19.7956 17 19V18H18C18.7956 18 19.5587 17.6839 20.1213 17.1213C20.6839 16.5587 21 15.7956 21 15V9C21 9 21 9 21 8.94ZM15 5.41L17.59 8H16C15.7348 8 15.4804 7.89464 15.2929 7.70711C15.1054 7.51957 15 7.26522 15 7V5.41ZM15 19C15 19.2652 14.8946 19.5196 14.7071 19.7071C14.5196 19.8946 14.2652 20 14 20H6C5.73478 20 5.48043 19.8946 5.29289 19.7071C5.10536 19.5196 5 19.2652 5 19V9C5 8.73478 5.10536 8.48043 5.29289 8.29289C5.48043 8.10536 5.73478 8 6 8H7V15C7 15.7956 7.31607 16.5587 7.87868 17.1213C8.44129 17.6839 9.20435 18 10 18H15V19ZM19 15C19 15.2652 18.8946 15.5196 18.7071 15.7071C18.5196 15.8946 18.2652 16 18 16H10C9.73478 16 9.48043 15.8946 9.29289 15.7071C9.10536 15.5196 9 15.2652 9 15V5C9 4.73478 9.10536 4.48043 9.29289 4.29289C9.48043 4.10536 9.73478 4 10 4H13V7C13 7.79565 13.3161 8.55871 13.8787 9.12132C14.4413 9.68393 15.2044 10 16 10H19V15Z" fill="currentColor"></path>
  </symbol>
  <symbol xmlns="http://www.w3.org/2000/svg" viewBox="0 0 20 20" id="ic_delete">
    <path d="M14.1667 18.3333H5.83333C4.91286 18.3333 4.16667 17.5871 4.16667 16.6667V5.83334H2.5V4.16667H5.83333V3.33334C5.83333 2.41286 6.57953 1.66667 7.5 1.66667H12.5C13.4205 1.66667 14.1667 2.41286 14.1667 3.33334V4.16667H17.5V5.83334H15.8333V16.6667C15.8333 17.5871 15.0871 18.3333 14.1667 18.3333ZM5.83333 5.83334V16.6667H14.1667V5.83334H5.83333ZM7.5 3.33334V4.16667H12.5V3.33334H7.5ZM12.5 15H10.8333V7.50001H12.5V15ZM9.16667 15H7.5V7.50001H9.16667V15Z" fill="currentColor"></path>
  </symbol>
  <symbol xmlns="http://www.w3.org/2000/svg" viewBox="0 0 24 24" id="ic_download">
    <path d="M19 22H5V20H19V22ZM12 18L6 12L7.41 10.59L11 14.17V2H13V14.17L16.59 10.59L18 12L12 18Z" fill="currentColor"></path>
  </symbol>
  <symbol xmlns="http://www.w3.org/2000/svg" viewBox="0 0 20 21" id="ic_email">
    <path d="M16.6667 17.3768H3.33334C2.41286 17.3768 1.66667 16.6306 1.66667 15.7101V5.63762C1.70551 4.74558 2.44045 4.04261 3.33334 4.04346H16.6667C17.5871 4.04346 18.3333 4.78965 18.3333 5.71012V15.7101C18.3333 16.6306 17.5871 17.3768 16.6667 17.3768ZM3.33334 7.26679V15.7101H16.6667V7.26679L10 11.7101L3.33334 7.26679ZM4.00001 5.71013L10 9.71012L16 5.71013H4.00001Z" fill="currentColor"></path>
  </symbol>
  <symbol xmlns="http://www.w3.org/2000/svg" viewBox="0 0 24 24" id="ic_favorite">
    <path d="M12 21C11.355 20.428 10.626 19.833 9.85502 19.2H9.84502C7.13002 16.98 4.05302 14.468 2.69402 11.458C2.24754 10.4997 2.01093 9.45713 2.00001 8.4C1.99703 6.94949 2.57879 5.55899 3.61383 4.54277C4.64887 3.52655 6.04981 2.9704 7.50002 3C8.68065 3.00187 9.83586 3.34308 10.828 3.983C11.264 4.26597 11.6584 4.60826 12 5C12.3435 4.6098 12.7381 4.26771 13.173 3.983C14.1648 3.34296 15.3197 3.00172 16.5 3C17.9502 2.9704 19.3512 3.52655 20.3862 4.54277C21.4213 5.55899 22.003 6.94949 22 8.4C21.9898 9.45882 21.7532 10.5032 21.306 11.463C19.947 14.473 16.871 16.984 14.156 19.2L14.146 19.208C13.374 19.837 12.646 20.432 12.001 21.008L12 21ZM7.50002 5C6.56853 4.98835 5.67009 5.34485 5.00002 5.992C4.35441 6.62617 3.99358 7.49505 3.99994 8.4C4.01135 9.1705 4.18585 9.92985 4.51202 10.628C5.15353 11.9267 6.01913 13.1021 7.06902 14.1C8.06002 15.1 9.20002 16.068 10.186 16.882C10.459 17.107 10.737 17.334 11.015 17.561L11.19 17.704C11.457 17.922 11.733 18.148 12 18.37L12.013 18.358L12.019 18.353H12.025L12.034 18.346H12.039H12.044L12.062 18.331L12.103 18.298L12.11 18.292L12.121 18.284H12.127L12.136 18.276L12.8 17.731L12.974 17.588C13.255 17.359 13.533 17.132 13.806 16.907C14.792 16.093 15.933 15.126 16.924 14.121C17.9741 13.1236 18.8397 11.9485 19.481 10.65C19.8131 9.9458 19.9901 9.17851 20.0001 8.4C20.0042 7.49784 19.6435 6.6323 19 6C18.3312 5.34992 17.4326 4.99049 16.5 5C15.3619 4.99033 14.274 5.46737 13.51 6.311L12 8.051L10.49 6.311C9.72609 5.46737 8.6381 4.99033 7.50002 5Z" fill="currentColor"></path>
  </symbol>
  <symbol xmlns="http://www.w3.org/2000/svg" viewBox="0 0 24 24" id="ic_filter">
    <path d="M19 2H5C4.20435 2 3.44129 2.31607 2.87868 2.87868C2.31607 3.44129 2 4.20435 2 5V6.17C1.99986 6.58294 2.08497 6.99147 2.25 7.37V7.43C2.39128 7.75097 2.59139 8.04266 2.84 8.29L9 14.41V21C8.99966 21.1699 9.04264 21.3372 9.12487 21.4859C9.20711 21.6346 9.32589 21.7599 9.47 21.85C9.62914 21.9486 9.81277 22.0006 10 22C10.1565 21.9991 10.3107 21.9614 10.45 21.89L14.45 19.89C14.6149 19.8069 14.7536 19.6798 14.8507 19.5227C14.9478 19.3656 14.9994 19.1847 15 19V14.41L21.12 8.29C21.3686 8.04266 21.5687 7.75097 21.71 7.43V7.37C21.8888 6.99443 21.9876 6.58578 22 6.17V5C22 4.20435 21.6839 3.44129 21.1213 2.87868C20.5587 2.31607 19.7956 2 19 2ZM13.29 13.29C13.1973 13.3834 13.124 13.4943 13.0742 13.6161C13.0245 13.7379 12.9992 13.8684 13 14V18.38L11 19.38V14C11.0008 13.8684 10.9755 13.7379 10.9258 13.6161C10.876 13.4943 10.8027 13.3834 10.71 13.29L5.41 8H18.59L13.29 13.29ZM20 6H4V5C4 4.73478 4.10536 4.48043 4.29289 4.29289C4.48043 4.10536 4.73478 4 5 4H19C19.2652 4 19.5196 4.10536 19.7071 4.29289C19.8946 4.48043 20 4.73478 20 5V6Z" fill="currentColor"></path>
  </symbol>
  <symbol xmlns="http://www.w3.org/2000/svg" viewBox="0 0 20 20" id="ic_footer_links1">
    <path d="M15.8333 5.41659H13.3333V4.58325C13.3333 3.92021 13.0699 3.28433 12.6011 2.81549C12.1322 2.34664 11.4964 2.08325 10.8333 2.08325H9.16666C8.50362 2.08325 7.86773 2.34664 7.39889 2.81549C6.93005 3.28433 6.66666 3.92021 6.66666 4.58325V5.41659H4.16666C3.50362 5.41659 2.86773 5.67998 2.39889 6.14882C1.93005 6.61766 1.66666 7.25354 1.66666 7.91658V15.4166C1.66666 16.0796 1.93005 16.7155 2.39889 17.1844C2.86773 17.6532 3.50362 17.9166 4.16666 17.9166H15.8333C16.4964 17.9166 17.1322 17.6532 17.6011 17.1844C18.0699 16.7155 18.3333 16.0796 18.3333 15.4166V7.91658C18.3333 7.25354 18.0699 6.61766 17.6011 6.14882C17.1322 5.67998 16.4964 5.41659 15.8333 5.41659ZM8.33332 4.58325C8.33332 4.36224 8.42112 4.15028 8.5774 3.994C8.73368 3.83772 8.94564 3.74992 9.16666 3.74992H10.8333C11.0543 3.74992 11.2663 3.83772 11.4226 3.994C11.5789 4.15028 11.6667 4.36224 11.6667 4.58325V5.41659H8.33332V4.58325ZM16.6667 15.4166C16.6667 15.6376 16.5789 15.8496 16.4226 16.0058C16.2663 16.1621 16.0543 16.2499 15.8333 16.2499H4.16666C3.94564 16.2499 3.73368 16.1621 3.5774 16.0058C3.42112 15.8496 3.33332 15.6376 3.33332 15.4166V10.8333C4.14619 11.1557 4.98181 11.4175 5.83332 11.6166V12.1083C5.83332 12.3293 5.92112 12.5412 6.0774 12.6975C6.23368 12.8538 6.44564 12.9416 6.66666 12.9416C6.88767 12.9416 7.09963 12.8538 7.25591 12.6975C7.41219 12.5412 7.49999 12.3293 7.49999 12.1083V11.9333C8.32861 12.0461 9.16373 12.1045 9.99999 12.1083C10.8362 12.1045 11.6714 12.0461 12.5 11.9333V12.1083C12.5 12.3293 12.5878 12.5412 12.7441 12.6975C12.9003 12.8538 13.1123 12.9416 13.3333 12.9416C13.5543 12.9416 13.7663 12.8538 13.9226 12.6975C14.0789 12.5412 14.1667 12.3293 14.1667 12.1083V11.6166C15.0182 11.4175 15.8538 11.1557 16.6667 10.8333V15.4166ZM16.6667 9.00825C15.8562 9.35033 15.0203 9.62894 14.1667 9.84159V9.58325C14.1667 9.36224 14.0789 9.15028 13.9226 8.994C13.7663 8.83772 13.5543 8.74992 13.3333 8.74992C13.1123 8.74992 12.9003 8.83772 12.7441 8.994C12.5878 9.15028 12.5 9.36224 12.5 9.58325V10.1999C10.8427 10.4499 9.15728 10.4499 7.49999 10.1999V9.58325C7.49999 9.36224 7.41219 9.15028 7.25591 8.994C7.09963 8.83772 6.88767 8.74992 6.66666 8.74992C6.44564 8.74992 6.23368 8.83772 6.0774 8.994C5.92112 9.15028 5.83332 9.36224 5.83332 9.58325V9.85825C4.97967 9.64561 4.14383 9.367 3.33332 9.02492V7.91658C3.33332 7.69557 3.42112 7.48361 3.5774 7.32733C3.73368 7.17105 3.94564 7.08325 4.16666 7.08325H15.8333C16.0543 7.08325 16.2663 7.17105 16.4226 7.32733C16.5789 7.48361 16.6667 7.69557 16.6667 7.91658V9.00825Z" fill="currentColor"></path>
  </symbol>
  <symbol xmlns="http://www.w3.org/2000/svg" viewBox="0 0 20 20" id="ic_footer_links2">
    <path d="M15.7032 6.5625C15.5887 8.15117 14.4102 9.375 13.125 9.375C11.8399 9.375 10.6594 8.15156 10.5469 6.5625C10.4297 4.90977 11.577 3.75 13.125 3.75C14.6731 3.75 15.8204 4.93984 15.7032 6.5625Z" stroke="currentColor" stroke-width="2" stroke-linecap="round" stroke-linejoin="round" fill="none"></path>
    <path d="M13.125 11.875C10.5793 11.875 8.13122 13.1395 7.51794 15.602C7.43669 15.9277 7.64098 16.25 7.97575 16.25H18.2746C18.6093 16.25 18.8125 15.9277 18.7324 15.602C18.1191 13.1 15.6711 11.875 13.125 11.875Z" stroke="currentColor" stroke-width="2" stroke-miterlimit="10" fill="none"></path>
    <path d="M7.81246 7.26328C7.72106 8.53203 6.76871 9.53125 5.74215 9.53125C4.71559 9.53125 3.76168 8.53242 3.67184 7.26328C3.57848 5.94336 4.50543 5 5.74215 5C6.97887 5 7.90582 5.96758 7.81246 7.26328Z" stroke="currentColor" stroke-width="2" stroke-linecap="round" stroke-linejoin="round" fill="none"></path>
    <path d="M8.0469 11.9531C7.34182 11.6301 6.56526 11.5059 5.74221 11.5059C3.71096 11.5059 1.75393 12.5156 1.2637 14.4824C1.19924 14.7426 1.36252 15 1.62971 15H6.01565" stroke="currentColor" stroke-width="2" stroke-miterlimit="10" stroke-linecap="round" fill="none"></path>
  </symbol>
  <symbol xmlns="http://www.w3.org/2000/svg" viewBox="0 0 20 20" id="ic_footer_links3">
    <path d="M12.3417 10.2334C12.8691 9.66695 13.1663 8.92406 13.175 8.15008C13.175 7.31465 12.8431 6.51343 12.2524 5.9227C11.6616 5.33196 10.8604 5.00008 10.025 5.00008C9.18956 5.00008 8.38834 5.33196 7.7976 5.9227C7.20686 6.51343 6.87499 7.31465 6.87499 8.15008C6.88369 8.92406 7.18084 9.66695 7.70832 10.2334C6.97387 10.5991 6.34184 11.1417 5.86909 11.8123C5.39633 12.4829 5.09768 13.2604 4.99999 14.0751C4.97568 14.2961 5.04016 14.5177 5.17925 14.6912C5.31834 14.8647 5.52064 14.9758 5.74166 15.0001C5.96267 15.0244 6.18429 14.9599 6.35776 14.8208C6.53123 14.6817 6.64235 14.4794 6.66666 14.2584C6.7661 13.451 7.15736 12.7079 7.76673 12.169C8.3761 11.63 9.1615 11.3326 9.97499 11.3326C10.7885 11.3326 11.5739 11.63 12.1833 12.169C12.7926 12.7079 13.1839 13.451 13.2833 14.2584C13.3065 14.4721 13.4113 14.6686 13.5759 14.8068C13.7406 14.945 13.9522 15.0142 14.1667 15.0001H14.2583C14.4768 14.9749 14.6764 14.8645 14.8138 14.6928C14.9512 14.5211 15.0151 14.3021 14.9917 14.0834C14.9012 13.2731 14.612 12.4976 14.1497 11.826C13.6874 11.1543 13.0663 10.6072 12.3417 10.2334ZM9.99999 9.63342C9.70661 9.63342 9.41983 9.54642 9.17589 9.38343C8.93196 9.22044 8.74184 8.98877 8.62957 8.71773C8.5173 8.44669 8.48792 8.14844 8.54516 7.8607C8.60239 7.57296 8.74367 7.30865 8.95112 7.10121C9.15856 6.89376 9.42287 6.75249 9.71061 6.69525C9.99835 6.63802 10.2966 6.66739 10.5676 6.77966C10.8387 6.89193 11.0703 7.08205 11.2333 7.32599C11.3963 7.56992 11.4833 7.85671 11.4833 8.15008C11.4833 8.54349 11.327 8.92078 11.0489 9.19896C10.7707 9.47714 10.3934 9.63342 9.99999 9.63342ZM15.8333 1.66675H4.16666C3.50362 1.66675 2.86773 1.93014 2.39889 2.39898C1.93005 2.86782 1.66666 3.50371 1.66666 4.16675V15.8334C1.66666 16.4965 1.93005 17.1323 2.39889 17.6012C2.86773 18.07 3.50362 18.3334 4.16666 18.3334H15.8333C16.4964 18.3334 17.1322 18.07 17.6011 17.6012C18.0699 17.1323 18.3333 16.4965 18.3333 15.8334V4.16675C18.3333 3.50371 18.0699 2.86782 17.6011 2.39898C17.1322 1.93014 16.4964 1.66675 15.8333 1.66675ZM16.6667 15.8334C16.6667 16.0544 16.5789 16.2664 16.4226 16.4227C16.2663 16.579 16.0543 16.6667 15.8333 16.6667H4.16666C3.94564 16.6667 3.73368 16.579 3.5774 16.4227C3.42112 16.2664 3.33332 16.0544 3.33332 15.8334V4.16675C3.33332 3.94573 3.42112 3.73377 3.5774 3.57749C3.73368 3.42121 3.94564 3.33341 4.16666 3.33341H15.8333C16.0543 3.33341 16.2663 3.42121 16.4226 3.57749C16.5789 3.73377 16.6667 3.94573 16.6667 4.16675V15.8334Z" fill="currentColor"></path>
  </symbol>
  <symbol xmlns="http://www.w3.org/2000/svg" viewBox="0 0 20 20" id="ic_footer_links4">
    <path d="M5.83331 5.00009C5.66849 5.00009 5.50737 5.04897 5.37033 5.14054C5.23329 5.2321 5.12648 5.36225 5.06341 5.51453C5.00033 5.6668 4.98383 5.83435 5.01599 5.996C5.04814 6.15765 5.12751 6.30614 5.24405 6.42268C5.36059 6.53923 5.50908 6.61859 5.67073 6.65075C5.83238 6.6829 5.99994 6.6664 6.15221 6.60333C6.30448 6.54025 6.43463 6.43344 6.5262 6.2964C6.61777 6.15936 6.66664 5.99825 6.66664 5.83343C6.66664 5.61241 6.57884 5.40045 6.42256 5.24417C6.26628 5.08789 6.05432 5.00009 5.83331 5.00009ZM18.0916 9.81676L10.1916 1.93343C10.1139 1.84965 10.0198 1.78274 9.91519 1.73687C9.81054 1.69099 9.69757 1.66713 9.58331 1.66676H4.58331C4.47363 1.66613 4.36492 1.68715 4.26338 1.72862C4.16185 1.77009 4.06951 1.83119 3.99164 1.90843L1.90831 3.98343C1.83107 4.0613 1.76997 4.15364 1.7285 4.25517C1.68703 4.3567 1.66601 4.46542 1.66664 4.57509V9.57509C1.66971 9.79573 1.75603 10.0071 1.90831 10.1668L9.81664 18.0834C9.97633 18.2357 10.1877 18.322 10.4083 18.3251C10.518 18.3257 10.6267 18.3047 10.7282 18.2632C10.8298 18.2218 10.9221 18.1607 11 18.0834L18.0916 10.9918C18.1689 10.9139 18.23 10.8215 18.2715 10.72C18.3129 10.6185 18.3339 10.5098 18.3333 10.4001C18.3282 10.1823 18.242 9.97435 18.0916 9.81676ZM10.4083 16.3251L3.33331 9.24176V4.91676L4.91664 3.33343H9.23331L16.3166 10.4084L10.4083 16.3251Z" fill="currentColor"></path>
  </symbol>
  <symbol xmlns="http://www.w3.org/2000/svg" viewBox="0 0 24 24" id="ic_grid">
    <path fill-rule="evenodd" clip-rule="evenodd" d="M7 7C7 8.10457 6.10457 9 5 9C3.89543 9 3 8.10457 3 7C3 5.89543 3.89543 5 5 5C6.10457 5 7 5.89543 7 7ZM14 7C14 8.10457 13.1046 9 12 9C10.8954 9 10 8.10457 10 7C10 5.89543 10.8954 5 12 5C13.1046 5 14 5.89543 14 7ZM19 9C20.1046 9 21 8.10457 21 7C21 5.89543 20.1046 5 19 5C17.8954 5 17 5.89543 17 7C17 8.10457 17.8954 9 19 9ZM7 12C7 13.1046 6.10457 14 5 14C3.89543 14 3 13.1046 3 12C3 10.8954 3.89543 10 5 10C6.10457 10 7 10.8954 7 12ZM12 14C13.1046 14 14 13.1046 14 12C14 10.8954 13.1046 10 12 10C10.8954 10 10 10.8954 10 12C10 13.1046 10.8954 14 12 14ZM21 12C21 13.1046 20.1046 14 19 14C17.8954 14 17 13.1046 17 12C17 10.8954 17.8954 10 19 10C20.1046 10 21 10.8954 21 12ZM5 19C6.10457 19 7 18.1046 7 17C7 15.8954 6.10457 15 5 15C3.89543 15 3 15.8954 3 17C3 18.1046 3.89543 19 5 19ZM14 17C14 18.1046 13.1046 19 12 19C10.8954 19 10 18.1046 10 17C10 15.8954 10.8954 15 12 15C13.1046 15 14 15.8954 14 17ZM19 19C20.1046 19 21 18.1046 21 17C21 15.8954 20.1046 15 19 15C17.8954 15 17 15.8954 17 17C17 18.1046 17.8954 19 19 19Z" fill="currentColor"></path>
  </symbol>
  <symbol xmlns="http://www.w3.org/2000/svg" viewBox="0 0 24 24" id="ic_list">
    <path d="M3.71023 16.29C3.61513 16.199 3.50298 16.1276 3.38023 16.08C3.13677 15.98 2.86369 15.98 2.62023 16.08C2.49748 16.1276 2.38534 16.199 2.29023 16.29C2.19919 16.3851 2.12783 16.4972 2.08023 16.62C2.00365 16.8021 1.98273 17.0028 2.0201 17.1968C2.05748 17.3908 2.15147 17.5694 2.29023 17.71C2.38743 17.7983 2.49905 17.8694 2.62023 17.92C2.73993 17.9729 2.86936 18.0002 3.00023 18.0002C3.1311 18.0002 3.26053 17.9729 3.38023 17.92C3.50142 17.8694 3.61303 17.7983 3.71023 17.71C3.84899 17.5694 3.94299 17.3908 3.98036 17.1968C4.01773 17.0028 3.99681 16.8021 3.92023 16.62C3.87264 16.4972 3.80127 16.3851 3.71023 16.29ZM7.00023 8H21.0002C21.2654 8 21.5198 7.89464 21.7073 7.70711C21.8949 7.51957 22.0002 7.26522 22.0002 7C22.0002 6.73478 21.8949 6.48043 21.7073 6.29289C21.5198 6.10536 21.2654 6 21.0002 6H7.00023C6.73502 6 6.48066 6.10536 6.29313 6.29289C6.10559 6.48043 6.00023 6.73478 6.00023 7C6.00023 7.26522 6.10559 7.51957 6.29313 7.70711C6.48066 7.89464 6.73502 8 7.00023 8ZM3.71023 11.29C3.56961 11.1512 3.39104 11.0572 3.19705 11.0199C3.00306 10.9825 2.80234 11.0034 2.62023 11.08C2.49905 11.1306 2.38743 11.2017 2.29023 11.29C2.19919 11.3851 2.12783 11.4972 2.08023 11.62C2.02733 11.7397 2 11.8691 2 12C2 12.1309 2.02733 12.2603 2.08023 12.38C2.13087 12.5012 2.2019 12.6128 2.29023 12.71C2.38743 12.7983 2.49905 12.8694 2.62023 12.92C2.73993 12.9729 2.86936 13.0002 3.00023 13.0002C3.1311 13.0002 3.26053 12.9729 3.38023 12.92C3.50142 12.8694 3.61303 12.7983 3.71023 12.71C3.79856 12.6128 3.86959 12.5012 3.92023 12.38C3.97314 12.2603 4.00047 12.1309 4.00047 12C4.00047 11.8691 3.97314 11.7397 3.92023 11.62C3.87264 11.4972 3.80127 11.3851 3.71023 11.29ZM21.0002 11H7.00023C6.73502 11 6.48066 11.1054 6.29313 11.2929C6.10559 11.4804 6.00023 11.7348 6.00023 12C6.00023 12.2652 6.10559 12.5196 6.29313 12.7071C6.48066 12.8946 6.73502 13 7.00023 13H21.0002C21.2654 13 21.5198 12.8946 21.7073 12.7071C21.8949 12.5196 22.0002 12.2652 22.0002 12C22.0002 11.7348 21.8949 11.4804 21.7073 11.2929C21.5198 11.1054 21.2654 11 21.0002 11ZM3.71023 6.29C3.61513 6.19896 3.50298 6.12759 3.38023 6.08C3.19812 6.00342 2.99741 5.9825 2.80342 6.01987C2.60943 6.05725 2.43086 6.15124 2.29023 6.29C2.2019 6.3872 2.13087 6.49882 2.08023 6.62C2.02733 6.7397 2 6.86913 2 7C2 7.13087 2.02733 7.2603 2.08023 7.38C2.13087 7.50119 2.2019 7.6128 2.29023 7.71C2.38743 7.79833 2.49905 7.86936 2.62023 7.92C2.80234 7.99658 3.00306 8.0175 3.19705 7.98013C3.39104 7.94275 3.56961 7.84876 3.71023 7.71C3.79856 7.6128 3.86959 7.50119 3.92023 7.38C3.97314 7.2603 4.00047 7.13087 4.00047 7C4.00047 6.86913 3.97314 6.7397 3.92023 6.62C3.86959 6.49882 3.79856 6.3872 3.71023 6.29ZM21.0002 16H7.00023C6.73502 16 6.48066 16.1054 6.29313 16.2929C6.10559 16.4804 6.00023 16.7348 6.00023 17C6.00023 17.2652 6.10559 17.5196 6.29313 17.7071C6.48066 17.8946 6.73502 18 7.00023 18H21.0002C21.2654 18 21.5198 17.8946 21.7073 17.7071C21.8949 17.5196 22.0002 17.2652 22.0002 17C22.0002 16.7348 21.8949 16.4804 21.7073 16.2929C21.5198 16.1054 21.2654 16 21.0002 16Z" fill="currentColor"></path>
  </symbol>
  <symbol xmlns="http://www.w3.org/2000/svg" viewBox="0 0 16 16" id="ic_logout">
    <path d="M12.6667 14H3.33333C2.59695 14 2 13.403 2 12.6667V10H3.33333V12.6667H12.6667V3.33333H3.33333V6H2V3.33333C2 2.59695 2.59695 2 3.33333 2H12.6667C13.403 2 14 2.59695 14 3.33333V12.6667C14 13.403 13.403 14 12.6667 14ZM7.33333 10.6667V8.66667H2V7.33333H7.33333V5.33333L10.6667 8L7.33333 10.6667Z" fill="currentColor"></path>
  </symbol>
  <symbol xmlns="http://www.w3.org/2000/svg" viewBox="0 0 20 21" id="ic_menu">
    <path d="M2.49996 7.37693H17.5C17.721 7.37693 17.9329 7.28914 18.0892 7.13285C18.2455 6.97657 18.3333 6.76461 18.3333 6.5436C18.3333 6.32259 18.2455 6.11062 18.0892 5.95434C17.9329 5.79806 17.721 5.71027 17.5 5.71027H2.49996C2.27895 5.71027 2.06698 5.79806 1.9107 5.95434C1.75442 6.11062 1.66663 6.32259 1.66663 6.5436C1.66663 6.76461 1.75442 6.97657 1.9107 7.13285C2.06698 7.28914 2.27895 7.37693 2.49996 7.37693ZM17.5 14.0436H2.49996C2.27895 14.0436 2.06698 14.1314 1.9107 14.2877C1.75442 14.444 1.66663 14.6559 1.66663 14.8769C1.66663 15.0979 1.75442 15.3099 1.9107 15.4662C2.06698 15.6225 2.27895 15.7103 2.49996 15.7103H17.5C17.721 15.7103 17.9329 15.6225 18.0892 15.4662C18.2455 15.3099 18.3333 15.0979 18.3333 14.8769C18.3333 14.6559 18.2455 14.444 18.0892 14.2877C17.9329 14.1314 17.721 14.0436 17.5 14.0436ZM17.5 9.87693H2.49996C2.27895 9.87693 2.06698 9.96473 1.9107 10.121C1.75442 10.2773 1.66663 10.4893 1.66663 10.7103C1.66663 10.9313 1.75442 11.1432 1.9107 11.2995C2.06698 11.4558 2.27895 11.5436 2.49996 11.5436H17.5C17.721 11.5436 17.9329 11.4558 18.0892 11.2995C18.2455 11.1432 18.3333 10.9313 18.3333 10.7103C18.3333 10.4893 18.2455 10.2773 18.0892 10.121C17.9329 9.96473 17.721 9.87693 17.5 9.87693Z" fill="currentColor"></path>
  </symbol>
  <symbol xmlns="http://www.w3.org/2000/svg" viewBox="0 0 20 21" id="ic_menu1">
    <path d="M16.6667 7.37694L11.6667 2.9936C11.2083 2.58364 10.6149 2.35699 9.99999 2.35699C9.38504 2.35699 8.79167 2.58364 8.33332 2.9936L3.33332 7.37694C3.06863 7.61367 2.8574 7.90407 2.71371 8.22881C2.57002 8.55355 2.49716 8.90517 2.49999 9.26027V16.5436C2.49999 17.2066 2.76338 17.8425 3.23222 18.3114C3.70106 18.7802 4.33695 19.0436 4.99999 19.0436H15C15.663 19.0436 16.2989 18.7802 16.7678 18.3114C17.2366 17.8425 17.5 17.2066 17.5 16.5436V9.25194C17.5016 8.89824 17.4282 8.54822 17.2845 8.22501C17.1409 7.90179 16.9303 7.61273 16.6667 7.37694ZM11.6667 17.3769H8.33332V13.2103C8.33332 12.9893 8.42112 12.7773 8.5774 12.621C8.73368 12.4647 8.94564 12.3769 9.16665 12.3769H10.8333C11.0543 12.3769 11.2663 12.4647 11.4226 12.621C11.5789 12.7773 11.6667 12.9893 11.6667 13.2103V17.3769ZM15.8333 16.5436C15.8333 16.7646 15.7455 16.9766 15.5892 17.1329C15.433 17.2891 15.221 17.3769 15 17.3769H13.3333V13.2103C13.3333 12.5472 13.0699 11.9113 12.6011 11.4425C12.1322 10.9737 11.4964 10.7103 10.8333 10.7103H9.16665C8.50361 10.7103 7.86773 10.9737 7.39889 11.4425C6.93005 11.9113 6.66665 12.5472 6.66665 13.2103V17.3769H4.99999C4.77897 17.3769 4.56701 17.2891 4.41073 17.1329C4.25445 16.9766 4.16665 16.7646 4.16665 16.5436V9.25194C4.1668 9.13362 4.19215 9.01669 4.241 8.90892C4.28986 8.80116 4.3611 8.70503 4.44999 8.62694L9.44999 4.25194C9.60206 4.11834 9.79756 4.04466 9.99999 4.04466C10.2024 4.04466 10.3979 4.11834 10.55 4.25194L15.55 8.62694C15.6389 8.70503 15.7101 8.80116 15.759 8.90892C15.8078 9.01669 15.8332 9.13362 15.8333 9.25194V16.5436Z" fill="currentColor"></path>
  </symbol>
  <symbol xmlns="http://www.w3.org/2000/svg" viewBox="0 0 20 21" id="ic_menu2">
    <path d="M14.1667 19.0436H4.16667C3.50363 19.0436 2.86775 18.7802 2.3989 18.3114C1.93006 17.8425 1.66667 17.2066 1.66667 16.5436V8.21027C1.66667 7.54723 1.93006 6.91134 2.3989 6.4425C2.86775 5.97366 3.50363 5.71027 4.16667 5.71027H5.00001C5.01402 5.00413 5.25196 4.3207 5.67952 3.75854C6.10707 3.19638 6.70213 2.78456 7.37887 2.58246C8.05561 2.38037 8.77906 2.39845 9.44486 2.6341C10.1107 2.86975 10.6844 3.31079 11.0833 3.8936C11.457 4.42622 11.6604 5.05965 11.6667 5.71027H14.1667C14.3877 5.71027 14.5996 5.79807 14.7559 5.95435C14.9122 6.11063 15 6.32259 15 6.5436V9.0436C15.7061 9.05762 16.3896 9.29556 16.9517 9.72311C17.5139 10.1507 17.9257 10.7457 18.1278 11.4225C18.3299 12.0992 18.3118 12.8227 18.0762 13.4885C17.8405 14.1543 17.3995 14.728 16.8167 15.1269C16.284 15.5006 15.6506 15.704 15 15.7103V18.2103C15 18.4313 14.9122 18.6432 14.7559 18.7995C14.5996 18.9558 14.3877 19.0436 14.1667 19.0436ZM4.16667 7.37693C3.94566 7.37693 3.7337 7.46473 3.57742 7.62101C3.42114 7.77729 3.33334 7.98925 3.33334 8.21027V16.5436C3.33334 16.7646 3.42114 16.9766 3.57742 17.1329C3.7337 17.2891 3.94566 17.3769 4.16667 17.3769H13.3333V14.7269C13.3326 14.5933 13.364 14.4615 13.425 14.3426C13.4859 14.2236 13.5745 14.1211 13.6833 14.0436C13.7919 13.9662 13.9174 13.916 14.0493 13.8971C14.1813 13.8783 14.3158 13.8914 14.4417 13.9353C14.6792 14.0322 14.9378 14.0654 15.1921 14.0318C15.4464 13.9982 15.6875 13.8989 15.8917 13.7436C16.0949 13.6197 16.2692 13.4537 16.4029 13.2567C16.5366 13.0598 16.6265 12.8365 16.6667 12.6019C16.6988 12.3653 16.6797 12.1246 16.6107 11.896C16.5417 11.6673 16.4244 11.4562 16.2667 11.2769C16.0534 11.0179 15.7629 10.8337 15.4377 10.7512C15.1124 10.6688 14.7693 10.6924 14.4583 10.8186C14.3325 10.8625 14.1979 10.8756 14.066 10.8567C13.934 10.8379 13.8085 10.7877 13.7 10.7103C13.5912 10.6328 13.5025 10.5302 13.4416 10.4113C13.3807 10.2924 13.3493 10.1606 13.35 10.0269V7.37693H10.6833C10.5464 7.3847 10.4096 7.35853 10.2852 7.30075C10.1608 7.24298 10.0526 7.15538 9.97012 7.04574C9.88768 6.93609 9.83359 6.8078 9.81263 6.67223C9.79168 6.53666 9.80452 6.39802 9.85001 6.2686C9.94689 6.03111 9.98017 5.77245 9.94656 5.51817C9.91294 5.26389 9.8136 5.02276 9.65834 4.8186C9.5353 4.60957 9.3668 4.43091 9.16534 4.29585C8.96387 4.16078 8.73459 4.07279 8.49449 4.03837C8.25439 4.00396 8.00963 4.02401 7.77833 4.09704C7.54704 4.17007 7.33514 4.29422 7.15834 4.46027C6.99415 4.62311 6.86565 4.81834 6.781 5.03354C6.69636 5.24874 6.65742 5.4792 6.66667 5.71027C6.6686 5.90141 6.70531 6.09061 6.77501 6.2686C6.81906 6.39462 6.8322 6.52937 6.81331 6.66152C6.79442 6.79367 6.74406 6.91935 6.66647 7.02798C6.58888 7.13661 6.48633 7.22501 6.36744 7.28573C6.24856 7.34646 6.11683 7.37774 5.98334 7.37693H4.16667Z" fill="currentColor"></path>
  </symbol>
  <symbol xmlns="http://www.w3.org/2000/svg" viewBox="0 0 20 21" id="ic_menu3">
    <path d="M15.8333 2.37692H4.16667C3.72464 2.37692 3.30072 2.55252 2.98816 2.86508C2.67559 3.17764 2.5 3.60156 2.5 4.04359V5.71026C2.5 6.15228 2.67559 6.57621 2.98816 6.88877C3.30072 7.20133 3.72464 7.37692 4.16667 7.37692V16.5436C4.16667 17.2066 4.43006 17.8425 4.8989 18.3114C5.36774 18.7802 6.00363 19.0436 6.66667 19.0436H13.3333C13.9964 19.0436 14.6323 18.7802 15.1011 18.3114C15.5699 17.8425 15.8333 17.2066 15.8333 16.5436V7.37692C16.2754 7.37692 16.6993 7.20133 17.0118 6.88877C17.3244 6.57621 17.5 6.15228 17.5 5.71026V4.04359C17.5 3.60156 17.3244 3.17764 17.0118 2.86508C16.6993 2.55252 16.2754 2.37692 15.8333 2.37692ZM14.1667 14.0436H9.16667V10.7103H14.1667V14.0436ZM14.1667 9.04359H8.33333C8.11232 9.04359 7.90036 9.13139 7.74408 9.28767C7.5878 9.44395 7.5 9.65591 7.5 9.87692V14.8769C7.5 15.0979 7.5878 15.3099 7.74408 15.4662C7.90036 15.6225 8.11232 15.7103 8.33333 15.7103H14.1667V16.5436C14.1667 16.7646 14.0789 16.9766 13.9226 17.1328C13.7663 17.2891 13.5543 17.3769 13.3333 17.3769H6.66667C6.44565 17.3769 6.23369 17.2891 6.07741 17.1328C5.92113 16.9766 5.83333 16.7646 5.83333 16.5436V7.37692H14.1667V9.04359ZM4.16667 5.71026V4.04359H15.8333V5.71026H4.16667Z" fill="currentColor"></path>
  </symbol>
  <symbol xmlns="http://www.w3.org/2000/svg" viewBox="0 0 20 21" id="ic_menu4">
    <path d="M10.5917 15.1186C10.5507 15.0809 10.506 15.0474 10.4583 15.0186C10.4158 14.9856 10.3679 14.9602 10.3167 14.9436C10.267 14.9182 10.2135 14.9013 10.1583 14.8936C9.99868 14.8599 9.83245 14.8774 9.68333 14.9436C9.57992 14.981 9.486 15.0407 9.40824 15.1185C9.33047 15.1963 9.27076 15.2902 9.23333 15.3936C9.18668 15.4925 9.16385 15.601 9.16667 15.7103C9.16534 15.8186 9.18515 15.9262 9.225 16.0269C9.27332 16.1265 9.335 16.219 9.40833 16.3019C9.4862 16.3792 9.57855 16.4403 9.68008 16.4818C9.78161 16.5232 9.89033 16.5442 10 16.5436C10.1093 16.5464 10.2178 16.5236 10.3167 16.4769C10.4177 16.4347 10.5107 16.3756 10.5917 16.3019C10.6689 16.2241 10.73 16.1317 10.7715 16.0302C10.8129 15.9287 10.834 15.8199 10.8333 15.7103C10.832 15.6014 10.8094 15.4938 10.7667 15.3936C10.727 15.2913 10.6675 15.1979 10.5917 15.1186ZM7.125 11.6853C7.08246 11.6523 7.03453 11.6269 6.98333 11.6103C6.9348 11.5791 6.88123 11.5565 6.825 11.5436C6.7181 11.5187 6.6069 11.5187 6.5 11.5436L6.35 11.5936L6.2 11.6686L6.075 11.7686C5.91877 11.9325 5.83215 12.1505 5.83333 12.3769C5.8327 12.4866 5.85372 12.5953 5.89519 12.6969C5.93666 12.7984 5.99777 12.8907 6.075 12.9686C6.156 13.0422 6.24901 13.1014 6.35 13.1436C6.47625 13.1955 6.6133 13.2155 6.74912 13.202C6.88494 13.1885 7.01536 13.1419 7.12893 13.0662C7.24249 12.9905 7.33572 12.888 7.40042 12.7678C7.46513 12.6477 7.49932 12.5134 7.5 12.3769C7.49693 12.1563 7.41061 11.945 7.25833 11.7853L7.125 11.6853ZM7.25833 15.1186C7.17908 15.0427 7.08563 14.9833 6.98333 14.9436C6.83248 14.8737 6.66415 14.8504 6.5 14.8769L6.35 14.9269C6.2969 14.9452 6.24645 14.9704 6.2 15.0019C6.15634 15.0327 6.1146 15.0661 6.075 15.1019C5.99913 15.1812 5.93966 15.2746 5.9 15.3769C5.85591 15.4767 5.83314 15.5845 5.83314 15.6936C5.83314 15.8027 5.85591 15.9105 5.9 16.0103C5.9422 16.1113 6.00139 16.2043 6.075 16.2853C6.15148 16.3655 6.2432 16.4297 6.3448 16.4741C6.4464 16.5184 6.55582 16.5421 6.66667 16.5436C6.77598 16.5464 6.88443 16.5236 6.98333 16.4769C7.08432 16.4347 7.17733 16.3756 7.25833 16.3019C7.33194 16.2209 7.39113 16.1279 7.43333 16.0269C7.47742 15.9272 7.50019 15.8193 7.50019 15.7103C7.50019 15.6012 7.47742 15.4934 7.43333 15.3936C7.39367 15.2913 7.3342 15.1979 7.25833 15.1186ZM9.68333 11.6103C9.58104 11.6499 9.48759 11.7094 9.40833 11.7853C9.25605 11.945 9.16974 12.1563 9.16667 12.3769C9.16735 12.5134 9.20154 12.6477 9.26624 12.7678C9.33094 12.888 9.42417 12.9905 9.53774 13.0662C9.6513 13.1419 9.78173 13.1885 9.91754 13.202C10.0534 13.2155 10.1904 13.1955 10.3167 13.1436C10.4177 13.1014 10.5107 13.0422 10.5917 12.9686C10.6689 12.8907 10.73 12.7984 10.7715 12.6969C10.8129 12.5953 10.834 12.4866 10.8333 12.3769C10.8303 12.1563 10.7439 11.945 10.5917 11.7853C10.4745 11.6696 10.3257 11.5913 10.164 11.5602C10.0024 11.529 9.83509 11.5465 9.68333 11.6103ZM13.925 15.1186C13.844 15.045 13.751 14.9858 13.65 14.9436C13.4982 14.8798 13.331 14.8624 13.1693 14.8935C13.0077 14.9246 12.8589 15.003 12.7417 15.1186C12.6658 15.1979 12.6063 15.2913 12.5667 15.3936C12.5226 15.4934 12.4998 15.6012 12.4998 15.7103C12.4998 15.8193 12.5226 15.9272 12.5667 16.0269C12.6089 16.1279 12.6681 16.2209 12.7417 16.3019C12.8195 16.3792 12.9119 16.4403 13.0134 16.4818C13.1149 16.5232 13.2237 16.5442 13.3333 16.5436C13.4426 16.5464 13.5511 16.5236 13.65 16.4769C13.751 16.4347 13.844 16.3756 13.925 16.3019C14.0406 16.1848 14.119 16.0359 14.1501 15.8743C14.1813 15.7126 14.1638 15.5454 14.1 15.3936C14.0603 15.2913 14.0009 15.1979 13.925 15.1186ZM13.3333 4.87694H6.66667C6.44565 4.87694 6.23369 4.96474 6.07741 5.12102C5.92113 5.2773 5.83333 5.48926 5.83333 5.71028V9.04361C5.83333 9.26462 5.92113 9.47658 6.07741 9.63286C6.23369 9.78914 6.44565 9.87694 6.66667 9.87694H13.3333C13.5543 9.87694 13.7663 9.78914 13.9226 9.63286C14.0789 9.47658 14.1667 9.26462 14.1667 9.04361V5.71028C14.1667 5.48926 14.0789 5.2773 13.9226 5.12102C13.7663 4.96474 13.5543 4.87694 13.3333 4.87694ZM12.5 8.21028H7.5V6.54361H12.5V8.21028ZM15 1.54361H5C4.33696 1.54361 3.70107 1.807 3.23223 2.27584C2.76339 2.74468 2.5 3.38057 2.5 4.04361V17.3769C2.5 18.04 2.76339 18.6759 3.23223 19.1447C3.70107 19.6136 4.33696 19.8769 5 19.8769H15C15.663 19.8769 16.2989 19.6136 16.7678 19.1447C17.2366 18.6759 17.5 18.04 17.5 17.3769V4.04361C17.5 3.38057 17.2366 2.74468 16.7678 2.27584C16.2989 1.807 15.663 1.54361 15 1.54361ZM15.8333 17.3769C15.8333 17.598 15.7455 17.8099 15.5893 17.9662C15.433 18.1225 15.221 18.2103 15 18.2103H5C4.77899 18.2103 4.56702 18.1225 4.41074 17.9662C4.25446 17.8099 4.16667 17.598 4.16667 17.3769V4.04361C4.16667 3.8226 4.25446 3.61063 4.41074 3.45435C4.56702 3.29807 4.77899 3.21028 5 3.21028H15C15.221 3.21028 15.433 3.29807 15.5893 3.45435C15.7455 3.61063 15.8333 3.8226 15.8333 4.04361V17.3769ZM13.7917 11.6853C13.7491 11.6523 13.7012 11.6269 13.65 11.6103C13.6004 11.5849 13.5469 11.568 13.4917 11.5603C13.3848 11.5354 13.2736 11.5354 13.1667 11.5603L13.0167 11.6103L12.8667 11.6853L12.7417 11.7853C12.5894 11.945 12.5031 12.1563 12.5 12.3769C12.5007 12.5134 12.5349 12.6477 12.5996 12.7678C12.6643 12.888 12.7575 12.9905 12.8711 13.0662C12.9846 13.1419 13.1151 13.1885 13.2509 13.202C13.3867 13.2155 13.5238 13.1955 13.65 13.1436C13.751 13.1014 13.844 13.0422 13.925 12.9686C14.0022 12.8907 14.0633 12.7984 14.1048 12.6969C14.1463 12.5953 14.1673 12.4866 14.1667 12.3769C14.1636 12.1563 14.0773 11.945 13.925 11.7853L13.7917 11.6853Z" fill="currentColor"></path>
  </symbol>
  <symbol xmlns="http://www.w3.org/2000/svg" viewBox="0 0 20 21" id="ic_menu5">
    <path d="M17.6417 2.42692C17.0443 2.32403 16.4395 2.27107 15.8333 2.26859C13.7653 2.26689 11.7404 2.8599 10 3.97692C8.25512 2.87457 6.23054 2.29611 4.16667 2.31026C3.56054 2.31274 2.95567 2.3657 2.35833 2.46859C2.16267 2.50232 1.98548 2.6048 1.85868 2.75758C1.73187 2.91036 1.66378 3.1034 1.66667 3.30192V13.3019C1.66488 13.4244 1.6901 13.5457 1.74054 13.6573C1.79098 13.7689 1.86539 13.868 1.95848 13.9475C2.05157 14.0271 2.16105 14.0852 2.27913 14.1176C2.39721 14.1501 2.52099 14.1561 2.64167 14.1353C3.83585 13.9285 5.05933 13.9628 6.24005 14.2362C7.42077 14.5095 8.53485 15.0164 9.51667 15.7269L9.61667 15.7853H9.70833C9.80075 15.8238 9.89988 15.8436 10 15.8436C10.1001 15.8436 10.1992 15.8238 10.2917 15.7853H10.3833L10.4833 15.7269C11.4583 15.0005 12.5692 14.4772 13.7501 14.188C14.9311 13.8989 16.158 13.8498 17.3583 14.0436C17.479 14.0644 17.6028 14.0584 17.7209 14.026C17.839 13.9935 17.9484 13.9354 18.0415 13.8559C18.1346 13.7763 18.209 13.6772 18.2595 13.5656C18.3099 13.454 18.3351 13.3327 18.3333 13.2103V3.21026C18.3247 3.02038 18.2513 2.83918 18.1255 2.6967C17.9997 2.55423 17.829 2.45904 17.6417 2.42692ZM9.16667 13.5019C7.6249 12.6908 5.90876 12.2675 4.16667 12.2686C3.89167 12.2686 3.61667 12.2686 3.33333 12.2686V3.93526C3.61088 3.91926 3.88912 3.91926 4.16667 3.93526C5.94449 3.93329 7.68351 4.455 9.16667 5.43526V13.5019ZM16.6667 12.3019C16.3833 12.3019 16.1083 12.3019 15.8333 12.3019C14.0912 12.3008 12.3751 12.7242 10.8333 13.5353V5.43526C12.3165 4.455 14.0555 3.93329 15.8333 3.93526C16.1109 3.91926 16.3891 3.91926 16.6667 3.93526V12.3019ZM17.6417 15.7603C17.0443 15.6574 16.4395 15.6044 15.8333 15.6019C13.7653 15.6002 11.7404 16.1932 10 17.3103C8.2596 16.1932 6.2347 15.6002 4.16667 15.6019C3.56054 15.6044 2.95567 15.6574 2.35833 15.7603C2.24986 15.7775 2.14585 15.816 2.0523 15.8735C1.95875 15.9311 1.8775 16.0065 1.81322 16.0956C1.74894 16.1847 1.7029 16.2855 1.67775 16.3925C1.6526 16.4994 1.64883 16.6102 1.66667 16.7186C1.70901 16.935 1.83541 17.1258 2.01816 17.2492C2.20091 17.3726 2.42512 17.4185 2.64167 17.3769C3.83585 17.1702 5.05933 17.2045 6.24005 17.4778C7.42077 17.7512 8.53485 18.258 9.51667 18.9686C9.6578 19.0691 9.82675 19.1231 10 19.1231C10.1733 19.1231 10.3422 19.0691 10.4833 18.9686C11.4651 18.258 12.5792 17.7512 13.7599 17.4778C14.9407 17.2045 16.1642 17.1702 17.3583 17.3769C17.5749 17.4185 17.7991 17.3726 17.9818 17.2492C18.1646 17.1258 18.291 16.935 18.3333 16.7186C18.3512 16.6102 18.3474 16.4994 18.3222 16.3925C18.2971 16.2855 18.2511 16.1847 18.1868 16.0956C18.1225 16.0065 18.0412 15.9311 17.9477 15.8735C17.8541 15.816 17.7501 15.7775 17.6417 15.7603Z" fill="currentColor"></path>
  </symbol>
  <symbol xmlns="http://www.w3.org/2000/svg" viewBox="0 0 20 20" id="ic_minus">
    <path d="M15.8334 9.16667H4.16671C3.94569 9.16667 3.73373 9.25447 3.57745 9.41075C3.42117 9.56703 3.33337 9.77899 3.33337 10C3.33337 10.221 3.42117 10.433 3.57745 10.5893C3.73373 10.7455 3.94569 10.8333 4.16671 10.8333H15.8334C16.0544 10.8333 16.2663 10.7455 16.4226 10.5893C16.5789 10.433 16.6667 10.221 16.6667 10C16.6667 9.77899 16.5789 9.56703 16.4226 9.41075C16.2663 9.25447 16.0544 9.16667 15.8334 9.16667Z" fill="currentColor"></path>
  </symbol>
  <symbol xmlns="http://www.w3.org/2000/svg" viewBox="0 0 26 27" id="ic_notifications">
    <path d="M19.5 14.6335V11.1885C19.4985 9.65357 18.9538 8.16869 17.9624 6.99686C16.971 5.82502 15.5969 5.04184 14.0834 4.78602V3.60518C14.0834 3.31787 13.9692 3.04232 13.7661 2.83915C13.5629 2.63599 13.2874 2.52185 13 2.52185C12.7127 2.52185 12.4372 2.63599 12.234 2.83915C12.0308 3.04232 11.9167 3.31787 11.9167 3.60518V4.78602C10.4032 5.04184 9.02911 5.82502 8.03771 6.99686C7.04631 8.16869 6.5016 9.65357 6.50004 11.1885V14.6335C5.86786 14.857 5.32029 15.2706 4.93239 15.8175C4.54449 16.3645 4.33526 17.018 4.33337 17.6885V19.8552C4.33337 20.1425 4.44751 20.4181 4.65068 20.6212C4.85384 20.8244 5.12939 20.9385 5.41671 20.9385H8.81837C9.06785 21.8565 9.61246 22.6669 10.3682 23.2446C11.1239 23.8224 12.0488 24.1354 13 24.1354C13.9513 24.1354 14.8762 23.8224 15.6319 23.2446C16.3876 22.6669 16.9322 21.8565 17.1817 20.9385H20.5834C20.8707 20.9385 21.1462 20.8244 21.3494 20.6212C21.5526 20.4181 21.6667 20.1425 21.6667 19.8552V17.6885C21.6648 17.018 21.4556 16.3645 21.0677 15.8175C20.6798 15.2706 20.1322 14.857 19.5 14.6335ZM8.66671 11.1885C8.66671 10.0392 9.12325 8.93705 9.93591 8.12439C10.7486 7.31173 11.8508 6.85518 13 6.85518C14.1493 6.85518 15.2515 7.31173 16.0642 8.12439C16.8768 8.93705 17.3334 10.0392 17.3334 11.1885V14.4385H8.66671V11.1885ZM13 22.0219C12.6219 22.0196 12.251 21.9184 11.9241 21.7283C11.5972 21.5383 11.3258 21.266 11.1367 20.9385H14.8634C14.6743 21.266 14.4029 21.5383 14.076 21.7283C13.7491 21.9184 13.3782 22.0196 13 22.0219ZM19.5 18.7719H6.50004V17.6885C6.50004 17.4012 6.61418 17.1257 6.81734 16.9225C7.02051 16.7193 7.29606 16.6052 7.58337 16.6052H18.4167C18.704 16.6052 18.9796 16.7193 19.1827 16.9225C19.3859 17.1257 19.5 17.4012 19.5 17.6885V18.7719Z" fill="currentColor"></path>
  </symbol>
  <symbol xmlns="http://www.w3.org/2000/svg" viewBox="0 0 20 21" id="ic_phone">
    <path d="M16.2 11.5435C16.0166 11.5435 15.825 11.4852 15.6416 11.4435C15.2704 11.3617 14.9055 11.2531 14.55 11.1185C14.1634 10.9779 13.7384 10.9852 13.3569 11.139C12.9754 11.2929 12.6642 11.5824 12.4833 11.9518L12.3 12.3268C11.4883 11.8753 10.7425 11.3145 10.0833 10.6602C9.42895 10.001 8.86816 9.25517 8.41664 8.44351L8.76664 8.21018C9.13612 8.02927 9.42563 7.71812 9.57947 7.33659C9.73332 6.95505 9.74062 6.5301 9.59998 6.14351C9.46766 5.78719 9.35909 5.42251 9.27498 5.05184C9.23331 4.86851 9.19998 4.67684 9.17498 4.48518C9.07378 3.89819 8.76633 3.36663 8.30799 2.98621C7.84966 2.60579 7.27056 2.40152 6.67498 2.41018H4.17498C3.81584 2.4068 3.46019 2.48085 3.13224 2.62729C2.80429 2.77372 2.51174 2.98909 2.2745 3.25874C2.03727 3.5284 1.86092 3.846 1.75747 4.18994C1.65401 4.53387 1.62588 4.89606 1.67498 5.25184C2.11893 8.74299 3.71333 11.9867 6.20635 14.4707C8.69937 16.9547 11.9489 18.5373 15.4416 18.9685H15.7583C16.3728 18.9694 16.9661 18.744 17.425 18.3352C17.6886 18.0994 17.8992 17.8103 18.0429 17.4871C18.1865 17.1639 18.2599 16.8139 18.2583 16.4602V13.9602C18.2481 13.3813 18.0373 12.824 17.6619 12.3832C17.2865 11.9425 16.7698 11.6457 16.2 11.5435ZM16.6166 16.5435C16.6165 16.6618 16.5911 16.7788 16.5423 16.8865C16.4934 16.9943 16.4222 17.0904 16.3333 17.1685C16.2402 17.2489 16.1313 17.309 16.0136 17.3448C15.896 17.3807 15.7721 17.3916 15.65 17.3768C12.5291 16.9767 9.63017 15.5489 7.41057 13.3188C5.19097 11.0886 3.77699 8.18296 3.39164 5.06018C3.37838 4.93811 3.39 4.81462 3.42581 4.69717C3.46162 4.57972 3.52087 4.47075 3.59998 4.37684C3.67807 4.28795 3.77419 4.21671 3.88196 4.16786C3.98972 4.119 4.10666 4.09366 4.22498 4.09351H6.72498C6.91877 4.0892 7.108 4.15258 7.2601 4.27274C7.4122 4.39289 7.51765 4.56232 7.55831 4.75184C7.59164 4.97962 7.63331 5.20462 7.68331 5.42684C7.77958 5.86613 7.90769 6.29783 8.06664 6.71851L6.89998 7.26018C6.80022 7.30594 6.7105 7.37097 6.63594 7.45151C6.56139 7.53205 6.50348 7.62652 6.46554 7.72951C6.4276 7.83249 6.41037 7.94195 6.41485 8.05161C6.41933 8.16127 6.44543 8.26896 6.49164 8.36851C7.69098 10.9375 9.75601 13.0025 12.325 14.2018C12.5279 14.2852 12.7554 14.2852 12.9583 14.2018C13.0622 14.1647 13.1577 14.1072 13.2393 14.0328C13.3208 13.9584 13.3868 13.8686 13.4333 13.7685L13.95 12.6018C14.3808 12.7559 14.8205 12.8839 15.2666 12.9852C15.4889 13.0352 15.7139 13.0768 15.9416 13.1102C16.1312 13.1508 16.3006 13.2563 16.4208 13.4084C16.5409 13.5605 16.6043 13.7497 16.6 13.9435L16.6166 16.5435Z" fill="currentColor"></path>
  </symbol>
  <symbol xmlns="http://www.w3.org/2000/svg" viewBox="0 0 14 15" id="ic_pin">
    <path fill-rule="evenodd" clip-rule="evenodd" d="M9.33332 5.46016V2.5435H9.91666C10.2375 2.5435 10.5 2.281 10.5 1.96016C10.5 1.63933 10.2375 1.37683 9.91666 1.37683H4.08332C3.76249 1.37683 3.49999 1.63933 3.49999 1.96016C3.49999 2.281 3.76249 2.5435 4.08332 2.5435H4.66666V5.46016C4.66666 6.4285 3.88499 7.21017 2.91666 7.21017V8.37683H6.39916V12.4602L6.98249 13.0435L7.56582 12.4602V8.37683H11.0833V7.21017C10.115 7.21017 9.33332 6.4285 9.33332 5.46016Z" fill="currentColor"></path>
  </symbol>
  <symbol xmlns="http://www.w3.org/2000/svg" viewBox="0 0 20 20" id="ic_plus">
    <path d="M15.8334 9.16666H10.8334V4.16666C10.8334 3.94565 10.7456 3.73369 10.5893 3.57741C10.433 3.42113 10.2211 3.33333 10 3.33333C9.77903 3.33333 9.56706 3.42113 9.41078 3.57741C9.2545 3.73369 9.16671 3.94565 9.16671 4.16666V9.16666H4.16671C3.94569 9.16666 3.73373 9.25446 3.57745 9.41074C3.42117 9.56702 3.33337 9.77898 3.33337 9.99999C3.33337 10.221 3.42117 10.433 3.57745 10.5892C3.73373 10.7455 3.94569 10.8333 4.16671 10.8333H9.16671V15.8333C9.16671 16.0543 9.2545 16.2663 9.41078 16.4226C9.56706 16.5789 9.77903 16.6667 10 16.6667C10.2211 16.6667 10.433 16.5789 10.5893 16.4226C10.7456 16.2663 10.8334 16.0543 10.8334 15.8333V10.8333H15.8334C16.0544 10.8333 16.2663 10.7455 16.4226 10.5892C16.5789 10.433 16.6667 10.221 16.6667 9.99999C16.6667 9.77898 16.5789 9.56702 16.4226 9.41074C16.2663 9.25446 16.0544 9.16666 15.8334 9.16666Z" fill="currentColor"></path>
  </symbol>
  <symbol xmlns="http://www.w3.org/2000/svg" viewBox="0 0 63 63" id="ic_quote">
    <path d="M24.5959 0.781647C7.11986 4.25019 0 15.0893 0 33.7327V62.7816H24.5959V34.1663H13.8082V31.5649C13.8082 21.8096 17.2603 15.3061 24.5959 13.3551V0.781647ZM63 0.781647C46.1712 4.03339 38.4041 14.2222 38.4041 33.7327V62.7816H63V34.1663H52.2123V31.5649C52.2123 21.3761 55.8801 15.5229 63 13.3551V0.781647Z" fill="currentColor"></path>
  </symbol>
  <symbol xmlns="http://www.w3.org/2000/svg" viewBox="0 0 20 21" id="ic_search">
    <path d="M18.0918 17.2635L15.0001 14.1969C16.2002 12.7005 16.7814 10.8013 16.6241 8.88962C16.4669 6.97796 15.5832 5.19919 14.1547 3.91908C12.7262 2.63896 10.8616 1.9548 8.94421 2.00726C7.0268 2.05973 5.20237 2.84484 3.84606 4.20116C2.48974 5.55747 1.70463 7.38191 1.65216 9.29931C1.5997 11.2167 2.28386 13.0813 3.56397 14.5098C4.84409 15.9383 6.62285 16.822 8.53452 16.9792C10.4462 17.1365 12.3454 16.5553 13.8418 15.3552L16.9084 18.4219C16.9859 18.5 17.0781 18.562 17.1796 18.6043C17.2812 18.6466 17.3901 18.6684 17.5001 18.6684C17.6101 18.6684 17.719 18.6466 17.8206 18.6043C17.9221 18.562 18.0143 18.5 18.0918 18.4219C18.242 18.2665 18.3259 18.0588 18.3259 17.8427C18.3259 17.6266 18.242 17.4189 18.0918 17.2635ZM9.16677 15.3552C8.01305 15.3552 6.88523 15.0131 5.92594 14.3721C4.96666 13.7311 4.21898 12.8201 3.77747 11.7542C3.33596 10.6883 3.22044 9.5154 3.44552 8.38385C3.6706 7.25229 4.22617 6.21289 5.04198 5.39708C5.85779 4.58128 6.89719 4.02571 8.02874 3.80063C9.1603 3.57554 10.3332 3.69106 11.3991 4.13258C12.465 4.57409 13.376 5.32176 14.017 6.28105C14.658 7.24033 15.0001 8.36815 15.0001 9.52187C15.0001 11.069 14.3855 12.5527 13.2916 13.6467C12.1976 14.7406 10.7139 15.3552 9.16677 15.3552Z" fill="currentColor"></path>
  </symbol>
  <symbol xmlns="http://www.w3.org/2000/svg" viewBox="0 0 24 24" id="ic_share">
    <path d="M17.5013 22C16.4193 22.0125 15.3937 21.5181 14.7296 20.6637C14.0654 19.8094 13.8393 18.6935 14.1183 17.648L7.85831 14.07C6.7766 15.061 5.19099 15.2708 3.8888 14.5951C2.5866 13.9194 1.84519 12.5022 2.03268 11.0472C2.22017 9.59218 3.29664 8.40924 4.72759 8.08574C6.15854 7.76225 7.63917 8.36712 8.43431 9.6L14.1173 6.351C14.0438 6.07318 14.0048 5.78736 14.0013 5.5C13.987 3.82671 15.1491 2.37314 16.7845 2.01882C18.4199 1.6645 20.0795 2.50674 20.759 4.03592C21.4385 5.56509 20.9513 7.36123 19.5923 8.33751C18.2332 9.31379 16.3756 9.20209 15.1433 8.07L8.99231 11.585C8.98622 11.8443 8.94998 12.1021 8.88431 12.353L15.1433 15.93C16.2956 14.8725 18.0101 14.7093 19.3412 15.5303C20.6723 16.3513 21.2959 17.9567 20.8681 19.461C20.4403 20.9653 19.0653 22.0023 17.5013 22ZM17.5013 17C16.6729 17 16.0013 17.6716 16.0013 18.5C16.0013 19.3284 16.6729 20 17.5013 20C18.3297 20 19.0013 19.3284 19.0013 18.5C19.0013 17.6716 18.3297 17 17.5013 17ZM5.50131 10C4.67289 10 4.00131 10.6716 4.00131 11.5C4.00131 12.3284 4.67289 13 5.50131 13C6.32974 13 7.00131 12.3284 7.00131 11.5C7.00131 10.6716 6.32974 10 5.50131 10ZM17.5013 4C16.6729 4 16.0013 4.67157 16.0013 5.5C16.0013 6.32843 16.6729 7 17.5013 7C18.3297 7 19.0013 6.32843 19.0013 5.5C19.0013 4.67157 18.3297 4 17.5013 4Z" fill="currentColor"></path>
  </symbol>
  <symbol xmlns="http://www.w3.org/2000/svg" viewBox="0 0 20 21" id="ic_shop">
    <path d="M18.3333 2.37695H1.66668C1.44566 2.37695 1.2337 2.46475 1.07742 2.62103C0.921141 2.77731 0.833344 2.98927 0.833344 3.21029V6.54362C0.834793 7.05941 0.995742 7.56212 1.29413 7.98284C1.59251 8.40356 2.01372 8.72169 2.50001 8.89362V18.2103C2.50001 18.4313 2.58781 18.6433 2.74409 18.7995C2.90037 18.9558 3.11233 19.0436 3.33334 19.0436H16.6667C16.8877 19.0436 17.0997 18.9558 17.2559 18.7995C17.4122 18.6433 17.5 18.4313 17.5 18.2103V8.89362C17.9863 8.72169 18.4075 8.40356 18.7059 7.98284C19.0043 7.56212 19.1652 7.05941 19.1667 6.54362V3.21029C19.1667 2.98927 19.0789 2.77731 18.9226 2.62103C18.7663 2.46475 18.5544 2.37695 18.3333 2.37695ZM12.5 4.04362H14.1667V6.54362C14.1667 6.76463 14.0789 6.9766 13.9226 7.13288C13.7663 7.28916 13.5544 7.37695 13.3333 7.37695C13.1123 7.37695 12.9004 7.28916 12.7441 7.13288C12.5878 6.9766 12.5 6.76463 12.5 6.54362V4.04362ZM9.16668 4.04362H10.8333V6.54362C10.8333 6.76463 10.7455 6.9766 10.5893 7.13288C10.433 7.28916 10.221 7.37695 10 7.37695C9.779 7.37695 9.56703 7.28916 9.41075 7.13288C9.25447 6.9766 9.16668 6.76463 9.16668 6.54362V4.04362ZM5.83334 4.04362H7.50001V6.54362C7.50001 6.76463 7.41221 6.9766 7.25593 7.13288C7.09965 7.28916 6.88769 7.37695 6.66668 7.37695C6.44566 7.37695 6.2337 7.28916 6.07742 7.13288C5.92114 6.9766 5.83334 6.76463 5.83334 6.54362V4.04362ZM3.33334 7.37695C3.11233 7.37695 2.90037 7.28916 2.74409 7.13288C2.58781 6.9766 2.50001 6.76463 2.50001 6.54362V4.04362H4.16668V6.54362C4.16668 6.76463 4.07888 6.9766 3.9226 7.13288C3.76632 7.28916 3.55436 7.37695 3.33334 7.37695ZM11.6667 17.377H8.33334V14.0436C8.33334 13.6016 8.50894 13.1777 8.8215 12.8651C9.13406 12.5525 9.55798 12.377 10 12.377C10.442 12.377 10.866 12.5525 11.1785 12.8651C11.4911 13.1777 11.6667 13.6016 11.6667 14.0436V17.377ZM15.8333 17.377H13.3333V14.0436C13.3333 13.1596 12.9822 12.3117 12.357 11.6866C11.7319 11.0615 10.8841 10.7103 10 10.7103C9.11595 10.7103 8.26811 11.0615 7.64299 11.6866C7.01787 12.3117 6.66668 13.1596 6.66668 14.0436V17.377H4.16668V8.89362C4.47298 8.77992 4.75554 8.61039 5.00001 8.39362C5.45836 8.80358 6.05173 9.03023 6.66668 9.03023C7.28162 9.03023 7.87499 8.80358 8.33334 8.39362C8.79169 8.80358 9.38507 9.03023 10 9.03023C10.615 9.03023 11.2083 8.80358 11.6667 8.39362C12.125 8.80358 12.7184 9.03023 13.3333 9.03023C13.9483 9.03023 14.5417 8.80358 15 8.39362C15.2445 8.61039 15.527 8.77992 15.8333 8.89362V17.377ZM17.5 6.54362C17.5 6.76463 17.4122 6.9766 17.2559 7.13288C17.0997 7.28916 16.8877 7.37695 16.6667 7.37695C16.4457 7.37695 16.2337 7.28916 16.0774 7.13288C15.9211 6.9766 15.8333 6.76463 15.8333 6.54362V4.04362H17.5V6.54362Z" fill="currentColor"></path>
  </symbol>
  <symbol xmlns="http://www.w3.org/2000/svg" viewBox="0 0 20 20" id="ic_star">
    <path d="M18.3334 8.05831C18.2808 7.90588 18.1851 7.772 18.0579 7.67289C17.9307 7.57379 17.7774 7.51372 17.6167 7.49998L12.8751 6.80831L10.7501 2.49998C10.6818 2.35908 10.5753 2.24026 10.4427 2.15712C10.31 2.07398 10.1566 2.02988 10.0001 2.02988C9.84354 2.02988 9.69015 2.07398 9.55751 2.15712C9.42486 2.24026 9.31832 2.35908 9.25008 2.49998L7.12508 6.79998L2.38342 7.49998C2.22918 7.5219 2.08419 7.58661 1.96487 7.68677C1.84556 7.78694 1.75672 7.91854 1.70842 8.06664C1.6642 8.21137 1.66024 8.36541 1.69694 8.51222C1.73364 8.65903 1.80963 8.79308 1.91675 8.89998L5.35842 12.2333L4.52508 16.9666C4.49533 17.1229 4.51091 17.2844 4.56998 17.432C4.62904 17.5797 4.72913 17.7074 4.85842 17.8C4.98443 17.8901 5.13306 17.9432 5.28762 17.9535C5.44218 17.9639 5.59656 17.9309 5.73342 17.8583L10.0001 15.6333L14.2501 17.8666C14.367 17.9326 14.4991 17.9671 14.6334 17.9666C14.8099 17.9673 14.9821 17.9118 15.1251 17.8083C15.2544 17.7157 15.3545 17.588 15.4135 17.4404C15.4726 17.2927 15.4882 17.1312 15.4584 16.975L14.6251 12.2416L18.0667 8.90831C18.1871 8.80638 18.276 8.67239 18.3232 8.52193C18.3704 8.37147 18.3739 8.2107 18.3334 8.05831Z" fill="currentColor"></path>
  </symbol>
  <symbol xmlns="http://www.w3.org/2000/svg" viewBox="0 0 24 24" id="ic_success">
    <path d="M12 22C6.47715 22 2 17.5228 2 12C2 6.47715 6.47715 2 12 2C17.5228 2 22 6.47715 22 12C21.9939 17.5203 17.5203 21.9939 12 22ZM11.984 20H12C16.4167 19.9956 19.9942 16.4127 19.992 11.996C19.9898 7.57929 16.4087 4 11.992 4C7.57528 4 3.99421 7.57929 3.992 11.996C3.98979 16.4127 7.56729 19.9956 11.984 20ZM10 17L6 13L7.41 11.59L10 14.17L16.59 7.58L18 9L10 17Z" fill="currentColor"></path>
  </symbol>
  <symbol xmlns="http://www.w3.org/2000/svg" viewBox="0 0 24 25" id="ic_telegram">
    <path d="M11.9943 2.71021C10.0165 2.71021 8.08312 3.29669 6.43863 4.39551C4.79413 5.49432 3.51241 7.05611 2.75553 8.88337C1.99866 10.7106 1.80062 12.7213 2.18648 14.6611C2.57233 16.6009 3.52474 18.3827 4.92326 19.7813C6.32179 21.1798 8.10362 22.1322 10.0434 22.5181C11.9832 22.9039 13.9939 22.7059 15.8212 21.949C17.6484 21.1921 19.2102 19.9104 20.309 18.2659C21.4078 16.6214 21.9943 14.688 21.9943 12.7102C21.9944 11.397 21.7359 10.0965 21.2333 8.88324C20.7308 7.66994 19.9942 6.5675 19.0656 5.63889C18.137 4.71029 17.0346 3.9737 15.8213 3.47119C14.608 2.96868 13.3076 2.7101 11.9943 2.71021ZM15.1738 17.8627C15.1364 17.956 15.0795 18.0403 15.0068 18.1098C14.9342 18.1793 14.8475 18.2325 14.7526 18.2658C14.6577 18.2991 14.5568 18.3117 14.4566 18.3028C14.3565 18.2939 14.2594 18.2637 14.1718 18.2142L11.4572 16.1048L9.71485 17.7122C9.67442 17.7421 9.62713 17.7613 9.57733 17.7681C9.52752 17.7749 9.47681 17.7691 9.42985 17.7511L9.76385 14.7627L9.77454 14.7712L9.78137 14.7122C9.78137 14.7122 14.6664 10.2647 14.8654 10.0752C15.0668 9.88616 15.0004 9.84517 15.0004 9.84517C15.0118 9.61464 14.6388 9.84517 14.6388 9.84517L8.16633 14.0092L5.47084 13.0912C5.47084 13.0912 5.05684 12.9427 5.01784 12.6162C4.97684 12.2922 5.48433 12.1162 5.48433 12.1162L16.2013 7.8587C16.2013 7.8587 17.0823 7.46618 17.0823 8.11621L15.1738 17.8627Z" fill="currentColor"></path>
  </symbol>
  <symbol xmlns="http://www.w3.org/2000/svg" viewBox="0 0 20 20" id="ic_tooltip">
    <path d="M9.40964 12.7417C9.3738 12.7813 9.34041 12.823 9.30964 12.8667C9.2781 12.9131 9.25288 12.9636 9.23464 13.0167C9.21061 13.0639 9.19376 13.1145 9.18464 13.1667C9.18055 13.2222 9.18055 13.2779 9.18464 13.3333C9.18182 13.4427 9.20466 13.5511 9.25131 13.65C9.28873 13.7534 9.34844 13.8473 9.42621 13.9251C9.50398 14.0029 9.59789 14.0626 9.70131 14.1C9.80106 14.1441 9.90891 14.1669 10.018 14.1669C10.127 14.1669 10.2349 14.1441 10.3346 14.1C10.4381 14.0626 10.532 14.0029 10.6097 13.9251C10.6875 13.8473 10.7472 13.7534 10.7846 13.65C10.8216 13.5487 10.8386 13.4411 10.8346 13.3333C10.8353 13.2237 10.8143 13.1149 10.7728 13.0134C10.7313 12.9119 10.6702 12.8195 10.593 12.7417C10.5155 12.6636 10.4233 12.6016 10.3218 12.5593C10.2202 12.517 10.1113 12.4952 10.0013 12.4952C9.8913 12.4952 9.78237 12.517 9.68083 12.5593C9.57928 12.6016 9.48711 12.6636 9.40964 12.7417ZM10.0013 1.66667C8.35313 1.66667 6.74196 2.15541 5.37155 3.07109C4.00114 3.98677 2.93304 5.28826 2.30231 6.81098C1.67158 8.33369 1.50655 10.0092 1.8281 11.6258C2.14964 13.2423 2.94331 14.7271 4.10875 15.8926C5.27419 17.058 6.75905 17.8517 8.37555 18.1732C9.99206 18.4948 11.6676 18.3297 13.1903 17.699C14.7131 17.0683 16.0145 16.0002 16.9302 14.6298C17.8459 13.2593 18.3346 11.6482 18.3346 10C18.3346 8.90566 18.1191 7.82202 17.7003 6.81098C17.2815 5.79993 16.6677 4.88127 15.8939 4.10745C15.12 3.33363 14.2014 2.7198 13.1903 2.30101C12.1793 1.88222 11.0957 1.66667 10.0013 1.66667ZM10.0013 16.6667C8.68276 16.6667 7.39383 16.2757 6.2975 15.5431C5.20118 14.8106 4.34669 13.7694 3.84211 12.5512C3.33752 11.3331 3.2055 9.99261 3.46274 8.6994C3.71997 7.4062 4.35491 6.21831 5.28726 5.28596C6.21961 4.35361 7.4075 3.71867 8.7007 3.46144C9.99391 3.2042 11.3344 3.33622 12.5525 3.84081C13.7707 4.34539 14.8119 5.19988 15.5444 6.2962C16.277 7.39253 16.668 8.68146 16.668 10C16.668 11.7681 15.9656 13.4638 14.7154 14.7141C13.4651 15.9643 11.7694 16.6667 10.0013 16.6667ZM10.0013 5.83334C9.56219 5.83306 9.13075 5.94844 8.7504 6.16787C8.37004 6.38731 8.0542 6.70305 7.83464 7.08334C7.77434 7.17819 7.73386 7.28425 7.71562 7.39515C7.69738 7.50605 7.70176 7.6195 7.7285 7.72866C7.75524 7.83782 7.80378 7.94045 7.87121 8.03037C7.93864 8.12028 8.02356 8.19563 8.12086 8.25188C8.21817 8.30812 8.32585 8.3441 8.43742 8.35765C8.54899 8.37121 8.66215 8.36205 8.77009 8.33074C8.87803 8.29942 8.97852 8.2466 9.06551 8.17544C9.15251 8.10428 9.22421 8.01626 9.27631 7.91667C9.34973 7.7895 9.45545 7.68399 9.58276 7.61082C9.71008 7.53765 9.85446 7.49942 10.0013 7.50001C10.2223 7.50001 10.4343 7.5878 10.5906 7.74408C10.7468 7.90036 10.8346 8.11233 10.8346 8.33334C10.8346 8.55435 10.7468 8.76631 10.5906 8.92259C10.4343 9.07887 10.2223 9.16667 10.0013 9.16667C9.78029 9.16667 9.56833 9.25447 9.41205 9.41075C9.25577 9.56703 9.16797 9.77899 9.16797 10V10.8333C9.16797 11.0544 9.25577 11.2663 9.41205 11.4226C9.56833 11.5789 9.78029 11.6667 10.0013 11.6667C10.2223 11.6667 10.4343 11.5789 10.5906 11.4226C10.7468 11.2663 10.8346 11.0544 10.8346 10.8333V10.6833C11.3858 10.4834 11.8491 10.096 12.1436 9.58906C12.4381 9.0821 12.5451 8.48775 12.4458 7.90991C12.3465 7.33208 12.0473 6.80752 11.6005 6.42793C11.1536 6.04835 10.5876 5.83789 10.0013 5.83334Z" fill="currentColor"></path>
  </symbol>
  <symbol xmlns="http://www.w3.org/2000/svg" viewBox="0 0 26 26" id="ic_user">
    <path d="M17.0193 13.7692C18.0814 12.9335 18.8566 11.7877 19.2371 10.4909C19.6176 9.1942 19.5845 7.81111 19.1424 6.53408C18.7002 5.25705 17.8711 4.14958 16.7702 3.36575C15.6693 2.58192 14.3515 2.16071 13.0001 2.16071C11.6487 2.16071 10.3309 2.58192 9.23004 3.36575C8.12918 4.14958 7.29999 5.25705 6.85785 6.53408C6.41571 7.81111 6.38259 9.1942 6.76311 10.4909C7.14363 11.7877 7.91886 12.9335 8.98095 13.7692C7.16104 14.4983 5.5731 15.7076 4.38642 17.2682C3.19974 18.8288 2.45881 20.6822 2.24262 22.6308C2.22697 22.7731 2.23949 22.917 2.27948 23.0545C2.31946 23.1919 2.38612 23.3201 2.47566 23.4318C2.65647 23.6573 2.91947 23.8017 3.20679 23.8333C3.4941 23.8649 3.78221 23.7811 4.00772 23.6003C4.23323 23.4195 4.37768 23.1565 4.40929 22.8692C4.64717 20.7515 5.65695 18.7956 7.24569 17.3754C8.83443 15.9551 10.8908 15.1699 13.0218 15.1699C15.1528 15.1699 17.2091 15.9551 18.7979 17.3754C20.3866 18.7956 21.3964 20.7515 21.6343 22.8692C21.6637 23.1354 21.7908 23.3812 21.9908 23.5593C22.1909 23.7373 22.4498 23.835 22.7176 23.8333H22.8368C23.1208 23.8007 23.3803 23.6571 23.5589 23.4338C23.7375 23.2106 23.8206 22.9259 23.7901 22.6417C23.5729 20.6875 22.828 18.8294 21.6352 17.2664C20.4424 15.7034 18.8468 14.4944 17.0193 13.7692ZM13.0001 13C12.1431 13 11.3053 12.7458 10.5926 12.2697C9.88004 11.7935 9.32462 11.1168 8.99664 10.325C8.66866 9.53314 8.58285 8.66185 8.75005 7.82127C8.91725 6.98068 9.32996 6.20856 9.93599 5.60253C10.542 4.9965 11.3141 4.58379 12.1547 4.41659C12.9953 4.24939 13.8666 4.3352 14.6584 4.66318C15.4502 4.99116 16.127 5.54658 16.6032 6.25919C17.0793 6.9718 17.3335 7.80961 17.3335 8.66666C17.3335 9.81593 16.8769 10.9181 16.0642 11.7308C15.2516 12.5434 14.1494 13 13.0001 13Z" fill="currentColor"></path>
  </symbol>
</svg>